<svg width="240" height="70" viewBox="0 0 240 70" fill="none" xmlns="http://www.w3.org/2000/svg">
<circle cx="35.916" cy="35" r="35" fill="#646464"/>
<circle cx="35.9162" cy="35" r="29.6154" fill="#AAAAAA"/>
<circle cx="35.9161" cy="35" r="24.9038" fill="#646464"/>
<circle cx="35.9159" cy="35" r="20.1923" fill="#AAAAAA"/>
<circle cx="35.9158" cy="35.0001" r="15.4808" fill="#646464"/>
<circle cx="35.916" cy="35" r="10.0962" fill="#4A4A4A"/>
<path d="M35.7856 29.9333C35.8331 29.8215 35.9987 29.8215 36.0462 29.9333C36.3319 30.6059 37.0556 32.1799 37.8958 33.0201C38.736 33.8603 40.31 34.5839 40.9826 34.8697C41.0944 34.9172 41.0944 35.0828 40.9826 35.1303C40.31 35.416 38.736 36.1397 37.8958 36.9799C37.0556 37.8201 36.3319 39.3941 36.0462 40.0667C35.9987 40.1785 35.8331 40.1785 35.7856 40.0667C35.4998 39.3941 34.7762 37.8201 33.936 36.9799C33.0958 36.1397 31.5217 35.416 30.8492 35.1303C30.7374 35.0828 30.7374 34.9172 30.8492 34.8697C31.5217 34.5839 33.0958 33.8603 33.936 33.0201C34.7762 32.1799 35.4998 30.6058 35.7856 29.9333Z" fill="white"/>
<path d="M97.7409 53.0456C108.111 53.0456 114.566 46.1077 114.566 35.012V34.9637C114.566 23.8922 108.087 16.9543 97.7409 16.9543C87.4187 16.9543 80.916 23.868 80.916 34.9637V35.012C80.916 46.1077 87.3704 53.0456 97.7409 53.0456ZM97.7409 46.8571C92.0117 46.8571 88.3615 42.3125 88.3615 35.012V34.9637C88.3615 27.6633 92.0359 23.1428 97.7409 23.1428C103.47 23.1428 107.12 27.6874 107.12 34.9637V35.012C107.12 42.24 103.543 46.8571 97.7409 46.8571Z" fill="#4A4A4A"/>
<path d="M130.52 52.973C137.434 52.973 141.906 48.6701 142.244 43.0135V42.8685H135.669L135.645 43.086C135.162 45.6968 133.397 47.4373 130.569 47.4373C127.088 47.4373 124.912 44.5606 124.912 39.4842V39.46C124.912 34.5044 127.088 31.531 130.544 31.531C133.469 31.531 135.186 33.4166 135.621 35.8823L135.669 36.0999H142.22V35.9306C141.954 30.3224 137.482 25.9953 130.448 25.9953C122.688 25.9953 117.732 31.1443 117.732 39.4358V39.46C117.732 47.8241 122.616 52.973 130.52 52.973Z" fill="#4A4A4A"/>
<path d="M155.951 52.973C157.426 52.973 158.562 52.828 159.359 52.7071V47.534C158.924 47.5823 158.465 47.6548 157.836 47.6548C155.709 47.6548 154.621 46.8329 154.621 44.4156V31.8453H159.359V26.5271H154.621V20.1936H147.49V26.5271H143.888V31.8453H147.49V45.1891C147.49 50.7491 150.198 52.973 155.951 52.973Z" fill="#4A4A4A"/>
<path d="M170.721 52.8522C174.129 52.8522 176.885 51.2325 178.36 48.5734H178.505V52.4412H185.564V34.6736C185.564 29.4521 181.237 25.9953 174.54 25.9953C167.699 25.9953 163.59 29.4279 163.203 34.2143L163.179 34.5044H169.633L169.682 34.2868C170.02 32.6189 171.615 31.386 174.25 31.386C177.006 31.386 178.505 32.8122 178.505 35.1087V36.7042L172.099 37.091C165.669 37.5019 162.019 40.2577 162.019 44.9716V45.0199C162.019 49.5887 165.524 52.8522 170.721 52.8522ZM169.005 44.6573V44.609C169.005 42.7718 170.431 41.6114 173.163 41.4422L178.505 41.1038V42.9652C178.505 45.6726 176.184 47.7032 173.018 47.7032C170.576 47.7032 169.005 46.567 169.005 44.6573Z" fill="#4A4A4A"/>
<path d="M196.829 52.4412H204.782L213.678 26.5271H206.305L200.962 46.2044H200.817L195.402 26.5271H187.86L196.829 52.4412Z" fill="#4A4A4A"/>
<path d="M227.021 52.973C234.418 52.973 237.996 48.5976 238.794 44.7782L238.866 44.5123H232.388L232.34 44.6573C231.832 46.1077 230.067 47.7032 227.166 47.7032C223.565 47.7032 221.316 45.2858 221.244 41.1521H239.084V38.9765C239.084 31.1443 234.322 25.9953 226.731 25.9953C219.141 25.9953 214.282 31.2651 214.282 39.5083V39.5325C214.282 47.8241 219.092 52.973 227.021 52.973ZM226.852 31.2651C229.777 31.2651 231.88 33.1265 232.315 36.7042H221.316C221.776 33.199 223.951 31.2651 226.852 31.2651Z" fill="#4A4A4A"/>
</svg>
