<svg width="100" height="100" viewBox="0 0 100 100" fill="none" xmlns="http://www.w3.org/2000/svg">
<path fill-rule="evenodd" clip-rule="evenodd" d="M0 0H100V100H0V0ZM44.8327 19.2754H48.2737V51.7372H52.7216V54.9317H40.2425V51.7372H44.5374V29.6678C44.5283 28.6888 44.5783 27.7101 44.6868 26.7372H44.5374C44.3175 27.6617 44.045 28.5728 43.7216 29.4663L34.541 46.9526H30.3743L21.1833 29.4734C20.8618 28.5774 20.5918 27.6638 20.3743 26.7372H20.2181C20.3285 27.7147 20.3806 28.698 20.3743 29.6817V51.7372H24.6695V54.9317H12.1938V51.7372H16.6278V22.4699H12.166V19.2754H20.0827L32.4612 42.6068L44.8327 19.2754ZM20.3652 68.7801L20.3681 68.7812L20.3334 68.7881C23.2256 69.92 26.5 71.2083 26.5 74.9687C26.5 78.3229 23.5869 80.7533 19.5729 80.7533C14.816 80.7533 12.316 77.9479 12.2118 77.8262L12 77.5833L13.8854 75.0693L14.2118 75.4166C15.6624 76.816 17.5955 77.6041 19.6111 77.6179C21.1944 77.6179 23.0452 76.92 23.0452 74.9616C23.0452 73.3427 21.1378 72.5821 18.9304 71.702L18.9202 71.6979L18.9127 71.6949C16.0256 70.5427 12.7604 69.2397 12.7604 65.5277C12.7604 62.1666 15.625 59.8193 19.7048 59.8193C23.8611 59.8193 25.8056 61.9652 25.8854 62.0554L26.0798 62.2741L24.4827 64.9687L24.1354 64.5762L24.1343 64.575C24.0837 64.5236 22.534 62.9479 19.6459 62.9479C18.8506 62.9479 16.25 63.1354 16.25 65.5277C16.25 67.1624 18.1581 67.9124 20.3652 68.7801ZM37.5414 59.8193C33.1387 59.8193 30.5691 62 30.4616 62.0937L30.2045 62.3158L31.8399 64.9791L32.1872 64.6908C33.6855 63.5937 35.4866 62.9873 37.3435 62.9548C40.2774 62.9548 41.7045 64.4479 41.7045 67.5208V67.6179H41.0483C38.0483 67.6179 28.9199 67.6179 28.9199 74.6631C28.9199 78.6595 32.392 80.7533 35.8295 80.7533C37.0053 80.7706 38.1674 80.4987 39.2137 79.9616C40.2599 79.4247 41.158 78.6389 41.8295 77.6735V80.295H45.1039V67.5902C45.1039 62.5798 42.4199 59.8193 37.5449 59.8193H37.5414ZM41.7116 70.5485V70.9895C41.7116 74.2464 39.5137 77.7325 36.2462 77.7325C33.5899 77.7325 32.3816 76.0589 32.3816 74.5033C32.3816 70.9964 36.9893 70.5485 41.0066 70.5485H41.7116ZM55.8614 75.5006C55.954 75.2184 56.0561 74.9073 56.1635 74.627L61.5352 60.2832H65.0941L57.5004 80.2868H54.1427L46.5039 60.2832H50.0837L55.4968 74.6305C55.6114 74.943 55.7191 75.2903 55.8164 75.6374L55.8614 75.5006ZM75.4729 59.8215C69.6709 59.8215 65.6152 64.1305 65.6152 70.304C65.6152 76.3561 70.0042 80.7486 76.0319 80.7486C78.7425 80.7357 81.3584 79.7499 83.4034 77.9707L83.6325 77.7486L82.025 75.0507L81.6604 75.3978C80.1371 76.7836 78.1636 77.5705 76.1048 77.6132C71.5388 77.6132 69.3236 74.259 69.0875 70.8111H83.7575L83.7888 70.4638C83.7888 70.4611 83.7892 70.4543 83.7899 70.4438C83.7913 70.4221 83.7942 70.3849 83.7979 70.3357L83.7982 70.3328C83.8186 70.0655 83.8652 69.4547 83.8652 69.0749C83.8652 64.4674 81.2646 59.8145 75.4554 59.8145L75.4729 59.8215ZM69.2646 67.8736C69.9382 64.7242 72.2471 62.7903 75.3792 62.7903C77.6429 62.7903 80.1013 64.1374 80.4104 67.8736H69.2646ZM71.1777 50.838C76.1084 49.4422 80.2054 43.6261 80.2054 37.1088C80.2054 30.5428 76.4244 24.883 71.2161 23.2788C69.2438 22.574 67.4277 22.4699 65.1013 22.4699H58.6986V51.7476H65.1152C67.4417 51.7476 69.3617 51.5324 71.1777 50.838ZM72.6152 20.133C79.4346 22.2547 83.8827 28.4282 83.8827 37.1088C83.8827 45.7476 79.5875 51.758 72.6152 53.9838C70.2992 54.7407 67.9173 54.9422 65.0911 54.9422H54.5944V22.4699H50.1465V19.2754H65.039C68.0182 19.2754 70.2402 19.4386 72.6152 20.133ZM85.6736 77.4303C85.9746 77.4219 86.2715 77.5038 86.5259 77.6651C86.7804 77.8265 86.9809 78.0601 87.1019 78.3361C87.2227 78.6121 87.2586 78.918 87.2046 79.2144C87.1506 79.5109 87.0096 79.7844 86.7992 80.0003C86.589 80.2161 86.319 80.3642 86.024 80.4257C85.729 80.4871 85.4225 80.4592 85.1433 80.3453C84.8644 80.2315 84.6256 80.0371 84.4579 79.7869C84.29 79.5367 84.2006 79.2419 84.2013 78.9407C84.1967 78.5453 84.349 78.1642 84.625 77.8811C84.9011 77.5978 85.2781 77.4357 85.6736 77.4303ZM85.6736 80.1213C85.9096 80.1365 86.1448 80.0805 86.3488 79.9605C86.5527 79.8405 86.7159 79.6617 86.8171 79.448C86.9181 79.234 86.9527 78.9946 86.9163 78.7607C86.8796 78.5269 86.7738 78.3096 86.6121 78.1367C86.4504 77.9638 86.2406 77.8436 86.0098 77.7915C85.779 77.7394 85.5377 77.758 85.3175 77.8446C85.0973 77.9313 84.9081 78.0821 84.7748 78.2776C84.6415 78.473 84.5698 78.704 84.5694 78.9407C84.5646 79.0903 84.5896 79.2392 84.6425 79.3792C84.6956 79.5192 84.7756 79.6473 84.8781 79.7563C84.9806 79.8653 85.1038 79.953 85.2402 80.0144C85.3767 80.0759 85.524 80.1098 85.6736 80.1142V80.1213ZM85.1561 78.1767H85.7846C85.8496 78.1717 85.9148 78.1807 85.9763 78.2028C86.0375 78.2249 86.0936 78.2596 86.1404 78.3048C86.1873 78.3503 86.224 78.4048 86.2484 78.4655C86.2725 78.5259 86.2838 78.5909 86.2811 78.6559C86.2854 78.7415 86.2619 78.8263 86.2136 78.8971C86.1652 78.968 86.095 79.0211 86.0138 79.0484C86.0348 79.0748 86.0523 79.104 86.0658 79.1351L86.3506 79.6803H85.9652L85.7081 79.1246H85.5102V79.6803H85.1631L85.1561 78.1767ZM85.7048 78.8713C85.7346 78.8734 85.7646 78.869 85.7927 78.8584C85.8206 78.8478 85.8461 78.8311 85.8669 78.8094C85.8877 78.788 85.9036 78.7621 85.9133 78.7338C85.9231 78.7055 85.9267 78.6753 85.9236 78.6455C85.9273 78.6161 85.9244 78.5861 85.915 78.558C85.9056 78.5296 85.89 78.504 85.8694 78.4826C85.8486 78.4613 85.8233 78.4448 85.7954 78.4346C85.7675 78.4242 85.7377 78.4205 85.7081 78.4234H85.5102V78.8713H85.7048Z" fill="#4A4A4A"/>
</svg>
