<svg width="190" height="60" viewBox="0 0 190 60" fill="none" xmlns="http://www.w3.org/2000/svg">
<path d="M73.9387 16.98H84.1254V51.2581H93.8675V16.98H104.017V8.41052H73.9387V16.98ZM107.536 8.41052V51.2581H117.315V34.3417L130.354 51.2581H142.763L128.021 33.5626C133.281 31.8932 136.8 27.5899 136.8 21.135C136.8 12.7138 130.799 8.41052 122.835 8.41052H107.536ZM117.315 27.4044V16.201H118.427C122.131 16.201 126.539 16.4607 126.539 21.8027C126.539 27.1448 122.131 27.4044 118.427 27.4044H117.315ZM180.065 51.2581H189.807L185.955 8.41052H175.583L166.1 33.1175L156.617 8.41052H146.245L142.393 51.2581H152.135L154.172 25.8463H154.432L163.211 50.9985H168.989L177.768 25.8463H178.028L180.065 51.2581Z" fill="#4A4A4A"/>
<path d="M54.9254 25.6894C52.5052 25.6894 50.5073 27.2411 50.1737 29.9997H37.0746C37.0746 27.9307 36.649 27.0969 35.9205 26.0025L46.782 15.006C47.1775 15.1653 47.6066 15.2157 48.059 15.2157C49.9553 15.2157 51.4919 13.6502 51.4919 11.7461C51.4919 9.84196 49.9553 8.2868 48.059 8.2868C46.1627 8.2868 44.6262 9.82471 44.6262 11.7295C44.6262 12.6185 44.9702 13.4178 45.5201 14.0295L34.9346 24.6618C33.8594 23.6349 32.4568 22.9494 30.8955 22.7935V9.59989C33.2237 9.26472 35.0149 7.25923 35.0149 4.82753C35.0149 2.16135 32.8632 0 30.209 0C27.5547 0 25.403 2.16135 25.403 4.82753C25.403 7.25923 27.1942 9.26472 29.5224 9.59989V22.7928C28.0566 22.939 26.7308 23.5528 25.6831 24.4776L15.4402 14.1895C16.0787 13.5633 16.4776 12.6916 16.4776 11.724C16.4776 9.8192 14.9411 8.27577 13.0448 8.27577C11.1485 8.27577 9.61194 9.8192 9.61194 11.724C9.61194 13.6288 11.1485 15.1722 13.0448 15.1722C13.4698 15.1722 13.8728 15.0847 14.2483 14.9426L24.7473 25.6611C23.8699 26.819 23.3433 27.9307 23.3433 29.9997H9.55702C9.22335 27.2411 7.22612 25.6894 4.80597 25.6894C2.1517 25.6894 0 27.7645 0 30.4307C0 33.0975 2.1517 35.3879 4.80597 35.3879C7.22681 35.3879 9.22335 33.4479 9.55702 31.3789H23.4806C23.7415 32.0686 24.3663 33.6548 25.2362 34.5741L15.3365 44.4319C14.7282 43.8795 13.9298 43.4912 13.0448 43.4912C11.1485 43.4912 9.61194 45.0133 9.61194 46.9181C9.61194 48.8229 11.1485 50.3553 13.0448 50.3553C14.9411 50.3553 16.4776 48.8063 16.4776 46.9015C16.4776 46.4471 16.3849 46.0126 16.2263 45.616L26.4013 35.3941C27.3116 36.0051 28.3751 36.4023 29.5224 36.5168V50.3994C27.1942 50.7346 25.403 52.7415 25.403 55.1725C25.403 57.8393 27.5547 60 30.209 60C32.8632 60 35.0149 57.8393 35.0149 55.1725C35.0149 52.7415 33.2237 50.7346 30.8955 50.3994V36.5168C32.1911 36.3872 33.3747 35.892 34.3572 35.1417L44.8555 45.6871C44.7141 46.0643 44.6269 46.4691 44.6269 46.896C44.6269 48.8008 46.1634 50.3442 48.0597 50.3442C49.956 50.3442 51.4926 48.8008 51.4926 46.896C51.4926 44.9912 49.956 43.4478 48.0597 43.4478C47.0971 43.4478 46.2293 43.8485 45.6059 44.4898L35.363 34.3734C36.1375 33.4886 36.6943 32.0686 36.9366 31.3789H50.1737C50.5073 33.4479 52.5052 35.3444 54.9254 35.3444C57.5797 35.3444 59.7314 33.1838 59.7314 30.5169C59.7314 27.8507 57.5797 25.6894 54.9254 25.6894Z" fill="#4A4A4A"/>
</svg>
