<svg width="286" height="51" viewBox="0 0 286 51" fill="none" xmlns="http://www.w3.org/2000/svg">
<path d="M91.5919 3.1774L75.8546 27.6763L67.4833 14.6516L69.8377 10.9867L74.8648 18.7998L75.8558 20.34L76.8455 18.7989L86.8773 3.1774H91.5919Z" fill="#4A4A4A" stroke="#4A4A4A" stroke-width="2.35456"/>
<path d="M101.617 47.9619V19.3765H105.522V47.9619H101.617Z" fill="#4A4A4A" stroke="#4A4A4A" stroke-width="2.35456"/>
<path d="M128.251 48.6587H128.25C119.585 48.6587 112.863 42.0559 112.883 33.6762V33.6733C112.883 25.1381 119.451 18.6895 128.268 18.6879C131.947 18.7097 135.481 20.067 138.222 22.4891L135.62 25.0647C134.744 24.2702 133.746 23.6176 132.664 23.1326C131.288 22.5165 129.802 22.1835 128.295 22.1536L128.283 22.1534H128.272C121.865 22.1534 117.051 27.1789 117.038 33.6465C116.944 35.803 117.483 37.9401 118.588 39.7948C119.698 41.6571 121.33 43.1527 123.282 44.096C125.234 45.0393 127.42 45.3887 129.569 45.101C131.718 44.8134 133.735 43.9012 135.37 42.4777L135.775 42.1257V41.5897V36.642V35.4647H134.597H129.178V31.8013H139.416V43.6756C138.05 45.2025 136.384 46.4335 134.521 47.2906C132.555 48.1952 130.416 48.6619 128.251 48.6587Z" fill="#4A4A4A" stroke="#4A4A4A" stroke-width="2.35456"/>
<path d="M147.605 47.9619V19.3765H151.51V47.9619H147.605Z" fill="#4A4A4A" stroke="#4A4A4A" stroke-width="2.35456"/>
<path d="M163.767 43.1213V44.2985H164.944H178.947V47.9693H159.862V19.3765H163.767V43.1213Z" fill="#4A4A4A" stroke="#4A4A4A" stroke-width="2.35456"/>
<path d="M192.783 43.667H192.011L191.703 44.3752L190.142 47.9697H185.583L198.909 19.2227L212.178 47.9697H207.624L206.076 44.3783L205.769 43.667H204.995H192.783ZM194.27 38.4725L193.55 40.1209H195.349H202.451H204.246L203.531 38.4749L199.991 30.3166L198.914 27.8357L197.832 30.3142L194.27 38.4725Z" fill="#4A4A4A" stroke="#4A4A4A" stroke-width="2.35456"/>
<path d="M222.898 31.6971L222.939 47.9696H219.029V19.325L235.181 36.4599L237.222 38.6256L237.215 35.6494L237.174 19.3769H241.083V48.0215L224.932 30.8866L222.89 28.7209L222.898 31.6971Z" fill="#4A4A4A" stroke="#4A4A4A" stroke-width="2.35456"/>
<path d="M261.7 23.0472H260.522V24.2245V47.9693H256.617V24.2245V23.0472H255.44H247.601V19.3765H269.531V23.0472H261.7Z" fill="#4A4A4A" stroke="#4A4A4A" stroke-width="2.35456"/>
<path d="M104.198 3.1774L75.8398 47.5512L61.0855 24.8076L63.4449 21.1303L74.868 38.6696L75.8648 40.2002L76.8471 38.6602L99.4796 3.1774H104.198Z" fill="#4A4A4A" stroke="#4A4A4A" stroke-width="2.35456"/>
<mask id="path-10-inside-1_4495_2141" fill="white">
<path d="M275.752 23.6678V18.3902H273.773V17.6572H278.523V18.3902H276.544V23.6678H275.752Z"/>
</mask>
<path d="M275.752 23.6678V18.3902H273.773V17.6572H278.523V18.3902H276.544V23.6678H275.752Z" fill="#4A4A4A"/>
<path d="M275.752 23.6678H273.398V26.0224H275.752V23.6678ZM275.752 18.3902H278.107V16.0357H275.752V18.3902ZM273.773 18.3902H271.418V20.7448H273.773V18.3902ZM273.773 17.6572V15.3027H271.418V17.6572H273.773ZM278.523 17.6572H280.877V15.3027H278.523V17.6572ZM278.523 18.3902V20.7448H280.877V18.3902H278.523ZM276.544 18.3902V16.0357H274.189V18.3902H276.544ZM276.544 23.6678V26.0224H278.898V23.6678H276.544ZM278.107 23.6678V18.3902H273.398V23.6678H278.107ZM275.752 16.0357H273.773V20.7448H275.752V16.0357ZM276.128 18.3902V17.6572H271.418V18.3902H276.128ZM273.773 20.0118H278.523V15.3027H273.773V20.0118ZM276.168 17.6572V18.3902H280.877V17.6572H276.168ZM278.523 16.0357H276.544V20.7448H278.523V16.0357ZM274.189 18.3902V23.6678H278.898V18.3902H274.189ZM276.544 21.3133H275.752V26.0224H276.544V21.3133Z" fill="#4A4A4A" mask="url(#path-10-inside-1_4495_2141)"/>
<mask id="path-12-inside-2_4495_2141" fill="white">
<path d="M279.299 23.6677V17.6791H280.494L281.909 21.9232C282.041 22.319 282.136 22.6122 282.195 22.8101C282.268 22.5902 282.371 22.2677 282.517 21.8499L283.947 17.6791H285.017V23.6677H284.284V18.654L282.539 23.6677H281.806L280.069 18.5733V23.7043L279.299 23.6677Z"/>
</mask>
<path d="M279.299 23.6677V17.6791H280.494L281.909 21.9232C282.041 22.319 282.136 22.6122 282.195 22.8101C282.268 22.5902 282.371 22.2677 282.517 21.8499L283.947 17.6791H285.017V23.6677H284.284V18.654L282.539 23.6677H281.806L280.069 18.5733V23.7043L279.299 23.6677Z" fill="#4A4A4A"/>
<path d="M279.299 23.6677H276.945V25.9128L279.187 26.0196L279.299 23.6677ZM279.299 17.6791V15.3245H276.945V17.6791H279.299ZM280.494 17.6791L282.728 16.9345L282.191 15.3245H280.494V17.6791ZM281.909 21.9232L279.675 22.6677L279.675 22.6677L281.909 21.9232ZM282.195 22.8101L279.937 23.479L282.063 30.6523L284.428 23.5547L282.195 22.8101ZM282.517 21.8499L284.739 22.6294L284.742 22.6213L284.745 22.6132L282.517 21.8499ZM283.947 17.6791V15.3245H282.265L281.719 16.9157L283.947 17.6791ZM285.017 17.6791H287.371V15.3245H285.017V17.6791ZM285.017 23.6677V26.0223H287.371V23.6677H285.017ZM284.284 23.6677H281.929V26.0223H284.284V23.6677ZM284.284 18.654H286.638L282.06 17.8802L284.284 18.654ZM282.539 23.6677V26.0223H284.213L284.763 24.4415L282.539 23.6677ZM281.806 23.6677L279.578 24.4277L280.121 26.0223H281.806V23.6677ZM280.069 18.5733L282.298 17.8134L277.714 18.5733H280.069ZM280.069 23.7043L279.957 26.0562L282.424 26.1737V23.7043H280.069ZM281.654 23.6677V17.6791H276.945V23.6677H281.654ZM279.299 20.0336H280.494V15.3245H279.299V20.0336ZM278.26 18.4237L279.675 22.6677L284.143 21.1786L282.728 16.9345L278.26 18.4237ZM279.675 22.6677C279.808 23.0659 279.891 23.324 279.937 23.479L284.452 22.1412C284.381 21.9003 284.274 21.5721 284.143 21.1786L279.675 22.6677ZM284.428 23.5547C284.513 23.3006 284.6 23.0245 284.739 22.6294L280.295 21.0703C280.141 21.5108 280.023 21.8798 279.961 22.0655L284.428 23.5547ZM284.745 22.6132L286.174 18.4424L281.719 16.9157L280.29 21.0865L284.745 22.6132ZM283.947 20.0336H285.017V15.3245H283.947V20.0336ZM282.662 17.6791V23.6677H287.371V17.6791H282.662ZM285.017 21.3131H284.284V26.0223H285.017V21.3131ZM286.638 23.6677V18.654H281.929V23.6677H286.638ZM282.06 17.8802L280.315 22.8939L284.763 24.4415L286.508 19.4277L282.06 17.8802ZM282.539 21.3131H281.806V26.0223H282.539V21.3131ZM284.035 22.9077L282.298 17.8134L277.84 19.3333L279.578 24.4277L284.035 22.9077ZM277.714 18.5733V23.7043H282.424V18.5733H277.714ZM280.181 21.3525L279.411 21.3158L279.187 26.0196L279.957 26.0562L280.181 21.3525Z" fill="#4A4A4A" mask="url(#path-12-inside-2_4495_2141)"/>
<path d="M52.3621 49.6014V45.4086H40.0257V35.8796H52.3621V31.6722H40.0257V22.429H52.3621V18.2362H35.4517V49.6014H52.3621ZM5.89711 45.306V26.893H14.6931C21.554 26.893 26.1426 30.6093 26.1426 36.0042C26.1426 42.8651 20.6744 45.306 14.6931 45.306H5.89711ZM5.89711 22.5829V6.45692H12.8826C21.4954 6.45692 23.5111 11.0748 23.5111 14.6006C23.5111 17.3566 22.1917 22.6196 13.2491 22.6196L5.89711 22.5829ZM15.0816 49.6014C27.2201 49.6014 30.8045 42.4839 30.8045 36.0042C30.843 33.5051 30.1252 31.0528 28.7451 28.969C27.3651 26.8852 25.3873 25.2672 23.0713 24.3275C26.7803 21.3075 28.1657 18.676 28.1657 14.7985C28.1657 7.57841 22.9467 2.12488 13.1905 2.12488H1.24255V49.6014H15.0816Z" fill="#4A4A4A" stroke="#4A4A4A" stroke-width="2.35456" stroke-miterlimit="10"/>
</svg>
