<svg width="183" height="52" viewBox="0 0 183 52" fill="none" xmlns="http://www.w3.org/2000/svg">
<path d="M51.549 22.8522C51.0295 22.5544 50.5101 22.1822 49.9907 21.8845C49.8422 21.81 49.6938 21.7356 49.6196 21.6612C49.6196 21.6612 49.6938 21.6612 49.6938 21.5867L50.2133 21.0657C50.2875 21.1401 50.3617 21.2145 50.3617 21.289C50.4359 21.4379 50.5843 21.5123 50.6585 21.6612C50.7327 21.7356 50.7327 21.7356 50.8069 21.81C51.0295 22.0334 51.178 22.3311 51.4006 22.5544C51.4006 22.6288 51.4748 22.7777 51.549 22.8522Z" fill="url(#paint0_linear_4495_1536)"/>
<path d="M85.8324 40.1956C85.4613 46.1505 80.0443 50.9145 74.182 51.8077C68.3197 52.701 62.309 50.3934 57.6341 46.746C57.1888 46.3738 56.7436 46.0761 56.2983 45.7039C56.1499 45.555 56.0015 45.4806 55.8531 45.3317C55.7047 45.2573 55.6305 45.1084 55.4821 45.034C54.4432 44.1407 53.4785 43.173 52.5138 42.2054C52.3654 42.0565 52.217 41.9076 52.1428 41.7587C51.7718 41.3865 51.475 41.0144 51.1039 40.6422C50.8813 40.4189 50.7329 40.1956 50.5103 39.9722L50.3619 39.8234C50.1392 39.6001 49.9166 39.3768 49.7682 39.079L49.694 39.0046C49.4714 38.7813 49.2488 38.4835 49.0262 38.2602L48.9519 38.1858C48.8777 38.1113 48.8035 37.9625 48.7293 37.888C48.5809 37.7391 48.4325 37.5903 48.3583 37.4414C47.8389 36.7715 47.2452 36.1015 46.7258 35.4316C46.5031 35.2083 46.2805 34.9105 46.1321 34.6872C45.9095 34.4639 45.7611 34.1662 45.5385 33.9429C45.4643 33.794 45.3158 33.7195 45.2416 33.5707C44.648 32.9007 44.1286 32.1564 43.5349 31.4864C43.0155 30.8909 42.496 30.221 42.0508 29.6255C42.125 29.5511 42.1992 29.4766 42.2734 29.4022C42.4218 29.2533 42.5702 29.1045 42.7186 29.03C42.7928 28.9556 42.867 28.8811 42.9413 28.8067C43.0897 28.6578 43.1639 28.5834 43.3123 28.4345C43.4607 28.2856 43.6091 28.1368 43.7575 27.9879C43.8317 27.9135 43.9059 27.839 43.9801 27.7646C44.0543 27.6902 44.1286 27.6157 44.1286 27.6157L44.2028 27.5413C44.4254 27.3924 44.5738 27.1691 44.7222 27.0202C44.9448 26.7969 45.0932 26.648 45.3158 26.4247C45.3158 26.4247 45.3158 26.4247 45.3901 26.3503C45.4643 26.2014 45.6127 26.127 45.6869 26.0525C45.7611 25.9781 45.8353 25.9037 45.8353 25.9037C45.9095 25.8292 45.9837 25.7548 46.0579 25.6804C46.2805 25.457 46.4289 25.3082 46.5774 25.0849C46.9484 24.6382 47.3194 24.2661 47.7646 23.8194C47.8389 23.745 47.9131 23.6706 47.9873 23.5961C48.0615 23.5217 48.2099 23.3728 48.2841 23.2984C48.5067 23.0006 48.8035 22.7773 49.0262 22.4796C49.2488 22.2563 49.3972 22.1074 49.5456 21.8841C49.5456 21.8841 49.6198 21.8841 49.6198 21.8096L50.1392 21.2886C50.2135 21.363 50.2877 21.4374 50.2877 21.5119C50.3619 21.6608 50.5103 21.7352 50.5845 21.8841C50.6587 21.9585 50.6587 21.9585 50.7329 22.0329C50.9555 22.2563 51.1039 22.554 51.3265 22.7773C51.4007 22.8518 51.4749 23.0006 51.5492 23.0751C52.6622 24.4149 53.7011 25.8292 54.8142 27.1691C55.4079 27.9135 56.0757 28.6578 56.7436 29.4022C57.1888 29.9233 57.7083 30.4443 58.1535 30.9654C58.5245 31.3376 58.8956 31.7842 59.2666 32.1564C61.567 34.5384 64.1642 36.697 66.9098 38.5579C69.6554 40.3444 72.6979 41.7587 75.8145 42.5031C77.076 42.8008 78.4118 43.0242 79.6733 43.0986H79.7475C82.1963 42.9497 84.9419 42.3542 85.8324 40.1956Z" fill="url(#paint1_linear_4495_1536)"/>
<path d="M79.8217 42.8751C65.7225 52.6263 53.6269 42.8006 50.4361 39.8232C50.065 39.451 49.8424 39.2277 49.7682 39.1532L49.694 39.0788C49.4714 38.8555 49.2488 38.5577 49.0262 38.3344L48.9519 38.26C48.8777 38.1855 48.8035 38.0367 48.7293 37.9622C48.5809 37.8134 48.4325 37.6645 48.3583 37.5156C47.8389 36.8457 47.2452 36.1757 46.7258 35.5058C46.5031 35.2825 46.2805 34.9848 46.1321 34.7614C45.9095 34.5381 45.7611 34.2404 45.5385 34.0171C45.4643 33.8682 45.3158 33.7938 45.2416 33.6449C44.648 32.975 44.1286 32.2306 43.5349 31.5607C43.0155 30.9652 42.496 30.2952 42.0508 29.6997C42.125 29.6253 42.1992 29.5509 42.2734 29.4764C42.4218 29.3275 42.5702 29.1787 42.7186 29.1042C42.7928 29.0298 42.867 28.9554 42.9413 28.8809C43.0897 28.732 43.1639 28.6576 43.3123 28.5087C43.4607 28.3599 43.6091 28.211 43.7575 28.0621C43.8317 27.9877 43.9059 27.9132 43.9801 27.8388C44.0543 27.7644 44.1286 27.6899 44.1286 27.6899L44.2028 27.6155C44.4254 27.4666 44.5738 27.2433 44.7222 27.0944C44.9448 26.8711 45.0932 26.7223 45.3158 26.4989C45.3158 26.4989 45.3158 26.4989 45.3901 26.4245C45.4643 26.2756 45.6127 26.2012 45.6869 26.1268C45.7611 26.0523 45.8353 25.9779 45.8353 25.9779C45.9095 25.9034 45.9837 25.829 46.0579 25.7546C46.2805 25.5313 46.4289 25.3824 46.5774 25.1591C46.9484 24.7125 47.3194 24.3403 47.7646 23.8936C47.8389 23.8192 47.9131 23.7448 47.9873 23.6703C48.0615 23.5959 48.2099 23.447 48.2841 23.3726C48.5067 23.0748 48.8035 22.8515 49.0262 22.5538C49.2488 22.3305 49.3972 22.1816 49.5456 21.9583C49.5456 21.9583 49.6198 21.9583 49.6198 21.8839L50.1392 21.3628C50.2135 21.4372 50.2877 21.5117 50.2877 21.5861C50.3619 21.735 50.5103 21.8094 50.5845 21.9583C50.6587 22.0327 50.6587 22.0327 50.7329 22.1072C50.9555 22.3305 51.1039 22.6282 51.3265 22.8515C51.4007 22.926 51.475 23.0748 51.5492 23.1493C52.6622 24.4891 53.7011 25.9034 54.8142 27.2433C55.4079 27.9877 56.0757 28.732 56.7436 29.4764C57.1888 29.9975 57.7083 30.5185 58.1535 31.0396C58.5245 31.4118 58.8956 31.8584 59.2666 32.2306C61.567 34.6126 64.1642 36.7712 66.9098 38.6322C69.6554 40.4186 72.6979 41.8329 75.8146 42.5773C77.1503 42.5773 78.486 42.8006 79.8217 42.8751Z" fill="#2D2D2D"/>
<path d="M67.0581 38.4095C62.6799 38.1862 58.8212 36.5486 55.0367 34.6132C54.3688 34.3155 53.7752 33.9433 53.1073 33.6455C52.6621 33.4222 52.2169 33.1989 51.8458 32.9756C51.6974 32.9012 51.6232 32.8267 51.4748 32.7523C49.7681 31.7846 48.1355 30.8169 46.6514 29.7004C45.7609 29.0305 44.8705 28.3605 43.98 27.6161C44.0542 27.5417 44.1284 27.4673 44.1284 27.4673L44.2026 27.3928C44.4252 27.244 44.5736 27.0207 44.722 26.8718C44.9447 26.6485 45.0931 26.4996 45.3157 26.2763C45.3157 26.2763 45.3157 26.2763 45.3899 26.2018C45.4641 26.053 45.6125 25.9785 45.6867 25.9041C45.7609 25.8297 45.8351 25.7552 45.8351 25.7552C45.9093 25.6808 45.9835 25.6064 46.0578 25.5319C46.2804 25.3086 46.4288 25.1597 46.5772 24.9364C46.9482 24.4898 47.3193 24.1176 47.7645 23.671C47.8387 23.5966 47.9129 23.5221 47.9871 23.4477C48.0613 23.3732 48.2097 23.2244 48.2839 23.1499C48.5066 22.8522 48.8034 22.6289 49.026 22.3311C49.2486 22.1078 49.397 21.9589 49.5454 21.7356C49.5454 21.7356 49.6196 21.7356 49.6196 21.6612L50.1391 21.1401C50.2133 21.2146 50.2875 21.289 50.2875 21.3634C50.3617 21.5123 50.5101 21.5868 50.5843 21.7356C50.6585 21.8101 50.6585 21.8101 50.7327 21.8845C52.0684 23.5966 53.4784 25.3086 54.8883 26.9462C55.4819 27.6906 56.1498 28.435 56.8176 29.1793C57.2629 29.7004 57.7823 30.2214 58.2275 30.7425C60.899 33.6455 63.7188 36.2508 67.0581 38.4095Z" fill="#3A3A3A"/>
<path d="M41.9018 26.6476L41.7534 26.7965L41.3824 27.1687L41.234 27.3176C41.0856 27.4664 41.0114 27.5409 40.7887 27.6897L40.7145 27.7642C40.4919 27.5409 40.2693 27.2431 40.0467 27.0198C38.4884 25.1589 36.7816 23.3724 35.0749 21.7348C33.1455 19.8739 31.142 18.0874 28.99 16.5242C27.8027 15.631 26.5412 14.8122 25.2797 14.1422C25.2055 14.0678 25.1313 14.0678 25.0571 13.9934C23.7213 13.3234 22.3114 12.7279 20.8273 12.3557C20.7531 12.3557 20.6789 12.3557 20.6789 12.2813C18.9722 11.9091 17.2654 11.8347 15.5587 12.1324C15.4103 12.1324 15.3361 12.2069 15.1876 12.2069C15.1134 12.2069 15.0392 12.2813 14.8908 12.2813C14.8166 12.2813 14.7424 12.2813 14.6682 12.3557C14.594 12.3557 14.4456 12.4302 14.3714 12.4302C14.2972 12.4302 14.223 12.5046 14.1488 12.5046C14.0746 12.5046 14.0003 12.579 13.9261 12.579C13.8519 12.579 13.7777 12.6535 13.7035 12.6535C13.6293 12.6535 13.5551 12.7279 13.4067 12.8024C13.3325 12.8024 13.2583 12.8768 13.1841 12.9512C13.1099 13.0257 13.0357 13.0257 12.9615 13.1001C12.813 13.1745 12.7388 13.249 12.5904 13.3234C12.5162 13.3234 12.5162 13.3979 12.442 13.3979C12.3678 13.4723 12.2936 13.4723 12.2194 13.5467C12.1452 13.6212 12.071 13.6212 11.9968 13.6956C11.9226 13.6956 11.9226 13.77 11.8484 13.77C11.7742 13.77 11.7742 13.8445 11.7 13.8445C11.5515 13.9189 11.4031 14.0678 11.2547 14.1422C11.1805 14.2167 11.1805 14.2167 11.1063 14.2911C11.0321 14.3655 11.0321 14.3655 10.9579 14.44L10.5869 14.8122C10.5127 14.8866 10.3642 14.961 10.29 15.0355L9.91901 15.4077L9.8448 15.4821C9.7706 15.5565 9.7706 15.5565 9.69639 15.631C9.62219 15.7054 9.62219 15.7798 9.54798 15.7798C9.54798 15.7798 9.54798 15.7798 9.47377 15.8543L9.32536 16.0031L9.25116 16.152C9.17695 16.2265 9.17695 16.3009 9.10274 16.3753C9.02854 16.4498 9.02854 16.5242 8.95433 16.5986C8.88013 16.6731 8.80592 16.7475 8.80592 16.822C8.73171 16.9708 8.65751 17.0453 8.5833 17.1941C8.50909 17.343 8.43489 17.4174 8.36068 17.5663C8.28648 17.6408 8.21227 17.7896 8.13806 17.8641L8.06386 17.9385C7.98965 18.0129 7.91545 18.1618 7.91545 18.2363C7.84124 18.3851 7.76703 18.4596 7.69283 18.6084V18.6829C7.61862 18.7573 7.61862 18.9062 7.54442 18.9806C7.47021 19.1295 7.396 19.2039 7.396 19.3528C7.3218 19.4272 7.3218 19.5761 7.24759 19.6506C7.24759 19.725 7.24759 19.725 7.17338 19.7994C7.17338 19.8739 7.09918 19.8739 7.09918 19.9483C7.09918 20.0227 7.02497 20.0972 7.02497 20.0972C7.02497 20.1716 6.95077 20.2461 6.95077 20.3205C6.95077 20.3949 6.95077 20.3949 6.87656 20.4694C6.87656 20.5438 6.80235 20.6927 6.80235 20.7671C6.80235 20.7671 6.80235 20.7671 6.80235 20.8415C6.80235 20.916 6.72815 20.9904 6.72815 21.0649C6.72815 21.1393 6.72815 21.2137 6.65394 21.2882C6.65394 21.437 6.57974 21.5115 6.57974 21.6604C6.1345 23.1491 6.06029 24.5634 6.06029 25.9033C6.06029 26.1266 6.06029 26.3499 6.06029 26.5732C6.06029 26.7965 6.06029 26.9454 6.1345 27.1687C6.20871 27.7642 6.28291 28.4341 6.43132 29.0296C6.50553 29.4018 6.57974 29.8484 6.72815 30.2206C6.80235 30.4439 6.87656 30.6672 6.95077 30.8905C7.02497 31.2627 7.17339 31.6349 7.24759 32.0071C7.61862 32.9748 7.98965 33.9424 8.43489 34.8357V34.9101C8.36068 34.8357 8.28648 34.7613 8.28648 34.6868L8.21227 34.6124L8.13806 34.5379C8.06386 34.4635 7.98965 34.3891 7.98965 34.2402C7.91545 34.0913 7.76703 33.9424 7.69283 33.7936C6.20871 31.4116 5.16982 28.3597 4.65038 25.0845C4.65038 24.9356 4.57617 24.7867 4.57617 24.6378C4.57617 24.6378 4.57617 24.6378 4.57617 24.5634C4.57617 24.489 4.57617 24.3401 4.57617 24.2656C4.57617 24.1912 4.57617 24.0423 4.57617 23.9679C4.57617 23.8935 4.57617 23.7446 4.57617 23.6702C4.57617 23.5213 4.57617 23.3724 4.57617 23.2235C4.57617 23.0747 4.57617 22.9258 4.57617 22.7769C4.57617 19.7994 5.16982 16.8964 6.50553 14.2167C10.6611 5.58198 21.2725 0.148081 30.3999 3.79549C31.2904 4.16768 32.1808 4.53986 32.9971 5.06092C33.2939 5.20979 33.5908 5.35867 33.8134 5.50754C34.036 5.65641 34.2586 5.73085 34.4812 5.87972C34.4812 5.87972 34.4812 5.87972 34.5554 5.87972C34.6296 5.87972 34.7038 5.95416 34.7781 6.0286C34.7781 5.87972 34.9265 5.95416 35.0749 6.10304C35.2233 6.17747 35.2975 6.25191 35.4459 6.32635C35.5943 6.40078 35.7427 6.54966 35.8911 6.62409C36.0396 6.69853 36.188 6.8474 36.3364 6.92184C36.4848 6.99628 36.6332 7.14515 36.7816 7.21959C36.93 7.29403 37.0784 7.4429 37.2269 7.51734C37.8205 7.96396 38.3399 8.41058 38.9336 8.8572C39.453 9.30382 40.0467 9.82488 40.5661 10.2715C40.9372 10.6437 41.3082 10.9414 41.6792 11.3136C41.8276 11.4625 41.9018 11.5369 42.0503 11.6858C42.1987 11.7602 42.2729 11.9091 42.3471 11.9836C42.5697 12.2069 42.7181 12.4302 42.9407 12.579C43.0149 12.6535 43.1633 12.8024 43.2375 12.8768C43.3118 12.9512 43.386 13.1001 43.5344 13.1745C43.6828 13.3234 43.757 13.3979 43.9054 13.5467C43.9054 13.5467 43.9796 13.6212 43.9796 13.6956C45.4637 15.3332 46.9479 17.0453 48.3578 18.7573C48.5062 18.9062 48.6546 19.1295 48.803 19.2784L48.6546 19.4272C48.5804 19.5017 48.5062 19.5761 48.5062 19.5761L47.8383 20.2461C47.7641 20.3205 47.7641 20.3949 47.6899 20.3949C47.6157 20.4694 47.5415 20.5438 47.5415 20.5438C47.2447 20.8415 47.0221 21.0649 46.7994 21.3626L46.5026 21.6604C46.4284 21.7348 46.4284 21.7348 46.3542 21.8837L45.1669 23.0747C45.0185 23.2235 44.7959 23.4468 44.6475 23.5957L44.5733 23.6702C44.4991 23.7446 44.4991 23.819 44.4248 23.819C44.3506 23.8935 44.2764 23.9679 44.2022 24.0423C44.128 24.1168 43.9796 24.2656 43.9054 24.3401C43.6828 24.5634 43.5344 24.7867 43.3118 24.9356C43.1633 25.0845 43.0149 25.2333 42.7923 25.4566L42.6439 25.6055V25.6799L42.5697 25.7544L42.4955 25.8288L42.4213 25.9033L42.3471 25.9777L41.9018 26.6476Z" fill="url(#paint2_linear_4495_1536)"/>
<path d="M41.9018 26.6476L41.7534 26.7965L41.3824 27.1687L41.234 27.3176C41.0856 27.4664 41.0114 27.5409 40.7887 27.6897L40.7145 27.7642C40.4919 27.5409 40.2693 27.2431 40.0467 27.0198C38.4884 25.1589 36.7816 23.3724 35.0749 21.7348C33.1455 19.8739 31.142 18.0874 28.99 16.5242C27.8027 15.631 26.5412 14.8122 25.2797 14.1422C25.2055 14.0678 25.1313 14.0678 25.0571 13.9934C23.7213 13.3234 22.3114 12.7279 20.8273 12.3557C20.7531 12.3557 20.6789 12.3557 20.6789 12.2813C18.9722 11.9091 17.2654 11.8347 15.5587 12.1324C15.4103 12.1324 15.3361 12.2069 15.1876 12.2069C15.1134 12.2069 15.0392 12.2813 14.8908 12.2813C14.8166 12.2813 14.7424 12.2813 14.6682 12.3557C14.594 12.3557 14.4456 12.4302 14.3714 12.4302C14.2972 12.4302 14.223 12.5046 14.1488 12.5046C14.0746 12.5046 14.0003 12.579 13.9261 12.579C13.8519 12.579 13.7777 12.6535 13.7035 12.6535C13.6293 12.6535 13.5551 12.7279 13.4067 12.8024C13.3325 12.8024 13.2583 12.8768 13.1841 12.9512C13.1099 13.0257 13.0357 13.0257 12.9615 13.1001C12.813 13.1745 12.7388 13.249 12.5904 13.3234C12.5162 13.3234 12.5162 13.3979 12.442 13.3979C12.3678 13.4723 12.2936 13.4723 12.2194 13.5467C12.1452 13.6212 12.071 13.6212 11.9968 13.6956C11.9226 13.6956 11.9226 13.77 11.8484 13.77C11.7742 13.77 11.7742 13.8445 11.7 13.8445C11.5515 13.9189 11.4031 14.0678 11.2547 14.1422C11.1805 14.2167 11.1805 14.2167 11.1063 14.2911C11.0321 14.3655 11.0321 14.3655 10.9579 14.44L10.5869 14.8122C10.5127 14.8866 10.3642 14.961 10.29 15.0355L9.91901 15.4077L9.8448 15.4821C9.7706 15.5565 9.7706 15.5565 9.69639 15.631C9.62219 15.7054 9.62219 15.7798 9.54798 15.7798C9.54798 15.7798 9.54798 15.7798 9.47377 15.8543L9.32536 16.0031L9.25116 16.152C9.17695 16.2265 9.17695 16.3009 9.10274 16.3753C9.02854 16.4498 9.02854 16.5242 8.95433 16.5986C8.88013 16.6731 8.80592 16.7475 8.80592 16.822C8.73171 16.9708 8.65751 17.0453 8.5833 17.1941C8.50909 17.343 8.43489 17.4174 8.36068 17.5663C8.28648 17.6408 8.21227 17.7896 8.13806 17.8641L8.06386 17.9385C7.98965 18.0129 7.91545 18.1618 7.91545 18.2363C7.84124 18.3851 7.76703 18.4596 7.69283 18.6084V18.6829C7.61862 18.7573 7.61862 18.9062 7.54442 18.9806C7.47021 19.1295 7.396 19.2039 7.396 19.3528C7.3218 19.4272 7.3218 19.5761 7.24759 19.6506C7.24759 19.725 7.24759 19.725 7.17338 19.7994C7.17338 19.8739 7.09918 19.8739 7.09918 19.9483C7.09918 20.0227 7.02497 20.0972 7.02497 20.0972C7.02497 20.1716 6.95077 20.2461 6.95077 20.3205C6.95077 20.3949 6.95077 20.3949 6.87656 20.4694C6.87656 20.5438 6.80235 20.6927 6.80235 20.7671C6.80235 20.7671 6.80235 20.7671 6.80235 20.8415C6.80235 20.916 6.72815 20.9904 6.72815 21.0649C6.72815 21.1393 6.72815 21.2137 6.65394 21.2882C6.65394 21.437 6.57974 21.5115 6.57974 21.6604C6.1345 23.1491 6.06029 24.5634 6.06029 25.9033C6.06029 26.1266 6.06029 26.3499 6.06029 26.5732C6.06029 26.7965 6.06029 26.9454 6.1345 27.1687C6.20871 27.7642 6.28291 28.4341 6.43132 29.0296C6.50553 29.4018 6.57974 29.8484 6.72815 30.2206C6.80235 30.4439 6.87656 30.6672 6.95077 30.8905C7.02497 31.2627 7.17339 31.6349 7.24759 32.0071C7.61862 32.9748 7.98965 33.9424 8.43489 34.8357V34.9101C8.36068 34.8357 8.28648 34.7613 8.28648 34.6868L8.21227 34.6124L8.13806 34.5379C8.06386 34.4635 7.98965 34.3891 7.98965 34.2402C7.91545 34.0913 7.76703 33.9424 7.69283 33.7936C6.20871 31.4116 5.16982 28.3597 4.65038 25.0845C4.65038 24.9356 4.57617 24.7867 4.57617 24.6378C4.57617 24.6378 4.57617 24.6378 4.57617 24.5634C4.57617 24.489 4.57617 24.3401 4.57617 24.2656C4.57617 24.1912 4.57617 24.0423 4.57617 23.9679C4.57617 23.8935 4.57617 23.7446 4.57617 23.6702C4.57617 23.5213 4.57617 23.3724 4.57617 23.2235C4.57617 23.0747 4.57617 22.9258 4.57617 22.7769C4.57617 19.7994 5.16982 16.8964 6.50553 14.2167C10.6611 5.58198 21.2725 0.148081 30.3999 3.79549C31.2904 4.16768 32.1808 4.53986 32.9971 5.06092C33.2939 5.20979 33.5908 5.35867 33.8134 5.50754C34.036 5.65641 34.2586 5.73085 34.4812 5.87972C34.4812 5.87972 34.4812 5.87972 34.5554 5.87972C34.6296 5.87972 34.7038 5.95416 34.7781 6.0286C34.7781 5.87972 34.9265 5.95416 35.0749 6.10304C35.2233 6.17747 35.2975 6.25191 35.4459 6.32635C35.5943 6.40078 35.7427 6.54966 35.8911 6.62409C36.0396 6.69853 36.188 6.8474 36.3364 6.92184C36.4848 6.99628 36.6332 7.14515 36.7816 7.21959C36.93 7.29403 37.0784 7.4429 37.2269 7.51734C37.8205 7.96396 38.3399 8.41058 38.9336 8.8572C39.453 9.30382 40.0467 9.82488 40.5661 10.2715C40.9372 10.6437 41.3082 10.9414 41.6792 11.3136C41.8276 11.4625 41.9018 11.5369 42.0503 11.6858C42.1987 11.7602 42.2729 11.9091 42.3471 11.9836C42.5697 12.2069 42.7181 12.4302 42.9407 12.579C43.0149 12.6535 43.1633 12.8024 43.2375 12.8768C43.3118 12.9512 43.386 13.1001 43.5344 13.1745C43.6828 13.3234 43.757 13.3979 43.9054 13.5467C43.9054 13.5467 43.9796 13.6212 43.9796 13.6956C45.4637 15.3332 46.9479 17.0453 48.3578 18.7573C48.5062 18.9062 48.6546 19.1295 48.803 19.2784L48.6546 19.4272C48.5804 19.5017 48.5062 19.5761 48.5062 19.5761L47.8383 20.2461C47.7641 20.3205 47.7641 20.3949 47.6899 20.3949C47.6157 20.4694 47.5415 20.5438 47.5415 20.5438C47.2447 20.8415 47.0221 21.0649 46.7994 21.3626L46.5026 21.6604C46.4284 21.7348 46.4284 21.7348 46.3542 21.8837L45.1669 23.0747C45.0185 23.2235 44.7959 23.4468 44.6475 23.5957L44.5733 23.6702C44.4991 23.7446 44.4991 23.819 44.4248 23.819C44.3506 23.8935 44.2764 23.9679 44.2022 24.0423C44.128 24.1168 43.9796 24.2656 43.9054 24.3401C43.6828 24.5634 43.5344 24.7867 43.3118 24.9356C43.1633 25.0845 43.0149 25.2333 42.7923 25.4566L42.6439 25.6055V25.6799L42.5697 25.7544L42.4955 25.8288L42.4213 25.9033L42.3471 25.9777L41.9018 26.6476Z" fill="#656363"/>
<path d="M44.1285 24.3409C44.0543 24.4153 43.9059 24.5642 43.8317 24.6386C43.6091 24.8619 43.4607 25.0853 43.2381 25.2341C43.0896 25.383 42.9412 25.5319 42.7186 25.7552L42.5702 25.9041V25.9785L42.496 26.0529L42.4218 26.1274L42.3476 26.2018C40.715 24.7875 39.0825 23.3732 37.5242 21.81C32.404 17.1949 25.948 12.2821 18.8243 11.9099C18.379 11.9099 17.8596 11.9099 17.4143 11.9099C16.7465 11.9099 16.0786 11.9844 15.485 12.1332C15.4108 12.1332 15.3366 12.2077 15.1882 12.2077C15.1139 12.2077 15.0397 12.2821 14.9655 12.2821C14.5945 12.431 14.2977 12.5054 14.0009 12.7287C10.2906 14.143 7.54493 17.7904 6.58025 21.6612C6.28342 23.0755 6.13501 24.4153 6.13501 25.8296C6.13501 26.0529 6.13501 26.2763 6.13501 26.4996C6.13501 26.7229 6.13501 26.8717 6.20922 27.0951C6.28342 27.6906 6.35763 28.3605 6.50604 28.956C6.58025 29.3282 6.65445 29.7748 6.80287 30.147C6.87707 30.3703 6.95128 30.5936 7.02548 30.8169C7.02548 31.2635 7.1739 31.6357 7.2481 32.0079C7.61913 32.9756 7.99016 33.9433 8.4354 34.8365C8.13858 34.4643 7.91596 34.0921 7.61913 33.6455C6.13501 31.2635 5.09613 28.2116 4.57668 24.9364C4.20565 21.5123 4.65089 18.0882 5.91239 14.8874C6.20922 14.143 6.58025 13.3987 6.95128 12.7287C9.6227 8.0392 14.1493 4.46623 19.2695 3.05193C24.0929 1.71206 28.6195 2.60531 32.8492 4.76398C33.146 4.91285 33.4429 5.06172 33.6655 5.2106C33.8881 5.35947 34.1107 5.43391 34.3333 5.58278C34.3333 5.58278 34.3333 5.58278 34.4075 5.58278C34.4817 5.58278 34.5559 5.65722 34.6301 5.73166C34.7786 5.88053 34.927 5.95497 35.0754 6.10384C35.2238 6.17828 35.298 6.25272 35.4464 6.32715C35.669 6.47603 35.8917 6.6249 36.1143 6.77377C36.3369 6.92265 36.5595 7.07152 36.7821 7.29483C36.9305 7.36927 37.079 7.51814 37.2274 7.59258C37.821 8.0392 38.3405 8.48582 38.9341 8.93245C39.4535 9.37907 40.0472 9.90013 40.5666 10.3467C40.9377 10.7189 41.3087 11.0167 41.6797 11.3889C41.8281 11.5377 41.9023 11.6122 42.0508 11.761C42.1992 11.8355 42.2734 11.9844 42.3476 12.0588C42.867 12.5799 43.3865 13.1009 43.8317 13.622C45.5384 15.4829 47.171 17.3438 48.7293 19.3536L48.5809 19.5025C48.5067 19.5769 48.4325 19.6514 48.4325 19.6514L47.7646 20.3213C47.6904 20.3957 47.6904 20.4702 47.6162 20.4702C47.542 20.5446 47.4678 20.619 47.4678 20.619C47.171 20.9168 46.9484 21.1401 46.7257 21.4378L46.4289 21.7356C46.3547 21.81 46.3547 21.81 46.2805 21.9589L45.0932 23.1499C44.9448 23.2988 44.7222 23.5221 44.5738 23.671L44.4996 23.7454C44.4254 23.8198 44.4254 23.8943 44.3511 23.8943C44.2769 24.192 44.2027 24.2665 44.1285 24.3409Z" fill="url(#paint3_linear_4495_1536)"/>
<path d="M48.3578 18.9062C48.5062 19.0551 48.6546 19.2784 48.803 19.4272L48.6546 19.5761C48.5804 19.6506 48.5062 19.725 48.5062 19.725L47.8383 20.3949C47.7641 20.4694 47.7641 20.5438 47.6899 20.5438C45.1669 19.2039 42.4955 18.0129 39.8241 16.8964C35.2233 15.0355 30.3257 13.1745 25.3539 12.2813C22.8309 11.8347 20.011 11.4625 17.4138 11.8347C16.8202 11.9091 16.1523 12.058 15.5587 12.2069C15.4103 12.2069 15.3361 12.2813 15.1876 12.2813C15.1134 12.2813 15.0392 12.3557 14.8908 12.3557C14.8166 12.3557 14.7424 12.3557 14.6682 12.4302C14.594 12.4302 14.4456 12.5046 14.3714 12.5046C14.2972 12.5046 14.223 12.579 14.1488 12.579C14.0746 12.579 14.0003 12.6535 13.9261 12.6535C13.8519 12.6535 13.7777 12.7279 13.7035 12.7279C13.6293 12.7279 13.5551 12.8024 13.4067 12.8768C13.3325 12.8768 13.2583 12.9512 13.1841 13.0257C13.1099 13.1001 13.0357 13.1001 12.9615 13.1745C12.813 13.249 12.7388 13.3234 12.5904 13.3979C12.5162 13.3979 12.5162 13.4723 12.442 13.4723C12.3678 13.5467 12.2936 13.5467 12.2194 13.6212C12.1452 13.6956 12.071 13.6956 11.9968 13.77C11.9226 13.77 11.9226 13.8445 11.8484 13.8445C11.7742 13.8445 11.7742 13.9189 11.7 13.9189C11.5515 13.9934 11.4031 14.1422 11.2547 14.2167C11.1805 14.2911 11.1805 14.2911 11.1063 14.3655C11.0321 14.44 11.0321 14.44 10.9579 14.5144L10.5869 14.8122C10.5127 14.8866 10.3642 14.961 10.29 15.0355C10.2158 15.1099 10.1416 15.1843 9.99322 15.3332L9.91901 15.4077L9.8448 15.4821C9.7706 15.5565 9.7706 15.5565 9.69639 15.631C9.62219 15.7054 9.62219 15.7798 9.54798 15.7798C9.54798 15.7798 9.54798 15.7798 9.47377 15.8543L9.32536 16.0031L9.25116 16.152C9.17695 16.2265 9.17695 16.3009 9.10274 16.3753C9.02854 16.4498 9.02854 16.5242 8.95433 16.5986C8.88013 16.6731 8.80592 16.7475 8.80592 16.822C8.73171 16.9708 8.65751 17.0453 8.5833 17.1941C8.50909 17.343 8.43489 17.4174 8.36068 17.5663C8.28648 17.6408 8.21227 17.7896 8.13806 17.8641L8.06386 17.9385C7.98965 18.0129 7.91545 18.1618 7.91545 18.2363C7.84124 18.3851 7.76703 18.4596 7.69283 18.6084V18.6829C7.61862 18.7573 7.61862 18.9062 7.54442 18.9806C7.47021 19.1295 7.396 19.2039 7.396 19.3528C7.3218 19.4272 7.3218 19.5761 7.24759 19.6506C7.24759 19.725 7.24759 19.725 7.17338 19.7994C7.17338 19.8739 7.09918 19.8739 7.09918 19.9483C7.09918 20.0227 7.02497 20.0972 7.02497 20.0972C7.02497 20.1716 6.95077 20.246 6.95077 20.3205C6.95077 20.3949 6.95077 20.3949 6.87656 20.4694C6.87656 20.5438 6.80235 20.6927 6.80235 20.7671C6.80235 20.7671 6.80235 20.7671 6.80235 20.8415C6.80235 20.916 6.72815 20.9904 6.72815 21.0649C6.72815 21.1393 6.72815 21.2137 6.65394 21.2882C6.65394 21.437 6.57974 21.5115 6.57974 21.6604C6.1345 23.1491 6.06029 24.5634 6.06029 25.9033C6.06029 26.1266 6.06029 26.3499 6.06029 26.5732C6.06029 26.7965 6.06029 26.9454 6.1345 27.1687C6.20871 27.7642 6.28291 28.4341 6.43132 29.0296C6.50553 29.4018 6.57974 29.8484 6.72815 30.2206C6.80235 30.4439 6.87656 30.6672 6.95077 30.8905C7.02497 31.2627 7.17339 31.6349 7.24759 32.0071C7.61862 32.9748 7.98965 33.9424 8.43489 34.8357V34.9101C8.36068 34.8357 8.28648 34.7612 8.28648 34.6868L8.21227 34.6124L8.13806 34.5379C8.06386 34.4635 7.98965 34.3891 7.98965 34.2402C7.91545 34.0913 7.76703 33.9424 7.69283 33.7936C6.20871 31.4116 5.16982 28.3597 4.65038 25.0845C4.65038 24.9356 4.57617 24.7867 4.57617 24.6378C4.57617 24.6378 4.57617 24.6378 4.57617 24.5634C4.57617 24.489 4.57617 24.3401 4.57617 24.2656C4.57617 24.1912 4.57617 24.0423 4.57617 23.9679C4.57617 23.8935 4.57617 23.7446 4.57617 23.6702C4.57617 23.5213 4.57617 23.3724 4.57617 23.2235C4.57617 23.0747 4.57617 22.9258 4.57617 22.7769C4.57617 19.7994 5.16982 16.8964 6.50553 14.2167C10.6611 5.58198 21.2725 0.148081 30.3999 3.79549C31.2904 4.16768 32.1808 4.53986 32.9971 5.06092C33.2939 5.20979 33.5908 5.35867 33.8134 5.50754C34.036 5.65641 34.2586 5.73085 34.4812 5.87972C34.4812 5.87972 34.4812 5.87972 34.5554 5.87972C34.6296 5.87972 34.7038 5.95416 34.7781 6.0286C34.7781 5.87972 34.9265 5.95416 35.0749 6.10303C35.2233 6.17747 35.2975 6.25191 35.4459 6.32635C35.5943 6.40078 35.7427 6.54966 35.8911 6.62409C36.0396 6.69853 36.188 6.8474 36.3364 6.92184C36.4848 6.99628 36.6332 7.14515 36.7816 7.21959C36.93 7.29403 37.0784 7.4429 37.2269 7.51734C37.8205 7.96396 38.3399 8.41058 38.9336 8.8572C39.453 9.30382 40.0467 9.82488 40.5661 10.2715C40.9372 10.6437 41.3082 10.9414 41.6792 11.3136C41.8276 11.4625 41.9018 11.5369 42.0503 11.6858C42.1987 11.7602 42.2729 11.9091 42.3471 11.9836C42.5697 12.2069 42.7181 12.4302 42.9407 12.579C43.0149 12.6535 43.1633 12.8024 43.2375 12.8768C43.3118 12.9512 43.386 13.1001 43.5344 13.1745C43.6828 13.3234 43.757 13.3979 43.9054 13.5467C43.9054 13.5467 43.9796 13.6212 43.9796 13.6956C45.5379 15.4821 47.0221 17.1941 48.3578 18.9062Z" fill="#888888"/>
<path d="M43.9054 13.77C40.8629 12.4302 37.0042 11.3881 32.4777 10.9414C24.9086 10.1226 20.9015 10.6437 15.4103 12.2069C15.3361 12.2069 15.2618 12.2813 15.1134 12.2813C15.0392 12.2813 14.965 12.3557 14.8908 12.3557C14.6682 12.4302 14.4456 12.579 14.1488 12.7279C14.0746 12.7279 14.0003 12.8024 13.9261 12.8024C13.8519 12.8024 13.7777 12.8768 13.7035 12.8768C13.6293 12.8768 13.5551 12.9512 13.4067 13.0257C13.3325 13.0257 13.2583 13.1001 13.1841 13.1745C13.1099 13.249 13.0357 13.249 12.9615 13.3234C12.813 13.3979 12.7388 13.4723 12.5904 13.5467C12.442 13.6212 12.2936 13.6956 12.2194 13.77C12.1452 13.8445 12.071 13.8445 11.9968 13.9189C11.9226 13.9189 11.9226 13.9934 11.8484 13.9934C11.7742 13.9934 11.7742 14.0678 11.7 14.0678C11.5515 14.1422 11.4031 14.2911 11.2547 14.3655C11.1805 14.44 11.0321 14.5144 10.9579 14.5888L10.5869 14.8122C10.5127 14.8866 10.3642 14.961 10.29 15.0355L9.91901 15.4077L9.8448 15.4821C9.7706 15.5565 9.7706 15.5565 9.69639 15.631C9.62219 15.7054 9.62219 15.7798 9.54798 15.7798C9.54798 15.7798 9.54798 15.7798 9.47377 15.8543L9.32536 16.0031L9.25115 16.152C9.17695 16.2265 9.17695 16.3009 9.10274 16.3753C9.02854 16.4498 9.02854 16.5242 8.95433 16.5986C8.88013 16.6731 8.80592 16.7475 8.80592 16.822C8.73171 16.9708 8.65751 17.0453 8.5833 17.1941C8.50909 17.343 8.43489 17.4174 8.36068 17.5663C8.28648 17.6408 8.21227 17.7896 8.13806 17.8641L8.06386 17.9385C7.98965 18.0129 7.91545 18.1618 7.91545 18.2363C7.84124 18.3851 7.76703 18.4596 7.69283 18.6084V18.6829C7.61862 18.7573 7.61862 18.9062 7.54442 18.9806C7.47021 19.1295 7.396 19.2039 7.396 19.3528C7.3218 19.4272 7.3218 19.5761 7.24759 19.6506C7.24759 19.725 7.24759 19.725 7.17338 19.7994C7.17338 19.8739 7.09918 19.8739 7.09918 19.9483C7.09918 20.0227 7.02497 20.0972 7.02497 20.0972C7.02497 20.1716 6.95077 20.2461 6.95077 20.3205C6.95077 20.3949 6.95077 20.3949 6.87656 20.4694C6.87656 20.5438 6.80235 20.6927 6.80235 20.7671C6.80235 20.7671 6.80235 20.7671 6.80235 20.8415C6.80235 20.916 6.72815 20.9904 6.72815 21.0649C6.72815 21.1393 6.72815 21.2137 6.65394 21.2882C6.65394 21.437 6.57974 21.5115 6.57974 21.6604C6.1345 23.3724 5.98609 25.01 6.1345 26.6476C6.1345 26.8709 6.1345 27.0198 6.20871 27.2431C6.28291 27.8386 6.35712 28.5085 6.50553 29.104C6.57974 29.4762 6.65394 29.9229 6.80235 30.295C6.87656 30.5183 6.95077 30.7417 7.02497 30.965C7.02497 31.2627 7.17338 31.6349 7.24759 32.0071C7.61862 32.9748 7.98965 33.9424 8.43489 34.8357V34.9101C8.36068 34.8357 8.28648 34.7612 8.28648 34.6868L8.21227 34.6124L8.13806 34.5379C8.06386 34.4635 7.98965 34.3891 7.98965 34.2402C7.91545 34.0913 7.76703 33.9424 7.69283 33.7936C6.20871 31.4116 5.16982 28.3597 4.65038 25.0845C4.65038 24.9356 4.57617 24.7867 4.57617 24.6378C4.57617 24.6378 4.57617 24.6378 4.57617 24.5634C4.57617 24.489 4.57617 24.3401 4.57617 24.2656C4.57617 24.1912 4.57617 24.0423 4.57617 23.9679C4.57617 23.8935 4.57617 23.7446 4.57617 23.6702C4.57617 23.5213 4.57617 23.3724 4.57617 23.2235C4.57617 23.0747 4.57617 22.9258 4.57617 22.7769C4.57617 19.7994 5.16982 16.8964 6.50553 14.2167C10.6611 5.58198 21.2725 0.148081 30.3999 3.79549C31.2904 4.16768 32.1808 4.53986 32.9971 5.06092C33.2939 5.20979 33.5908 5.35867 33.8134 5.50754C34.036 5.65641 34.2586 5.73085 34.4812 5.87972C34.4812 5.87972 34.4812 5.87972 34.5554 5.87972C34.6296 5.87972 34.7038 5.95416 34.778 6.0286C34.778 5.87972 34.9265 5.95416 35.0749 6.10303C35.2233 6.17747 35.2975 6.25191 35.4459 6.32635C35.5943 6.40078 35.7427 6.54966 35.8911 6.62409C36.0396 6.69853 36.188 6.8474 36.3364 6.92184C36.4848 6.99628 36.6332 7.14515 36.7816 7.21959C36.93 7.29403 37.0784 7.4429 37.2269 7.51734C38.4142 8.41058 39.5272 9.30382 40.5661 10.3459C40.9372 10.7181 41.3082 11.0159 41.6792 11.3881C41.8276 11.5369 41.9018 11.6114 42.0502 11.7602C42.1987 11.8347 42.2729 11.9836 42.3471 12.058C42.5697 12.2813 42.7181 12.5046 42.9407 12.6535C43.0149 12.7279 43.1633 12.8768 43.2375 12.9512C43.3118 13.0257 43.386 13.1745 43.5344 13.249C43.6828 13.4723 43.8312 13.6212 43.9054 13.77Z" fill="url(#paint4_linear_4495_1536)"/>
<path d="M6.13513 6.77377C6.54496 6.77377 6.87719 6.44051 6.87719 6.0294C6.87719 5.6183 6.54496 5.28503 6.13513 5.28503C5.7253 5.28503 5.39307 5.6183 5.39307 6.0294C5.39307 6.44051 5.7253 6.77377 6.13513 6.77377Z" fill="#3A3A3A"/>
<path d="M8.36126 6.4016C8.56618 6.4016 8.7323 6.23496 8.7323 6.02941C8.7323 5.82386 8.56618 5.65723 8.36126 5.65723C8.15635 5.65723 7.99023 5.82386 7.99023 6.02941C7.99023 6.23496 8.15635 6.4016 8.36126 6.4016Z" fill="#3A3A3A"/>
<path d="M9.5484 5.06171C10.9418 5.06171 12.0714 3.92861 12.0714 2.53086C12.0714 1.1331 10.9418 0 9.5484 0C8.15498 0 7.02539 1.1331 7.02539 2.53086C7.02539 3.92861 8.15498 5.06171 9.5484 5.06171Z" fill="#3A3A3A"/>
<path d="M47.3936 39.6005C47.4678 39.6747 47.542 39.7489 47.542 39.8231L47.3936 39.6005Z" fill="url(#paint5_linear_4495_1536)"/>
<path d="M47.6154 39.7491C47.0217 40.3446 46.4281 41.0145 45.7602 41.61C45.686 41.6845 45.6118 41.7589 45.5376 41.8333C45.3892 41.9822 45.1666 42.1311 45.0182 42.28C44.9439 42.3544 44.9439 42.3544 44.8697 42.4288C44.6471 42.5777 44.4987 42.801 44.2761 42.9499C43.8309 43.3965 43.3114 43.7687 42.8662 44.1409C42.7178 44.2153 42.6436 44.3642 42.4951 44.4386C42.3467 44.5131 42.2725 44.5875 42.1241 44.7364C41.9757 44.8108 41.9015 44.8853 41.7531 44.9597C40.9368 45.5552 40.1205 46.1507 39.3043 46.6717C39.3043 46.6717 39.2301 46.6717 39.2301 46.7462C39.0817 46.8206 39.0075 46.8951 38.859 46.9695C38.7848 47.0439 38.7106 47.0439 38.6364 47.1184C38.3396 47.2672 38.0428 47.4905 37.746 47.6394C37.6717 47.7139 37.5233 47.7883 37.4491 47.7883C37.3749 47.8627 37.3007 47.8627 37.2265 47.9372C37.1523 48.0116 37.0039 48.0116 36.9297 48.086C36.1876 48.4582 35.4456 48.8304 34.7035 49.0537C34.5551 49.1282 34.4067 49.2026 34.2583 49.2026C34.0356 49.277 33.813 49.3515 33.5162 49.4259C33.3678 49.5003 33.2194 49.5003 33.071 49.5748C23.2758 52.6267 11.6996 48.9048 5.68892 40.5679C2.72068 36.4739 1.16235 31.4122 1.08814 26.3505C1.01393 23.1497 1.60758 19.6511 3.31432 15.8549C3.90797 14.5894 4.57583 13.2496 5.4663 11.9841V12.0586C5.39209 12.2074 5.39209 12.3563 5.39209 12.4308V12.5052C4.279 17.3436 2.42385 21.3632 3.53694 26.5738C4.2048 29.849 5.76313 32.9009 7.98931 35.3573C9.32502 36.7716 10.8833 37.9626 12.5901 38.8559C15.3357 40.1957 18.4524 40.7168 21.569 40.4935C23.5726 40.3446 25.5762 39.898 27.5055 39.228C32.3289 37.516 36.4845 34.4641 40.269 31.04C40.3432 30.9655 40.4174 30.8911 40.4916 30.8167C40.9368 31.3377 41.3078 31.7844 41.7531 32.3054L41.9757 32.5287C42.4951 33.1987 43.0888 33.943 43.6082 34.613L43.9051 34.9851C44.0535 35.134 44.1277 35.2829 44.2761 35.5062C44.3503 35.5806 44.4245 35.6551 44.4987 35.8039L45.0924 36.5483C45.6118 37.2182 46.2054 37.8882 46.7249 38.6326L46.8733 38.7814L47.3927 39.4514C47.3927 39.4514 47.3927 39.4514 47.467 39.5258C47.467 39.6002 47.5412 39.6747 47.6154 39.7491Z" fill="url(#paint6_linear_4495_1536)"/>
<path d="M47.6154 39.7491C47.0217 40.3446 46.4281 41.0145 45.7602 41.61C45.686 41.6845 45.6118 41.7589 45.5376 41.8333C45.3892 41.9822 45.1666 42.1311 45.0182 42.28C44.9439 42.3544 44.9439 42.3544 44.8697 42.4288C44.6471 42.5777 44.4987 42.801 44.2761 42.9499C43.8309 43.3965 43.3114 43.7687 42.8662 44.1409C42.7178 44.2153 42.6436 44.3642 42.4951 44.4386C42.3467 44.5131 42.2725 44.5875 42.1241 44.7364C41.9757 44.8108 41.9015 44.8853 41.7531 44.9597C40.9368 45.5552 40.1205 46.1507 39.3043 46.6717C39.3043 46.6717 39.2301 46.6717 39.2301 46.7462C39.0817 46.8206 39.0075 46.8951 38.859 46.9695C38.7848 47.0439 38.7106 47.0439 38.6364 47.1184C38.3396 47.2672 38.0428 47.4905 37.746 47.6394C37.6717 47.7139 37.5233 47.7883 37.4491 47.7883C37.3749 47.8627 37.3007 47.8627 37.2265 47.9372C37.1523 48.0116 37.0039 48.0116 36.9297 48.086C36.1876 48.4582 35.4456 48.8304 34.7035 49.0537C34.5551 49.1282 34.4067 49.2026 34.2583 49.2026C34.0356 49.277 33.813 49.3515 33.5162 49.4259C33.3678 49.5003 33.2194 49.5003 33.071 49.5748C23.2758 52.6267 11.6996 48.9048 5.68892 40.5679C2.72068 36.4739 1.16235 31.4122 1.08814 26.3505C1.01393 23.1497 1.60758 19.6511 3.31432 15.8549C3.90797 14.5894 4.57583 13.2496 5.4663 11.9841V12.0586C5.39209 12.2074 5.39209 12.3563 5.39209 12.4308V12.5052C4.279 17.3436 2.42385 21.3632 3.53694 26.5738C4.2048 29.849 5.76313 32.9009 7.98931 35.3573C9.32502 36.7716 10.8833 37.9626 12.5901 38.8559C15.3357 40.1957 18.4524 40.7168 21.569 40.4935C23.5726 40.3446 25.5762 39.898 27.5055 39.228C32.3289 37.516 36.4845 34.4641 40.269 31.04C40.3432 30.9655 40.4174 30.8911 40.4916 30.8167C40.9368 31.3377 41.3078 31.7844 41.7531 32.3054L41.9757 32.5287C42.4951 33.1987 43.0888 33.943 43.6082 34.613L43.9051 34.9851C44.0535 35.134 44.1277 35.2829 44.2761 35.5062C44.3503 35.5806 44.4245 35.6551 44.4987 35.8039L45.0924 36.5483C45.6118 37.2182 46.2054 37.8882 46.7249 38.6326L46.8733 38.7814L47.3927 39.4514C47.3927 39.4514 47.3927 39.4514 47.467 39.5258C47.467 39.6002 47.5412 39.6747 47.6154 39.7491Z" fill="url(#paint7_linear_4495_1536)"/>
<path d="M47.3927 39.526C46.7991 40.2704 46.1312 41.0148 45.5376 41.7591C45.3892 41.908 45.1666 42.0569 45.0181 42.2057C44.9439 42.2802 44.9439 42.2802 44.8697 42.3546C44.6471 42.5035 44.4987 42.7268 44.2761 42.8757C43.8308 43.3223 43.3114 43.6945 42.8662 44.0667C42.7178 44.1411 42.6436 44.29 42.4951 44.3644C42.3467 44.4389 42.2725 44.5133 42.1241 44.6622C41.9757 44.7366 41.9015 44.811 41.7531 44.8855C40.9368 45.481 40.1205 46.0765 39.3043 46.5975C39.3043 46.5975 39.2301 46.5975 39.2301 46.672C39.0817 46.7464 39.0075 46.8208 38.859 46.8953C38.7848 46.9697 38.7106 46.9697 38.6364 47.0441C38.3396 47.193 38.0428 47.4163 37.7459 47.5652C37.6717 47.6396 37.5233 47.7141 37.4491 47.7141C37.3749 47.7885 37.3007 47.7885 37.2265 47.863C37.1523 47.9374 37.0039 47.9374 36.9297 48.0118C36.1876 48.384 35.4456 48.7562 34.7035 48.9795C34.5551 49.0539 34.4067 49.1284 34.2583 49.1284C34.0356 49.2028 33.813 49.2773 33.5162 49.3517C33.3678 49.4261 33.2194 49.4261 33.071 49.5006C23.2758 52.5525 11.6996 48.8306 5.68892 40.4937C2.72067 36.3997 1.16235 31.338 1.08814 26.2762C1.01393 23.0755 1.60758 19.5769 3.31432 15.7806C3.90797 14.5152 4.57583 13.1753 5.4663 11.9099V11.9843C5.39209 12.2077 5.39209 12.3565 5.39209 12.431V12.5054C4.279 17.3438 2.42385 21.3634 3.53694 26.574C4.2048 29.8492 5.76312 32.9011 7.98931 35.3575C9.32502 36.7718 10.8833 37.9628 12.5901 38.8561C15.3357 40.1959 18.4524 40.717 21.569 40.4937C23.5726 40.3448 25.5761 39.8982 27.5055 39.2283C32.3289 37.5162 36.4844 34.4643 40.269 31.0402C40.3432 30.9658 40.4174 30.8913 40.4916 30.8169C40.9368 31.338 41.3078 31.7846 41.7531 32.3056L41.9757 32.5289C42.4951 33.1989 43.0888 33.9432 43.6082 34.6132L43.9051 34.9854C44.0535 35.1342 44.1277 35.2831 44.2761 35.5064C44.3503 35.5809 44.4245 35.6553 44.4987 35.8042L45.0924 36.5485C45.6118 37.2185 46.2054 37.8884 46.7249 38.6328L46.8733 38.7816L47.3927 39.526Z" fill="url(#paint8_linear_4495_1536)"/>
<path d="M47.6154 39.7491C47.0217 40.3446 46.4281 41.0145 45.7602 41.61C45.686 41.6845 45.6118 41.7589 45.5376 41.8333C45.3892 41.9822 45.1666 42.1311 45.0182 42.28C44.9439 42.3544 44.9439 42.3544 44.8697 42.4288C44.6471 42.5777 44.4987 42.801 44.2761 42.9499C43.8309 43.3965 43.3114 43.7687 42.8662 44.1409C42.7178 44.2153 42.6436 44.3642 42.4951 44.4386C42.3467 44.5131 42.2725 44.5875 42.1241 44.7364C41.9757 44.8108 41.9015 44.8853 41.7531 44.9597C40.9368 45.5552 40.1205 46.1507 39.3043 46.6717C39.3043 46.6717 39.2301 46.6717 39.2301 46.7462C39.0817 46.8206 39.0075 46.8951 38.859 46.9695C38.7848 47.0439 38.7106 47.0439 38.6364 47.1184C38.3396 47.2672 38.0428 47.4905 37.746 47.6394C37.6717 47.7139 37.5233 47.7883 37.4491 47.7883C37.3749 47.8627 37.3007 47.8627 37.2265 47.9372C37.1523 48.0116 37.0039 48.0116 36.9297 48.086C36.1876 48.4582 35.4456 48.8304 34.7035 49.0537C34.5551 49.1282 34.4067 49.2026 34.2583 49.2026C34.0356 49.277 33.813 49.3515 33.5162 49.4259C33.3678 49.5003 33.2194 49.5003 33.071 49.5748C23.2758 52.6267 11.6996 48.9048 5.68892 40.5679C2.72068 36.4739 1.16235 31.4122 1.08814 26.3505C1.01393 23.1497 1.60758 19.6511 3.31432 15.8549C3.90797 14.5894 4.57583 13.2496 5.4663 11.9841V12.0586C5.39209 12.2074 5.39209 12.3563 5.39209 12.4308V12.5052C4.279 17.3436 2.42385 21.3632 3.53694 26.5738C4.2048 29.849 5.76313 32.9009 7.98931 35.3573C9.32502 36.7716 10.8833 37.9626 12.5901 38.8559C15.3357 40.1957 18.4524 40.7168 21.569 40.4935C23.5726 40.3446 25.5762 39.898 27.5055 39.228C32.3289 37.516 36.4845 34.4641 40.269 31.04C40.3432 30.9655 40.4174 30.8911 40.4916 30.8167C40.9368 31.3377 41.3078 31.7844 41.7531 32.3054L41.9757 32.5287C42.4951 33.1987 43.0888 33.943 43.6082 34.613L43.9051 34.9851C44.0535 35.134 44.1277 35.2829 44.2761 35.5062C44.3503 35.5806 44.4245 35.6551 44.4987 35.8039L45.0924 36.5483C45.6118 37.2183 46.2055 37.8882 46.7249 38.6326L46.8733 38.7814L47.3927 39.4514C47.3927 39.4514 47.3927 39.4514 47.467 39.5258C47.467 39.6002 47.5412 39.6747 47.6154 39.7491Z" fill="#3A3A3A"/>
<path d="M44.2761 35.5809C44.1277 35.8786 43.9793 36.1764 43.8309 36.5485C42.1983 39.7493 40.1948 42.7268 37.8202 45.4065C36.5587 46.8208 35.1488 48.2351 33.5162 49.2028C33.3678 49.2773 33.2936 49.4261 33.1452 49.5006C23.35 52.5525 11.7738 48.8306 5.76314 40.4937C2.79489 36.3997 1.23657 31.338 1.16236 26.2762C1.08815 23.0755 1.6818 19.5769 3.38854 15.7806C3.98219 14.5152 4.65005 13.1753 5.54052 11.9099V11.9843C5.39211 12.2077 5.39211 12.3565 5.39211 12.431V12.5054C4.27902 17.3438 2.42386 21.3634 3.53695 26.574C4.20481 29.8492 5.76314 32.9011 7.98932 35.3575C9.32503 36.7718 10.8834 37.9628 12.5901 38.8561C15.3357 40.1959 18.4524 40.717 21.569 40.4937C23.5726 40.3448 25.5762 39.8982 27.5055 39.2283C32.3289 37.5162 36.4845 34.4643 40.269 31.0402C40.3432 30.9658 40.4174 30.8913 40.4916 30.8169C40.9368 31.338 41.3079 31.7846 41.7531 32.3056L41.9757 32.5289C42.4952 33.1989 43.0888 33.9432 43.6082 34.6132L43.9051 34.9854C43.9793 35.2831 44.1277 35.432 44.2761 35.5809Z" fill="url(#paint9_linear_4495_1536)"/>
<path d="M2.35035 39.6749C3.12902 39.6749 3.76026 39.0417 3.76026 38.2606C3.76026 37.4795 3.12902 36.8463 2.35035 36.8463C1.57167 36.8463 0.94043 37.4795 0.94043 38.2606C0.94043 39.0417 1.57167 39.6749 2.35035 39.6749Z" fill="#4B4B4B"/>
<path d="M4.20549 40.4937C4.45139 40.4937 4.65073 40.2937 4.65073 40.0471C4.65073 39.8004 4.45139 39.6005 4.20549 39.6005C3.95959 39.6005 3.76025 39.8004 3.76025 40.0471C3.76025 40.2937 3.95959 40.4937 4.20549 40.4937Z" fill="#4B4B4B"/>
<path d="M1.83044 36.623C2.24027 36.623 2.5725 36.2898 2.5725 35.8786C2.5725 35.4675 2.24027 35.1343 1.83044 35.1343C1.42061 35.1343 1.08838 35.4675 1.08838 35.8786C1.08838 36.2898 1.42061 36.623 1.83044 36.623Z" fill="#4B4B4B"/>
<path d="M89.3933 16.3009C89.3933 16.4498 89.3933 16.5242 89.3933 16.6731C89.3933 16.7475 89.3933 16.822 89.3933 16.9709C89.3933 17.0453 89.3933 17.1197 89.3933 17.1942V17.2686C89.3933 17.343 89.3933 17.4175 89.3933 17.4175C89.3933 17.4919 89.3933 17.5663 89.3933 17.6408C89.3933 17.8641 89.3191 18.0874 89.3191 18.3107C89.3191 18.3852 89.3191 18.4596 89.2449 18.6085V18.6829C89.2449 18.7573 89.2449 18.8318 89.1707 18.9062C89.1707 18.9806 89.1707 19.0551 89.0965 19.1295C89.0965 19.204 89.0223 19.3528 89.0223 19.4273C88.8739 19.9483 88.7255 20.395 88.577 20.916C88.577 20.9904 88.5028 21.0649 88.5028 21.1393C88.5028 21.1393 88.5028 21.2138 88.4286 21.2882C88.4286 21.3626 88.3544 21.4371 88.2802 21.5859C88.206 21.7348 88.1318 21.8837 88.0576 22.0326C87.2413 23.8191 85.9798 25.7544 84.1989 27.8386C84.1247 27.9131 84.0505 27.9875 83.9763 28.062C83.9021 28.2108 83.7536 28.2853 83.6794 28.4341C83.6052 28.5086 83.531 28.583 83.4568 28.6575C83.3826 28.7319 83.3084 28.8063 83.2342 28.9552C83.16 29.0296 83.0858 29.1041 83.0116 29.2529C82.9374 29.3274 82.8632 29.4763 82.789 29.5507C82.6406 25.4567 81.8985 20.916 78.485 18.6829C76.4815 17.343 73.81 17.1197 71.4354 17.7152C71.3612 17.7152 71.287 17.7152 71.287 17.7897C71.2128 17.7897 71.2128 17.7897 71.1386 17.8641C71.0644 17.8641 70.9902 17.8641 70.916 17.9385C70.8418 17.9385 70.8418 17.9385 70.7676 18.013C70.6192 18.013 70.545 18.0874 70.3966 18.1618C70.3223 18.1618 70.3223 18.1618 70.2481 18.2363C70.0997 18.3107 69.9513 18.3852 69.8029 18.3852C67.6509 19.2784 65.7216 20.6927 64.0148 22.1814C63.8664 22.3303 63.718 22.4792 63.4954 22.6281C63.1986 22.9258 62.8275 23.2236 62.5307 23.5213C62.3823 23.6702 62.2339 23.8191 62.0855 23.9679C61.9371 24.1168 61.7887 24.2657 61.6402 24.4145C61.4918 24.5634 61.3434 24.7123 61.195 24.8612C60.8982 25.1589 60.6014 25.4567 60.3045 25.7544C60.1561 25.9033 60.0077 26.0522 59.8593 26.2755C59.4883 26.7221 59.043 27.0943 58.672 27.5409L58.301 27.9875C58.2268 28.062 58.1526 28.2108 58.0041 28.2853C57.7815 28.5086 57.5589 28.8063 57.3363 29.0296C57.1879 29.1785 57.1137 29.2529 56.9653 29.4018L56.891 29.4763C56.8168 29.6251 56.6684 29.6996 56.5942 29.8484C56.2974 30.1462 56.0748 30.4439 55.778 30.7417C55.6295 30.8906 55.4811 31.1139 55.3327 31.2627C54.8875 31.8582 54.368 32.3793 53.9228 32.9748C53.7002 33.2725 53.4034 33.5703 53.1807 33.868C53.0323 34.0169 52.8839 34.1658 52.7355 34.3891C52.2903 34.9102 51.845 35.5057 51.3256 36.0267C50.8804 36.5478 50.4351 36.9944 50.0641 37.5154C49.9157 37.6643 49.7673 37.8876 49.6188 38.0365C49.5446 38.1854 49.3962 38.2598 49.322 38.3343C49.2478 38.4087 49.1736 38.4831 49.1736 38.5576L49.0994 38.4831C49.0252 38.4087 48.951 38.2598 48.8768 38.1854C48.7284 38.0365 48.58 37.8876 48.5058 37.7388C47.9863 37.0688 47.3927 36.3989 46.8732 35.729C46.6506 35.5056 46.428 35.2079 46.2796 34.9846C46.057 34.7613 45.9085 34.4635 45.6859 34.2402C45.6117 34.0913 45.4633 34.0169 45.3891 33.868C44.7955 33.1981 44.276 32.4537 43.6824 31.7838C43.1629 31.1883 42.6435 30.5184 42.1982 29.9229C42.2724 29.8484 42.3467 29.774 42.4209 29.6996C42.5693 29.5507 42.7177 29.4018 42.8661 29.3274C42.9403 29.2529 43.0145 29.1785 43.0887 29.1041C43.2371 28.9552 43.3113 28.8808 43.4597 28.7319C43.6082 28.583 43.7566 28.4341 43.905 28.2853C43.9792 28.2108 44.0534 28.1364 44.1276 28.062C44.2018 27.9875 44.276 27.9131 44.276 27.9131L44.3502 27.8386C44.5728 27.6898 44.7213 27.4665 44.8697 27.3176C45.0923 27.0943 45.2407 26.9454 45.4633 26.7221C45.4633 26.7221 45.4633 26.7221 45.5375 26.6477C45.6117 26.4988 45.7601 26.4243 45.8343 26.3499C45.9085 26.2755 45.9828 26.201 45.9828 26.201C46.057 26.1266 46.1312 26.0522 46.2054 25.9777C46.428 25.7544 46.5764 25.6055 46.7248 25.3822C47.0958 24.9356 47.4669 24.5634 47.9121 24.1168C47.9863 24.0424 48.0605 23.9679 48.1347 23.8935C48.2089 23.819 48.3573 23.6702 48.4316 23.5957C48.6542 23.298 48.951 23.0747 49.1736 22.7769C49.3962 22.5536 49.5446 22.4047 49.6931 22.1814C49.6931 22.1814 49.7673 22.1814 49.7673 22.107L50.2867 21.5859C50.2867 21.5115 50.3609 21.5115 50.4351 21.4371C50.8804 20.9904 51.3256 20.4694 51.7708 20.0228C52.3645 19.4273 52.9581 18.8318 53.4776 18.2363C53.7002 18.013 53.9228 17.7152 54.2196 17.4919C54.368 17.343 54.5165 17.1942 54.6649 17.0453C54.8133 16.8964 55.0359 16.6731 55.1843 16.5242C55.5553 16.152 55.9264 15.7799 56.3716 15.3332C56.52 15.1844 56.6684 15.0355 56.8168 14.8866C57.2621 14.5144 57.6331 14.0678 58.0783 13.6956C58.2268 13.5468 58.4494 13.3234 58.672 13.1746L58.7462 13.1001C59.4141 12.5046 60.0077 11.9836 60.6756 11.3881C60.824 11.2392 60.9724 11.1648 61.1208 11.0159C61.2692 10.867 61.4176 10.7926 61.566 10.6437C61.7144 10.4948 61.8629 10.4204 62.0113 10.2715C62.0113 10.2715 62.0113 10.2715 62.0855 10.1971C62.1597 10.1227 62.3081 10.0482 62.3823 9.97378C62.4565 9.89934 62.6049 9.82491 62.6791 9.75047C62.8275 9.6016 63.0502 9.45272 63.1986 9.37828C63.4212 9.22941 63.6438 9.08054 63.7922 8.93166C63.9406 8.85723 64.0148 8.78279 64.1632 8.63392C64.3117 8.55948 64.4601 8.4106 64.6085 8.33617C65.2021 7.96398 65.7958 7.5918 66.4636 7.21961C66.612 7.14518 66.8347 6.9963 66.9831 6.92187C67.2057 6.84743 67.3541 6.69855 67.5767 6.62412C67.5767 6.10306 67.7251 6.02862 67.9478 5.95419C68.022 5.87975 68.1704 5.87975 68.2446 5.80531C68.3188 5.80531 68.393 5.73087 68.4672 5.73087C68.5414 5.65644 68.6156 5.65644 68.6898 5.582C68.8382 5.50756 68.9866 5.43313 69.0608 5.43313C69.2093 5.35869 69.2835 5.35869 69.4319 5.28425C69.5061 5.28425 69.5803 5.20982 69.6545 5.20982C69.7287 5.20982 69.7287 5.20982 69.8029 5.13538C69.8029 5.13538 69.8029 5.13538 69.8771 5.13538C70.0997 5.06094 70.2481 4.9865 70.4708 4.91207C70.545 4.91207 70.545 4.91207 70.6192 4.83763C70.6934 4.83763 70.7676 4.76319 70.8418 4.76319C70.9902 4.68876 71.2128 4.61432 71.3612 4.61432H71.4354H71.5096H71.5838C71.6581 4.61432 71.7323 4.53988 71.8065 4.53988C71.9549 4.53988 72.0291 4.46545 72.1775 4.46545C72.2517 4.46545 72.3259 4.39101 72.4743 4.39101C72.6227 4.39101 72.6969 4.31657 72.8454 4.31657C72.9196 4.31657 72.9938 4.31657 73.068 4.24214C73.1422 4.24214 73.1422 4.24214 73.2164 4.24214H73.2906C73.439 4.24214 73.5874 4.1677 73.7358 4.1677C73.7358 4.1677 73.7358 4.1677 73.81 4.1677C73.9584 4.1677 74.1069 4.09326 74.2553 4.09326C74.2553 4.09326 74.2553 4.09326 74.3295 4.09326H74.4037C74.4779 4.09326 74.5521 4.09326 74.6263 4.09326C74.7747 4.09326 74.8489 4.09326 74.9231 4.09326H74.9973H75.0715C75.0715 4.09326 75.0715 4.09326 75.1457 4.09326C75.2199 4.09326 75.3684 4.09326 75.4426 4.09326C75.5168 4.09326 75.5168 4.09326 75.591 4.09326C75.7394 4.09326 75.8136 4.09326 75.962 4.09326C76.1104 4.09326 76.2588 4.09326 76.4072 4.09326C76.7783 4.09326 77.1493 4.09326 77.4461 4.09326C77.6687 4.09326 77.8914 4.09326 78.0398 4.1677C78.1882 4.1677 78.2624 4.1677 78.3366 4.24214H78.4108C78.4108 4.24214 78.4108 4.24214 78.485 4.24214H78.5592C78.6334 4.24214 78.6334 4.24214 78.7076 4.24214H78.7818C78.9303 4.24214 79.0045 4.31657 79.1529 4.31657C79.2271 4.31657 79.2271 4.31657 79.3013 4.31657C79.3755 4.31657 79.4497 4.31657 79.4497 4.31657C79.5981 4.31657 79.7465 4.39101 79.8949 4.46545C80.0433 4.53988 80.1918 4.53988 80.3402 4.61432C80.4144 4.61432 80.7854 4.83763 81.4533 5.20982C81.5275 5.20982 81.5275 5.28425 81.6017 5.28425C81.7501 5.35869 81.8243 5.43313 81.9727 5.50756C82.1211 5.582 82.2695 5.73087 82.4179 5.80531C82.4179 5.80531 82.4921 5.80531 82.4921 5.87975C82.6406 5.95419 82.7148 6.02862 82.8632 6.10306C83.0116 6.25193 83.2342 6.32637 83.3826 6.47524C83.4568 6.54968 83.6052 6.62412 83.6794 6.69855C83.6794 6.69855 83.6794 6.69855 83.7536 6.77299C84.1989 7.07074 84.5699 7.44292 84.9409 7.81511C85.0151 7.88955 85.1636 8.03842 85.2378 8.11286C85.3862 8.26173 85.5346 8.4106 85.683 8.55948C85.7572 8.63391 85.7572 8.63391 85.8314 8.70835C85.9056 8.78279 85.9056 8.78279 85.9798 8.85723C86.2767 9.22941 86.5735 9.60159 86.8703 9.97378C86.9445 10.1227 87.0929 10.1971 87.1671 10.346C87.2413 10.4948 87.3155 10.5693 87.3897 10.7181C87.464 10.867 87.5382 10.9415 87.6124 11.0903C87.6866 11.1648 87.7608 11.3136 87.7608 11.3881C87.835 11.537 87.9092 11.6114 87.9092 11.7603C87.9834 11.9836 88.1318 12.2069 88.206 12.3558C88.2802 12.5791 88.3544 12.8024 88.4286 13.0257C88.577 13.4723 88.7255 13.9189 88.7997 14.3656C88.7997 14.5144 88.8739 14.5889 88.8739 14.7377C88.8739 14.8866 88.8739 14.9611 88.9481 15.1099C88.9481 15.3332 89.0223 15.5566 89.0223 15.7799C89.0223 15.9287 89.0223 16.0032 89.0223 16.152C89.3933 16.0032 89.3933 16.152 89.3933 16.3009Z" fill="url(#paint10_linear_4495_1536)"/>
<path d="M89.3938 16.3014C89.3938 16.4502 89.3938 16.5247 89.3938 16.6735C89.3938 16.748 89.3938 16.8224 89.3938 16.9713C89.3938 17.0457 89.3938 17.1202 89.3938 17.1946V17.269C89.3938 17.3435 89.3938 17.4179 89.3938 17.4179C89.3938 17.4923 89.3938 17.5668 89.3938 17.6412C89.3938 17.8645 89.3196 18.0878 89.3196 18.3112C89.3196 18.3856 89.3196 18.46 89.2454 18.6089V18.6833C89.2454 18.7578 89.2454 18.8322 89.1712 18.9066C89.1712 18.9811 89.1712 19.0555 89.097 19.13C89.097 19.2044 89.0227 19.3533 89.0227 19.4277C88.8743 19.9488 88.7259 20.3954 88.5775 20.9164C88.5775 20.9909 88.5033 21.0653 88.5033 21.1398C88.5033 21.1398 88.5033 21.2142 88.4291 21.2886C88.4291 21.3631 88.3549 21.4375 88.2807 21.5864C88.2065 21.7353 88.1323 21.8841 88.0581 22.033C87.3902 21.4375 85.164 19.9488 84.9414 19.7999C83.6799 19.0555 82.4184 18.46 81.0085 18.0134C78.2629 17.1202 75.3688 16.8969 72.549 17.4179C72.1038 17.4923 71.7327 17.5668 71.2875 17.7157C71.2133 17.7157 71.1391 17.7157 71.1391 17.7901C71.0649 17.7901 71.0649 17.7901 70.9907 17.8645C70.9165 17.8645 70.8423 17.8645 70.768 17.939C70.6938 17.939 70.6938 17.939 70.6196 18.0134C70.4712 18.0134 70.397 18.0878 70.2486 18.1623C70.1744 18.1623 70.1744 18.1623 70.1002 18.2367C69.9518 18.3112 69.8034 18.3856 69.655 18.3856C67.3546 19.2788 65.351 20.6931 63.5701 22.4052C63.4958 22.4796 63.4216 22.5541 63.3474 22.6285C63.0506 22.9262 62.6796 23.224 62.3828 23.5217C62.2343 23.6706 62.0859 23.8195 61.9375 23.9684C61.7891 24.1172 61.6407 24.2661 61.4923 24.415C61.3439 24.5639 61.1955 24.7127 61.047 24.8616C60.7502 25.1594 60.4534 25.4571 60.1566 25.7548C60.0082 25.9037 59.8597 26.0526 59.7113 26.2759C59.3403 26.7225 58.8951 27.0947 58.524 27.5413L58.153 27.988C58.0788 28.0624 58.0046 28.2113 57.8562 28.2857C57.6336 28.509 57.411 28.8068 57.1883 29.0301C57.0399 29.1789 56.9657 29.2534 56.8173 29.4023L56.7431 29.4767C56.6689 29.6256 56.5205 29.7 56.4463 29.8489C56.1495 30.1466 55.9268 30.4444 55.63 30.7421C55.4816 30.891 55.3332 31.1143 55.1848 31.2632C54.7395 31.8587 54.2201 32.3797 53.7749 32.9752C53.5522 33.273 53.2554 33.5707 53.0328 33.8685C52.8844 34.0174 52.736 34.1662 52.5876 34.3895C52.1423 34.9106 51.6971 35.5061 51.1776 36.0271C50.7324 36.5482 50.2872 36.9948 49.9161 37.5159C49.7677 37.6648 49.6193 37.8881 49.4709 38.0369C49.3967 38.1858 49.2483 38.2603 49.1741 38.3347C49.0999 38.4091 49.0257 38.4836 49.0257 38.558L48.9515 38.4836C48.8772 38.4091 48.803 38.2603 48.7288 38.1858C48.5804 38.0369 48.432 37.8881 48.3578 37.7392C47.8384 37.0693 47.2447 36.3993 46.7253 35.7294C46.5027 35.5061 46.28 35.2083 46.1316 34.985C45.909 34.7617 45.7606 34.464 45.538 34.2407C45.4638 34.0918 45.3154 34.0174 45.2412 33.8685C44.6475 33.1985 44.1281 32.4542 43.5344 31.7842C43.015 31.1887 42.4955 30.5188 42.0503 29.9233C42.1245 29.8489 42.1987 29.7744 42.2729 29.7C42.4213 29.5511 42.5697 29.4023 42.7181 29.3278C42.7924 29.2534 42.8666 29.1789 42.9408 29.1045C43.0892 28.9556 43.1634 28.8812 43.3118 28.7323C43.4602 28.5835 43.6086 28.4346 43.757 28.2857C43.8312 28.2113 43.9054 28.1368 43.9796 28.0624C44.0539 27.988 44.1281 27.9135 44.1281 27.9135L44.2023 27.8391C44.4249 27.6902 44.5733 27.4669 44.7217 27.318C44.9443 27.0947 45.0927 26.9458 45.3154 26.7225C45.3154 26.7225 45.3154 26.7225 45.3896 26.6481C45.4638 26.4992 45.6122 26.4248 45.6864 26.3503C45.7606 26.2759 45.8348 26.2015 45.8348 26.2015C45.909 26.127 45.9832 26.0526 46.0574 25.9782C46.28 25.7548 46.4285 25.606 46.5769 25.3827C46.9479 24.936 47.3189 24.5639 47.7642 24.1172C47.8384 24.0428 47.9126 23.9684 47.9868 23.8939C48.061 23.8195 48.2094 23.6706 48.2836 23.5962C48.5062 23.2984 48.803 23.0751 49.0257 22.7774C49.2483 22.5541 49.3967 22.4052 49.5451 22.1819C49.5451 22.1819 49.6193 22.1819 49.6193 22.1074L50.1388 21.5864C50.1388 21.5119 50.213 21.5119 50.2872 21.4375C50.7324 20.9909 51.1776 20.4698 51.6229 20.0232C52.2165 19.4277 52.8102 18.8322 53.3296 18.2367C53.5522 18.0134 53.7749 17.7157 54.0717 17.4923C54.2201 17.3435 54.3685 17.1946 54.5169 17.0457C54.6653 16.8969 54.8879 16.6735 55.0364 16.5247C55.4074 16.1525 55.7784 15.7803 56.2237 15.3337C56.3721 15.1848 56.5205 15.0359 56.6689 14.8871C57.1141 14.5149 57.4852 14.0682 57.9304 13.6961C58.0788 13.5472 58.3014 13.3239 58.524 13.175L58.5982 13.1006C59.2661 12.5051 59.8598 11.984 60.5276 11.3885C60.676 11.2396 60.8244 11.1652 60.9728 11.0163C61.1213 10.8675 61.2697 10.793 61.4181 10.6441C61.5665 10.4953 61.7149 10.4208 61.8633 10.272C61.8633 10.272 61.8633 10.272 61.9375 10.1975C62.0117 10.1231 62.1601 10.0487 62.2343 9.97422C62.3086 9.89978 62.457 9.82534 62.5312 9.75091C62.6796 9.60203 62.9022 9.45316 63.0506 9.37872C63.2732 9.22985 63.4958 9.08097 63.6443 8.9321C63.7927 8.85766 63.8669 8.78323 64.0153 8.63435C64.1637 8.55992 64.3121 8.41104 64.4605 8.3366C65.0542 7.96442 65.6478 7.59223 66.3157 7.22005C66.4641 7.14561 66.6867 6.99674 66.8351 6.9223C67.0577 6.84786 67.2062 6.69899 67.4288 6.62455C67.5772 6.1035 67.7256 6.02906 67.9482 5.95462C68.0224 5.88018 68.1708 5.88018 68.245 5.80575C68.3192 5.80575 68.3934 5.73131 68.4677 5.73131C68.5419 5.65687 68.6161 5.65687 68.6903 5.58244C68.8387 5.508 68.9871 5.43356 69.0613 5.43356C69.2839 5.35913 69.4323 5.28469 69.655 5.21025C69.7292 5.21025 69.7292 5.21025 69.8034 5.13582C69.8034 5.13582 69.8034 5.13582 69.8776 5.13582C70.1002 5.06138 70.397 4.98694 70.6196 4.9125C70.6938 4.9125 70.768 4.83807 70.8422 4.83807C70.9907 4.76363 71.2133 4.68919 71.3617 4.68919H71.4359C72.6974 4.31701 73.9589 4.0937 75.2946 4.01926C75.7398 4.01926 76.1109 3.94482 76.5561 3.94482C77.0014 3.94482 77.5208 3.94482 77.966 4.01926C78.1887 4.01926 78.3371 4.01926 78.5597 4.0937H78.6339C78.6339 4.0937 78.6339 4.0937 78.7081 4.0937H78.7823C78.8565 4.0937 78.8565 4.0937 78.9307 4.0937H79.0049C79.1533 4.0937 79.2275 4.16813 79.3759 4.16813C79.4502 4.16813 79.4502 4.16813 79.5244 4.16813C80.4148 4.39145 81.1569 4.68919 81.899 5.13582C82.0474 5.21025 82.1216 5.28469 82.27 5.35913C82.4184 5.43356 82.5668 5.58244 82.7152 5.65687C82.7152 5.65687 82.7894 5.65687 82.7894 5.73131C82.9378 5.80575 83.0121 5.88018 83.1605 5.95462C83.3089 6.1035 83.5315 6.17793 83.6799 6.32681C83.7541 6.40124 83.9025 6.47568 83.9767 6.55012C83.9767 6.55012 83.9767 6.55012 84.0509 6.62455C84.4962 6.9223 84.8672 7.29449 85.2382 7.66667C85.3124 7.74111 85.4608 7.88998 85.5351 7.96442C85.6835 8.11329 85.8319 8.26217 85.9803 8.41104C86.0545 8.48548 86.0545 8.48548 86.1287 8.55991C86.2029 8.63435 86.2029 8.63435 86.2771 8.70879C86.5739 9.08097 86.8708 9.45316 87.1676 9.82534C87.2418 9.97422 87.3902 10.0487 87.4644 10.1975C87.5386 10.3464 87.6128 10.4208 87.687 10.5697C87.7612 10.7186 87.8354 10.793 87.9096 10.9419C87.9839 11.0163 88.0581 11.1652 88.0581 11.2396C88.1323 11.3885 88.2065 11.463 88.2065 11.6118C88.2807 11.8351 88.4291 12.0585 88.5033 12.2073C88.5775 12.4306 88.6517 12.6539 88.7259 12.8773C88.8743 13.3239 89.0227 13.7705 89.097 14.2171C89.097 14.2916 89.1712 14.4404 89.1712 14.5149C89.1712 14.6637 89.1712 14.7382 89.2454 14.8871C89.2454 15.1104 89.3196 15.3337 89.3196 15.557C89.3196 15.7059 89.3196 15.7803 89.3196 15.9292C89.3938 16.0036 89.3938 16.1525 89.3938 16.3014Z" fill="#888888"/>
<path d="M89.1702 14.1422C89.0218 14.1422 87.3151 11.4625 87.0183 11.1648C86.2762 10.4204 85.4599 9.75047 84.5694 9.30385C82.9369 8.48504 81.156 8.18729 79.375 8.33617C72.8449 8.85723 68.0957 13.6212 64.4596 18.6829C62.3076 21.6604 60.2298 24.6379 58.0779 27.4665C57.781 27.8386 57.4842 28.2108 57.2616 28.583C57.1132 28.7319 56.9648 28.9552 56.8906 29.1041C56.5195 29.5507 56.2227 29.9973 55.8517 30.3695C55.7033 30.5184 55.5549 30.7417 55.4065 30.8906C54.9612 31.4861 54.4418 32.0071 53.9965 32.6026C53.7739 32.9004 53.4771 33.1981 53.2545 33.4959C53.1061 33.6447 52.9577 33.7936 52.8092 34.0169C52.364 34.538 51.9188 35.1335 51.3993 35.6545C50.9541 36.1756 50.5089 36.6222 50.1378 37.1433C49.9894 37.2921 49.841 37.5154 49.6926 37.6643C49.6184 37.8132 49.47 37.8876 49.3958 37.9621C49.3216 38.0365 49.2473 38.1109 49.2473 38.1854L49.1731 38.1109C49.0989 38.0365 49.0247 37.8876 48.9505 37.8132C48.8021 37.6643 48.6537 37.5154 48.5795 37.3666C48.06 36.6966 47.4664 36.0267 46.947 35.3568C46.7243 35.1335 46.5017 34.8357 46.3533 34.6124C46.1307 34.3891 45.9823 34.0914 45.7597 33.868C45.6855 33.7192 45.537 33.6447 45.4628 33.4959C44.8692 32.8259 44.3497 32.0816 43.7561 31.4116C43.2367 30.8161 42.7172 30.1462 42.272 29.5507C42.3462 29.4763 42.4204 29.4018 42.4946 29.3274C42.643 29.1785 42.7914 29.0296 42.9398 28.9552C43.014 28.8808 43.0882 28.8063 43.1624 28.7319C43.3109 28.583 43.3851 28.5086 43.5335 28.3597C43.6819 28.2108 43.8303 28.062 43.9787 27.9131C44.0529 27.8386 44.1271 27.7642 44.2013 27.6898C44.2755 27.6153 44.3497 27.5409 44.3497 27.5409L44.4239 27.4665C44.6466 27.3176 44.795 27.0943 44.9434 26.9454C45.166 26.7221 45.3144 26.5732 45.537 26.3499C45.537 26.3499 45.537 26.3499 45.6112 26.2755C45.6855 26.1266 45.8339 26.0522 45.9081 25.9777C45.9823 25.9033 46.0565 25.8288 46.0565 25.8288C46.1307 25.7544 46.2049 25.68 46.2791 25.6055C46.5017 25.3822 46.6501 25.2334 46.7985 25.01C47.1696 24.5634 47.5406 24.1912 47.9858 23.7446C48.06 23.6702 48.1343 23.5957 48.2085 23.5213C48.2827 23.4469 48.4311 23.298 48.5053 23.2236C48.7279 22.9258 49.0247 22.7025 49.2473 22.4048C49.47 22.1814 49.6184 22.0326 49.7668 21.8093C49.7668 21.8093 49.841 21.8093 49.841 21.7348L50.3604 21.2138C50.3604 21.1393 50.4346 21.1393 50.5089 21.0649C50.9541 20.6183 51.3993 20.0972 51.8446 19.6506C52.4382 19.0551 53.0319 18.4596 53.5513 17.8641C53.7739 17.6408 53.9965 17.343 54.2934 17.1197C54.4418 16.9709 54.5902 16.822 54.7386 16.6731C54.887 16.5242 55.1096 16.3009 55.258 16.152C55.6291 15.7799 56.0001 15.4077 56.4453 14.9611C56.5938 14.8122 56.7422 14.6633 56.8906 14.5144C57.3358 14.1422 57.7068 13.6956 58.1521 13.3234C58.3005 13.1746 58.5231 12.9513 58.7457 12.8024L58.8199 12.7279C59.4878 12.1325 60.0814 11.6114 60.7493 11.0159C60.8977 10.867 61.0461 10.7926 61.1945 10.6437C61.3429 10.4948 61.4914 10.4204 61.6398 10.2715C61.7882 10.1227 61.9366 10.0482 62.085 9.89934C62.085 9.89934 62.085 9.89934 62.1592 9.82491C62.2334 9.75047 62.3818 9.67603 62.456 9.6016C62.5302 9.52716 62.6787 9.45272 62.7529 9.37828C62.9013 9.22941 63.1239 9.08054 63.2723 9.0061C63.4949 8.85723 63.7175 8.70835 63.8659 8.55948C64.0144 8.48504 64.0886 8.4106 64.237 8.26173C64.3854 8.18729 64.5338 8.03842 64.6822 7.96398C65.2759 7.5918 65.8695 7.21961 66.5374 6.84743C66.6858 6.77299 66.9084 6.62412 67.0568 6.54968C67.2794 6.47524 67.4278 6.32637 67.6505 6.25193C67.5763 6.10306 67.7247 6.02862 67.9473 5.95419C68.0215 5.87975 68.1699 5.87975 68.2441 5.80531C68.3183 5.80531 68.3925 5.73087 68.4667 5.73087C68.5409 5.65644 68.6151 5.65644 68.6893 5.582C68.8378 5.50756 68.9862 5.43313 69.0604 5.43313C69.2088 5.35869 69.283 5.35869 69.4314 5.28425C69.5056 5.28425 69.5798 5.20982 69.654 5.20982C69.7282 5.20982 69.7282 5.20982 69.8024 5.13538C69.8024 5.13538 69.8024 5.13538 69.8766 5.13538C70.0993 5.06094 70.2477 4.9865 70.4703 4.91207C70.5445 4.91207 70.5445 4.91207 70.6187 4.83763C70.6929 4.83763 70.7671 4.76319 70.8413 4.76319C70.9897 4.68876 71.2124 4.61432 71.3608 4.61432H71.435H71.5092H71.5834C71.6576 4.61432 71.7318 4.53988 71.806 4.53988C71.9544 4.53988 72.0286 4.46545 72.177 4.46545C72.2512 4.46545 72.3254 4.39101 72.4739 4.39101C72.6223 4.39101 72.6965 4.31657 72.8449 4.31657C72.9191 4.31657 72.9933 4.31657 73.0675 4.24214C73.1417 4.24214 73.1417 4.24214 73.2159 4.24214H73.2901C73.4385 4.24214 73.5869 4.1677 73.7354 4.1677C73.7354 4.1677 73.7354 4.1677 73.8096 4.1677C73.958 4.1677 74.1064 4.09326 74.2548 4.09326C74.2548 4.09326 74.2548 4.09326 74.329 4.09326H74.4032C74.4774 4.09326 74.5516 4.09326 74.6258 4.09326C74.7742 4.09326 74.8484 4.09326 74.9227 4.09326H74.9969H75.0711C75.0711 4.09326 75.0711 4.09326 75.1453 4.09326C75.2195 4.09326 75.3679 4.09326 75.4421 4.09326C75.5163 4.09326 75.5163 4.09326 75.5905 4.09326C75.7389 4.09326 75.8131 4.09326 75.9615 4.09326C76.11 4.09326 76.2584 4.09326 76.4068 4.09326C76.7778 4.09326 77.1488 4.09326 77.4457 4.09326C77.6683 4.09326 77.8909 4.09326 78.0393 4.1677C78.1877 4.1677 78.2619 4.1677 78.3361 4.24214H78.4103C78.4103 4.24214 78.4103 4.24214 78.4846 4.24214H78.5588C78.633 4.24214 78.633 4.24214 78.7072 4.24214H78.7814C78.9298 4.24214 79.004 4.31657 79.1524 4.31657C79.2266 4.31657 79.2266 4.31657 79.3008 4.31657C79.375 4.31657 79.4492 4.31657 79.4492 4.31657C79.5976 4.31657 79.7461 4.39101 79.8945 4.46545C80.0429 4.53988 80.1913 4.53988 80.3397 4.61432C80.4139 4.61432 80.7849 4.83763 81.4528 5.20982C81.527 5.20982 81.527 5.28425 81.6012 5.28425C81.7496 5.35869 81.8238 5.43313 81.9722 5.50756C82.1206 5.582 82.2691 5.73087 82.4175 5.80531C82.4175 5.80531 82.4917 5.80531 82.4917 5.87975C82.6401 5.95419 82.7143 6.02862 82.8627 6.10306C83.0111 6.25193 83.2337 6.32637 83.3822 6.47524C83.4564 6.54968 83.6048 6.62412 83.679 6.69855C83.679 6.69855 83.679 6.69855 83.7532 6.77299C84.1984 7.07074 84.5694 7.44292 84.9405 7.81511C85.0147 7.88955 85.1631 8.03842 85.2373 8.11286C85.3857 8.26173 85.5341 8.4106 85.6825 8.55948C85.7567 8.63392 85.7567 8.63392 85.831 8.70835C85.9052 8.78279 85.9052 8.78279 85.9794 8.85723C86.2762 9.22941 86.573 9.6016 86.8698 9.97378C86.944 10.1227 87.0925 10.1971 87.1667 10.346C87.2409 10.4948 87.3151 10.5693 87.3893 10.7181C87.4635 10.867 87.5377 10.9415 87.6119 11.0903C87.6861 11.1648 87.7603 11.3136 87.7603 11.3881C87.8345 11.537 87.9087 11.6114 87.9087 11.7603C87.9829 11.9836 88.1313 12.2069 88.2055 12.3558C88.2798 12.5791 88.354 12.8024 88.4282 13.0257C88.9476 13.249 89.096 13.6956 89.1702 14.1422Z" fill="url(#paint11_linear_4495_1536)"/>
<path d="M75.2946 3.87075C73.9589 4.54069 72.6974 5.21062 71.4359 6.02943C70.1744 6.84823 69.0613 7.74148 67.874 8.70916C63.7185 12.0588 60.4534 16.6739 57.8562 21.2146C57.1883 22.4056 56.5205 23.671 55.8526 24.862C55.4816 25.5319 55.1848 26.2018 54.8137 26.8718C53.849 28.8816 52.8102 30.8914 51.7713 32.8267C51.6971 32.9756 51.6229 33.1245 51.5487 33.1989C50.955 34.241 50.3614 35.2831 49.7677 36.2508C49.3967 36.7719 49.0257 37.2185 48.6546 37.7396C48.5062 37.5907 48.3578 37.4418 48.2836 37.2929C47.7641 36.623 47.1705 35.9531 46.6511 35.2831C46.4284 35.0598 46.2058 34.7621 46.0574 34.5388C45.8348 34.3155 45.6864 34.0177 45.4638 33.7944C45.3896 33.6455 45.2411 33.5711 45.1669 33.4222C44.5733 32.7523 44.0538 32.0079 43.4602 31.338C42.9408 30.7425 42.4213 30.0726 41.9761 29.4771C42.0503 29.4026 42.1245 29.3282 42.1987 29.2537C42.3471 29.1049 42.4955 28.956 42.6439 28.8816C42.7181 28.8071 42.7923 28.7327 42.8665 28.6583C43.015 28.5094 43.0892 28.4349 43.2376 28.2861C43.386 28.1372 43.5344 27.9883 43.6828 27.8394C43.757 27.765 43.8312 27.6906 43.9054 27.6161C43.9796 27.5417 44.0538 27.4673 44.0538 27.4673L44.1281 27.3928C44.3507 27.244 44.4991 27.0206 44.6475 26.8718C44.8701 26.6485 45.0185 26.4996 45.2411 26.2763C45.2411 26.2763 45.2411 26.2763 45.3153 26.2018C45.3896 26.053 45.538 25.9785 45.6122 25.9041C45.6864 25.8297 45.7606 25.7552 45.7606 25.7552C45.8348 25.6808 45.909 25.6063 45.9832 25.5319C46.2058 25.3086 46.3542 25.1597 46.5026 24.9364C46.8737 24.4898 47.2447 24.1176 47.6899 23.671C47.7642 23.5965 47.8384 23.5221 47.9126 23.4477C47.9868 23.3732 48.1352 23.2244 48.2094 23.1499C48.432 22.8522 48.7288 22.6289 48.9514 22.3311C49.1741 22.1078 49.3225 21.9589 49.4709 21.7356C49.4709 21.7356 49.5451 21.7356 49.5451 21.6612L50.0645 21.1401C50.0645 21.0657 50.1387 21.0657 50.213 20.9913C50.6582 20.5446 51.1034 20.0236 51.5487 19.5769C52.1423 18.9815 52.736 18.386 53.2554 17.7905C53.478 17.5672 53.7006 17.2694 53.9975 17.0461C54.1459 16.8972 54.2943 16.7483 54.4427 16.5995C54.5911 16.4506 54.8137 16.2273 54.9621 16.0784C55.3332 15.7062 55.7042 15.334 56.1494 14.8874C56.2979 14.7385 56.4463 14.5897 56.5947 14.4408C57.0399 14.0686 57.4109 13.622 57.8562 13.2498C58.0046 13.1009 58.2272 12.8776 58.4498 12.7288L58.524 12.6543C59.1919 12.0588 59.7855 11.5378 60.4534 10.9423C60.6018 10.7934 60.7502 10.719 60.8986 10.5701C61.047 10.4212 61.1955 10.3468 61.3439 10.1979C61.4923 10.049 61.6407 9.97458 61.7891 9.82571C61.7891 9.82571 61.7891 9.82571 61.8633 9.75127C61.9375 9.67684 62.0859 9.6024 62.1601 9.52796C62.2343 9.45353 62.3828 9.37909 62.457 9.30465C62.6054 9.15578 62.828 9.0069 62.9764 8.93247C63.199 8.78359 63.4216 8.63472 63.57 8.48584C63.7185 8.41141 63.7927 8.33697 63.9411 8.1881C64.0895 8.11366 64.2379 7.96479 64.3863 7.89035C64.98 7.51817 65.5736 7.14598 66.2415 6.7738C66.3899 6.69936 66.6125 6.55048 66.7609 6.47605C66.9835 6.40161 67.1319 6.25274 67.3546 6.1783C67.5772 6.10386 67.7256 6.02943 67.9482 5.95499C68.0224 5.88055 68.1708 5.88055 68.245 5.80612C68.3192 5.80612 68.3934 5.73168 68.4677 5.73168C68.5419 5.65724 68.6161 5.65724 68.6903 5.5828C68.8387 5.50837 68.9871 5.43393 69.0613 5.43393C69.2097 5.35949 69.2839 5.35949 69.4323 5.28506C69.5065 5.28506 69.5807 5.21062 69.6549 5.21062C69.7292 5.21062 69.7292 5.21062 69.8034 5.13618C69.8034 5.13618 69.8034 5.13618 69.8776 5.13618C70.1002 5.06175 70.2486 4.98731 70.4712 4.91287C70.5454 4.91287 70.5454 4.91287 70.6196 4.83844C70.6938 4.83844 70.768 4.764 70.8422 4.764C70.9907 4.68956 71.2133 4.61512 71.3617 4.61512H71.4359C71.5101 4.61512 71.5843 4.61512 71.5843 4.54069C71.6585 4.54069 71.7327 4.46625 71.8069 4.46625C71.9553 4.46625 72.0295 4.39181 72.178 4.39181C72.2522 4.39181 72.3264 4.31738 72.4748 4.31738C72.6232 4.31738 72.6974 4.24294 72.8458 4.24294C72.92 4.24294 72.9942 4.24294 73.0684 4.1685C73.1426 4.1685 73.1426 4.1685 73.2168 4.1685H73.291C73.4395 4.1685 73.5879 4.09407 73.7363 4.09407C73.7363 4.09407 73.7363 4.09407 73.8105 4.09407C73.9589 4.09407 74.1073 4.01963 74.2557 4.01963C74.2557 4.01963 74.2557 4.01963 74.3299 4.01963H74.4041C74.701 3.87075 75.072 3.79632 75.2946 3.87075Z" fill="url(#paint12_linear_4495_1536)"/>
<path d="M50.8808 20.2469C50.6582 20.6191 50.5098 20.9169 50.2872 21.2891C50.213 21.5124 50.0645 21.6612 49.9903 21.8846C49.4709 22.8522 49.0257 23.8199 48.5804 24.7876C47.8384 26.3508 47.2447 27.9884 46.6511 29.626C46.2058 30.8914 45.6864 32.1569 45.2412 33.4223C44.6475 32.7523 44.1281 32.008 43.5344 31.338C43.015 30.7426 42.4955 30.0726 42.0503 29.4771C42.1245 29.4027 42.1987 29.3282 42.2729 29.2538C42.4213 29.1049 42.5697 28.9561 42.7181 28.8816C42.7924 28.8072 42.8666 28.7328 42.9408 28.6583C43.0892 28.5094 43.1634 28.435 43.3118 28.2861C43.4602 28.1373 43.6086 27.9884 43.757 27.8395C43.8312 27.7651 43.9054 27.6906 43.9796 27.6162C44.0539 27.5418 44.1281 27.4673 44.1281 27.4673C44.3507 27.244 44.5733 27.0207 44.7217 26.8718C44.9443 26.6485 45.0927 26.4996 45.3154 26.2763C45.3154 26.2763 45.3154 26.2763 45.3896 26.2019C45.4638 26.053 45.6122 25.9786 45.6864 25.9042C45.7606 25.8297 45.8348 25.7553 45.8348 25.7553C45.909 25.6808 45.9832 25.6064 46.0574 25.532C46.28 25.3087 46.4284 25.1598 46.5769 24.9365C46.9479 24.4899 47.3189 24.1177 47.7642 23.671C47.8384 23.5966 47.9126 23.5222 47.9868 23.4477C48.061 23.3733 48.2094 23.2244 48.2836 23.15C48.5062 22.8522 48.803 22.6289 49.0257 22.3312C49.2483 22.1079 49.3967 21.959 49.5451 21.7357C49.5451 21.7357 49.6193 21.7357 49.6193 21.6612L50.1388 21.1402L50.8808 20.2469Z" fill="url(#paint13_linear_4495_1536)"/>
<path d="M81.4536 28.8071C81.1568 28.956 80.86 28.956 80.5631 28.8071C80.4147 28.7327 80.3405 28.5838 80.1921 28.4349C79.9695 28.0628 80.0437 27.5417 80.4147 27.3184C80.4889 27.3184 80.4889 27.244 80.5631 27.244C81.0084 27.0206 81.5278 27.1695 81.8247 27.6161C82.0473 27.9883 81.8989 28.5838 81.4536 28.8071Z" fill="url(#paint14_linear_4495_1536)"/>
<path d="M79.079 27.7649C79.3249 27.7649 79.5243 27.565 79.5243 27.3183C79.5243 27.0717 79.3249 26.8717 79.079 26.8717C78.8331 26.8717 78.6338 27.0717 78.6338 27.3183C78.6338 27.565 78.8331 27.7649 79.079 27.7649Z" fill="url(#paint15_linear_4495_1536)"/>
<path d="M81.8246 31.3379C81.4536 31.5612 81.0084 31.4123 80.7857 31.0401C80.5631 30.6679 80.7115 30.2213 81.0826 29.998C81.4536 29.7747 81.8988 29.9236 82.1215 30.2957C82.3441 30.5935 82.2699 31.1145 81.8246 31.3379Z" fill="#787878"/>
<path d="M80.5635 28.8071C80.5635 28.2861 80.4892 27.765 80.415 27.3184C80.4892 27.3184 80.4892 27.244 80.5635 27.244C81.0087 27.0206 81.5281 27.1695 81.825 27.6161C82.0476 28.0628 81.8992 28.5838 81.4539 28.8816C81.1571 28.956 80.7861 28.956 80.5635 28.8071Z" fill="#757575"/>
<path d="M118.911 42.1379C121.169 42.1379 123.189 41.7241 124.971 40.8966C126.766 40.069 128.239 38.9118 129.389 37.4249C130.539 35.9381 131.262 34.2057 131.556 32.2279L131.577 32.0596H126.885L126.843 32.2069C126.521 33.4132 125.988 34.4512 125.244 35.3209C124.501 36.1765 123.596 36.8288 122.53 37.2776C121.464 37.7265 120.258 37.9509 118.911 37.9509C117.074 37.9509 115.474 37.481 114.114 36.5412C112.753 35.5874 111.701 34.2408 110.958 32.5015C110.214 30.7621 109.843 28.7142 109.843 26.3577V26.3156C109.843 23.9451 110.214 21.8971 110.958 20.1718C111.701 18.4325 112.746 17.0929 114.093 16.1531C115.453 15.2133 117.06 14.7434 118.911 14.7434C120.258 14.7434 121.464 14.9819 122.53 15.4588C123.61 15.9357 124.515 16.616 125.244 17.4997C125.974 18.3834 126.493 19.4354 126.801 20.6558L126.885 20.9082H131.577L131.556 20.7399C131.276 18.7341 130.553 16.9667 129.389 15.4377C128.239 13.9088 126.759 12.7165 124.95 11.8609C123.154 10.9912 121.141 10.5564 118.911 10.5564C116.064 10.5564 113.595 11.1946 111.505 12.4711C109.429 13.7475 107.823 15.564 106.687 17.9205C105.564 20.277 105.003 23.0754 105.003 26.3156V26.3577C105.003 29.5979 105.564 32.3963 106.687 34.7528C107.823 37.1093 109.436 38.9328 111.526 40.2233C113.616 41.4997 116.078 42.1379 118.911 42.1379Z" fill="#4A4A4A"/>
<path d="M136.227 41.5278H140.793V28.0409C140.793 26.9749 141.01 26.0491 141.445 25.2636C141.88 24.4781 142.49 23.8749 143.276 23.4541C144.075 23.0193 145.008 22.8019 146.074 22.8019C146.509 22.8019 146.916 22.8229 147.294 22.865C147.687 22.9071 148.024 22.9702 148.304 23.0544V18.8252C148.108 18.7832 147.849 18.7411 147.526 18.699C147.217 18.6569 146.888 18.6359 146.537 18.6359C145.134 18.6359 143.942 18.9866 142.96 19.6879C141.978 20.3892 141.298 21.3641 140.919 22.6125H140.709V19.0567H136.227V41.5278Z" fill="#4A4A4A"/>
<path d="M152.008 41.5278H156.573V19.0567H152.008V41.5278ZM154.301 15.3325C155.072 15.3325 155.725 15.066 156.258 14.533C156.791 13.986 157.057 13.3407 157.057 12.5973C157.057 11.8399 156.791 11.1946 156.258 10.6616C155.725 10.1286 155.072 9.86206 154.301 9.86206C153.543 9.86206 152.891 10.1286 152.344 10.6616C151.811 11.1946 151.545 11.8399 151.545 12.5973C151.545 13.3407 151.811 13.986 152.344 14.533C152.891 15.066 153.543 15.3325 154.301 15.3325Z" fill="#4A4A4A"/>
<path d="M171.785 41.9696C173.96 41.9696 175.839 41.4997 177.424 40.5599C179.023 39.6201 180.258 38.2805 181.127 36.5412C181.997 34.7878 182.432 32.7049 182.432 30.2922V30.2501C182.432 27.8515 181.99 25.7826 181.106 24.0432C180.237 22.3039 179.002 20.9643 177.403 20.0245C175.818 19.0847 173.946 18.6148 171.785 18.6148C169.625 18.6148 167.746 19.0847 166.147 20.0245C164.562 20.9643 163.327 22.3039 162.444 24.0432C161.574 25.7826 161.139 27.8515 161.139 30.2501V30.2922C161.139 32.7049 161.574 34.7878 162.444 36.5412C163.313 38.2805 164.548 39.6201 166.147 40.5599C167.746 41.4997 169.625 41.9696 171.785 41.9696ZM171.806 38.1403C170.558 38.1403 169.485 37.8317 168.587 37.2145C167.704 36.5973 167.016 35.7066 166.525 34.5424C166.048 33.3641 165.81 31.9544 165.81 30.3133V30.2712C165.81 28.616 166.048 27.2063 166.525 26.0421C167.016 24.8778 167.704 23.9871 168.587 23.37C169.485 22.7528 170.551 22.4442 171.785 22.4442C173.02 22.4442 174.086 22.7528 174.984 23.37C175.881 23.9731 176.569 24.8638 177.046 26.0421C177.522 27.2063 177.761 28.616 177.761 30.2712V30.3133C177.761 31.9544 177.522 33.3641 177.046 34.5424C176.569 35.7066 175.881 36.5973 174.984 37.2145C174.1 37.8317 173.041 38.1403 171.806 38.1403Z" fill="#4A4A4A"/>
<defs>
<linearGradient id="paint0_linear_4495_1536" x1="51.6394" y1="22.1213" x2="49.2985" y2="21.6725" gradientUnits="userSpaceOnUse">
<stop offset="0.00313457" stop-color="#FBFBFB"/>
<stop offset="0.0323279" stop-color="#FBF5E3"/>
<stop offset="0.0940977" stop-color="#FCE5A5"/>
<stop offset="0.1828" stop-color="#FDCB43"/>
<stop offset="0.1929" stop-color="#FDC837"/>
<stop offset="0.2631" stop-color="#FDB03A"/>
<stop offset="0.4105" stop-color="#FD7342"/>
<stop offset="0.4526" stop-color="#FD6044"/>
<stop offset="0.5966" stop-color="#EE4857"/>
<stop offset="0.7111" stop-color="#E03269"/>
<stop offset="0.756" stop-color="#C82E64"/>
<stop offset="0.8509" stop-color="#8A2457"/>
<stop offset="0.9872" stop-color="#281443"/>
<stop offset="1" stop-color="#1E1241"/>
</linearGradient>
<linearGradient id="paint1_linear_4495_1536" x1="63.9416" y1="21.2886" x2="63.9416" y2="52.0001" gradientUnits="userSpaceOnUse">
<stop/>
<stop offset="1" stop-color="#545454"/>
</linearGradient>
<linearGradient id="paint2_linear_4495_1536" x1="15.2705" y1="16.0627" x2="48.1194" y2="38.1394" gradientUnits="userSpaceOnUse">
<stop offset="0.00313457" stop-color="#FBFBFB"/>
<stop offset="0.0323279" stop-color="#FBF5E3"/>
<stop offset="0.0940977" stop-color="#FCE5A5"/>
<stop offset="0.1828" stop-color="#FDCB43"/>
<stop offset="0.1929" stop-color="#FDC837"/>
<stop offset="0.2631" stop-color="#FDB03A"/>
<stop offset="0.4105" stop-color="#FD7342"/>
<stop offset="0.4526" stop-color="#FD6044"/>
<stop offset="0.5966" stop-color="#EE4857"/>
<stop offset="0.7111" stop-color="#E03269"/>
<stop offset="0.756" stop-color="#C82E64"/>
<stop offset="0.8509" stop-color="#8A2457"/>
<stop offset="0.9872" stop-color="#281443"/>
<stop offset="1" stop-color="#1E1241"/>
</linearGradient>
<linearGradient id="paint3_linear_4495_1536" x1="41.1862" y1="6.00003" x2="9.68616" y2="12" gradientUnits="userSpaceOnUse">
<stop stop-color="#6A6868"/>
<stop offset="1" stop-color="#3A3A3A"/>
</linearGradient>
<linearGradient id="paint4_linear_4495_1536" x1="4.68591" y1="35" x2="54.6859" y2="6.00002" gradientUnits="userSpaceOnUse">
<stop offset="0.548811" stop-color="#3A3A3A"/>
<stop offset="1" stop-color="#E6DDDD"/>
</linearGradient>
<linearGradient id="paint5_linear_4495_1536" x1="47.5" y1="39.6355" x2="47.5969" y2="40.1684" gradientUnits="userSpaceOnUse">
<stop offset="0.0102588" stop-color="#5618B4"/>
<stop offset="0.1815" stop-color="#9044E1"/>
<stop offset="0.2711" stop-color="#B05DFA"/>
<stop offset="0.3115" stop-color="#9868FA"/>
<stop offset="0.3963" stop-color="#5B84F9"/>
<stop offset="0.4673" stop-color="#239EF9"/>
<stop offset="0.6964" stop-color="#239EF9"/>
<stop offset="0.7768" stop-color="#1CA3E1"/>
<stop offset="0.9457" stop-color="#09AFA4"/>
<stop offset="0.9863" stop-color="#04B294"/>
</linearGradient>
<linearGradient id="paint6_linear_4495_1536" x1="22.413" y1="23.4351" x2="40.3527" y2="121.798" gradientUnits="userSpaceOnUse">
<stop offset="0.0105809" stop-color="#4909C6"/>
<stop offset="0.2483" stop-color="#4C43F7"/>
<stop offset="0.2875" stop-color="#4D4DFF"/>
<stop offset="0.4004" stop-color="#4165FD"/>
<stop offset="0.6219" stop-color="#239EF9"/>
<stop offset="0.7229" stop-color="#1CA3E1"/>
<stop offset="0.9353" stop-color="#09AFA4"/>
<stop offset="0.9863" stop-color="#04B294"/>
</linearGradient>
<linearGradient id="paint7_linear_4495_1536" x1="57.491" y1="39.8102" x2="-1.67293" y2="28.1708" gradientUnits="userSpaceOnUse">
<stop offset="0.0105809" stop-color="#4909C6"/>
<stop offset="0.2483" stop-color="#4C43F7"/>
<stop offset="0.2875" stop-color="#4D4DFF"/>
<stop offset="0.4004" stop-color="#4165FD"/>
<stop offset="0.6219" stop-color="#239EF9"/>
<stop offset="0.7229" stop-color="#1CA3E1"/>
<stop offset="0.9353" stop-color="#09AFA4"/>
<stop offset="0.9863" stop-color="#04B294"/>
</linearGradient>
<linearGradient id="paint8_linear_4495_1536" x1="14.4173" y1="41.5255" x2="31.6721" y2="19.0398" gradientUnits="userSpaceOnUse">
<stop offset="0.0105809" stop-color="#4909C6"/>
<stop offset="0.2483" stop-color="#4C43F7"/>
<stop offset="0.2875" stop-color="#4D4DFF"/>
<stop offset="0.4004" stop-color="#4165FD"/>
<stop offset="0.6219" stop-color="#239EF9"/>
<stop offset="0.7229" stop-color="#1CA3E1"/>
<stop offset="0.9353" stop-color="#09AFA4"/>
<stop offset="0.9863" stop-color="#04B294"/>
</linearGradient>
<linearGradient id="paint9_linear_4495_1536" x1="1.34461" y1="26.9259" x2="42.8694" y2="41.7586" gradientUnits="userSpaceOnUse">
<stop offset="0.0105809" stop-color="#929292"/>
<stop offset="0.9863" stop-color="#030303"/>
</linearGradient>
<linearGradient id="paint10_linear_4495_1536" x1="65.543" y1="21.4569" x2="79.5125" y2="53.5941" gradientUnits="userSpaceOnUse">
<stop stop-color="#676767"/>
<stop offset="0.9863" stop-color="#9A9A9A"/>
</linearGradient>
<linearGradient id="paint11_linear_4495_1536" x1="65.7211" y1="4.09326" x2="65.7211" y2="38.1854" gradientUnits="userSpaceOnUse">
<stop stop-color="#777777"/>
<stop offset="1" stop-color="#2E2E2E"/>
</linearGradient>
<linearGradient id="paint12_linear_4495_1536" x1="58.6353" y1="3.84155" x2="58.6353" y2="37.7396" gradientUnits="userSpaceOnUse">
<stop stop-color="#3A3A3A"/>
<stop offset="1" stop-color="#868686"/>
</linearGradient>
<linearGradient id="paint13_linear_4495_1536" x1="6.68191" y1="11.9852" x2="48.2067" y2="26.8179" gradientUnits="userSpaceOnUse">
<stop offset="0.0105809" stop-color="#2B2B2B"/>
<stop offset="0.9864" stop-color="#5B5B5B"/>
</linearGradient>
<linearGradient id="paint14_linear_4495_1536" x1="83.4633" y1="32.1533" x2="66.8272" y2="4.28398" gradientUnits="userSpaceOnUse">
<stop offset="0.0105809" stop-color="#959595"/>
<stop offset="0.9864" stop-color="#2F2F2F"/>
</linearGradient>
<linearGradient id="paint15_linear_4495_1536" x1="82.3751" y1="32.7987" x2="65.7448" y2="4.9387" gradientUnits="userSpaceOnUse">
<stop offset="0.0105809" stop-color="#575757"/>
<stop offset="0.9863" stop-color="#CDCDCD"/>
</linearGradient>
</defs>
</svg>
