<svg width="163" height="47" viewBox="0 0 163 47" fill="none" xmlns="http://www.w3.org/2000/svg">
<path fill-rule="evenodd" clip-rule="evenodd" d="M30.485 7.19761C30.205 7.3394 29.9295 7.47888 29.6628 7.61198L29.6343 7.61438C29.4157 7.74151 29.399 7.5784 29.6723 7.23538C31.0103 5.7242 32.4244 4.18422 33.9501 2.56031C34.2363 2.25744 34.5551 1.98791 34.9008 1.75674C35.2127 1.61622 35.5071 1.48967 35.8124 1.35843C36.2003 1.19169 36.6058 1.01738 37.0872 0.797253C37.2607 0.703703 37.1014 0.962764 36.7688 1.31537C35.502 2.75459 34.3921 4.05949 33.2039 5.51072C32.9657 5.79276 32.6925 6.04267 32.3911 6.25431C31.7648 6.54966 31.1134 6.87944 30.485 7.19761ZM91.9114 28.3515C92.1014 28.4344 92.307 28.4744 92.5139 28.469C92.7102 28.47 92.9053 28.4383 93.0914 28.3754C93.2712 28.3152 93.4342 28.2124 93.5667 28.0756C93.7116 27.9245 93.8241 27.7448 93.8971 27.5479C93.9859 27.3038 94.0286 27.0451 94.023 26.7851V19.3803H91.5205V24.6334L86.0901 19.7137C85.9218 19.5439 85.7214 19.4101 85.5007 19.3203C85.336 19.2642 85.1635 19.235 84.9898 19.2339C84.7982 19.2338 84.6079 19.2654 84.4265 19.3275C84.2481 19.3874 84.0856 19.4876 83.9512 19.6201C83.8048 19.7682 83.692 19.9466 83.6209 20.1431C83.5311 20.386 83.4883 20.6442 83.4949 20.9034V28.3227H85.9832V23.0695L91.4136 27.9892C91.5515 28.145 91.7214 28.2687 91.9114 28.3515ZM63.4056 26.0265H60.3636L69.0095 28.3268L63.4746 20.2408C63.2831 19.9583 63.0414 19.7143 62.7616 19.5211C62.452 19.322 62.0899 19.2224 61.723 19.2357C61.3424 19.2193 60.9665 19.327 60.6512 19.5428C60.3773 19.7335 60.1364 19.9686 59.9382 20.2384L54.2559 28.3245L61.6612 22.39L63.2487 24.7552C63.3855 24.9372 63.5205 25.1392 63.6616 25.3503L63.6616 25.3503L63.724 25.4436C63.888 25.6882 64.0306 25.8921 64.1542 26.0528C63.9427 26.0265 63.6932 26.0265 63.4056 26.0265ZM43.2531 26.0243L41.4803 28.3222H33.6543V19.3799H36.3968V26.0243H43.2531ZM54.4624 26.0244L52.7015 28.3223H44.172V19.38H54.4363L52.661 21.7066H46.9264V22.7741H53.9491L52.3735 24.8082H46.9264V26.0244H54.4624ZM82.5508 28.3224H78.8814L76.9088 25.9572H72.6976V28.3224H69.9551V23.7505H77.6646C78.0393 23.7627 78.4102 23.6706 78.7364 23.4842C78.8693 23.414 78.9806 23.3081 79.0577 23.1781C79.1349 23.0483 79.175 22.8993 79.1737 22.7478C79.1819 22.5937 79.1495 22.4401 79.0798 22.3028C79.0101 22.1654 78.9055 22.0491 78.7768 21.9658C78.4379 21.7749 78.0521 21.685 77.6646 21.7067H69.9551L71.7446 19.3801H77.4484C77.9717 19.3813 78.4941 19.4279 79.0098 19.5191C79.5235 19.6057 80.0202 19.7749 80.4808 20.0205C80.9154 20.2558 81.2898 20.59 81.574 20.9968C81.8717 21.4665 82.0171 22.0182 81.9899 22.5751C81.9921 22.9112 81.9383 23.2453 81.8307 23.5634C81.7275 23.8683 81.5731 24.1531 81.3744 24.4054C81.1707 24.6594 80.9236 24.8748 80.6447 25.041C80.3446 25.2199 80.0156 25.3441 79.6728 25.408C79.8225 25.5255 79.9888 25.6718 80.1742 25.8494C80.3595 26.0269 80.6068 26.2739 80.9181 26.5858L82.5508 28.3224ZM111.716 19.38L109.939 21.7066H106.777V28.3223H104.034V21.7066H99.8752L101.65 19.38H111.716ZM122.345 20.3423C121.261 19.6035 119.643 19.2341 117.489 19.2341C115.327 19.2373 113.707 19.6067 112.63 20.3423C111.552 21.0779 111.014 22.2453 111.014 23.8444C111.014 25.4499 111.55 26.6221 112.623 27.3609C113.695 28.0997 115.318 28.4692 117.489 28.4692C119.652 28.4755 121.273 28.1061 122.35 27.3609C123.427 26.6157 123.966 25.4435 123.966 23.8444C123.969 22.2484 123.428 21.0811 122.345 20.3423ZM119.239 26.0584C118.658 26.1214 118.074 26.1502 117.489 26.1447C116.905 26.1503 116.32 26.1214 115.738 26.0584C115.333 26.0212 114.94 25.9047 114.581 25.7154C114.296 25.5601 114.071 25.3137 113.939 25.015C113.673 24.2585 113.673 23.4327 113.939 22.6762C114.068 22.3778 114.295 22.1325 114.581 21.9806C114.942 21.796 115.335 21.6827 115.738 21.6472C116.902 21.5287 118.075 21.5287 119.239 21.6472C119.643 21.6858 120.036 21.8022 120.397 21.9902C120.682 22.1429 120.909 22.3879 121.041 22.6858C121.303 23.4428 121.303 24.2676 121.041 25.0245C120.908 25.323 120.681 25.5691 120.397 25.725C120.036 25.911 119.643 26.0242 119.239 26.0584ZM138.852 24.1624L138.852 24.1618L138.812 24.0891C138.669 23.8277 138.544 23.5903 138.43 23.3696C138.372 23.2581 138.318 23.1576 138.268 23.0638C138.218 22.9719 138.172 22.8865 138.13 22.8034C138.045 22.6355 137.967 22.4676 137.892 22.307C137.821 22.4676 137.745 22.6331 137.655 22.8034C137.607 22.8932 137.559 22.9877 137.508 23.0875C137.462 23.1771 137.414 23.2709 137.362 23.3696C137.277 23.5329 137.18 23.7125 137.075 23.907L137.074 23.9073L137.073 23.9094L137.073 23.9102L137.072 23.9121L136.985 24.0724C136.855 24.3125 136.7 24.5897 136.523 24.9058L136.523 24.9066L136.481 24.9815L135.055 27.5217C134.908 27.7934 134.702 28.0285 134.454 28.2101C134.185 28.3899 133.867 28.4806 133.545 28.4692C133.211 28.4731 132.884 28.3679 132.612 28.1693C132.312 27.938 132.099 27.6107 132.009 27.2411L129.76 19.3805H132.502L133.336 22.4988C133.476 23.0074 133.592 23.4535 133.685 23.8373C133.779 24.2187 133.862 24.5954 133.924 24.9599C134.066 24.6401 134.232 24.2947 134.42 23.9237C134.609 23.5527 134.858 23.073 135.169 22.4845L136.358 20.2393C136.45 20.0486 136.565 19.8704 136.702 19.7091C136.806 19.5897 136.928 19.4885 137.065 19.4093C137.191 19.3387 137.328 19.2916 137.469 19.2702C137.618 19.2465 137.768 19.2352 137.918 19.2366C138.077 19.2344 138.236 19.2457 138.394 19.2702C138.535 19.2915 138.671 19.3386 138.796 19.4093C138.934 19.49 139.06 19.5911 139.169 19.7091C139.308 19.8695 139.425 20.0477 139.518 20.2393L140.707 22.4964C140.875 22.8083 141.02 23.0842 141.144 23.3192L141.172 23.3725C141.284 23.587 141.388 23.7848 141.474 23.962C141.52 24.0573 141.565 24.1484 141.609 24.2357L141.609 24.2369L141.611 24.2396C141.654 24.3268 141.695 24.41 141.733 24.4898L141.952 24.9695C142.023 24.6121 142.109 24.2379 142.211 23.8469C142.313 23.4559 142.43 23.0074 142.56 22.5084L143.397 19.3901H146.07L143.781 27.2411C143.691 27.6103 143.479 27.9377 143.18 28.1693C142.908 28.3674 142.581 28.4723 142.247 28.4692C141.93 28.4833 141.617 28.3996 141.351 28.2294C141.097 28.046 140.887 27.8085 140.735 27.5337L139.316 25.0055C139.14 24.6923 138.988 24.4121 138.855 24.1685L138.852 24.1624ZM147.156 28.3222H149.898V19.3799H147.156V28.3222ZM160.588 28.4692C160.41 28.4691 160.233 28.4399 160.065 28.3828C159.847 28.2952 159.65 28.1611 159.488 27.9894L154.057 23.0697V28.3229H151.569V20.9036C151.562 20.6444 151.605 20.3862 151.695 20.1433C151.766 19.9468 151.879 19.7684 152.026 19.6203C152.159 19.488 152.323 19.3879 152.5 19.3277C152.681 19.2654 152.87 19.2338 153.062 19.2341C153.235 19.235 153.408 19.2641 153.573 19.3205C153.793 19.4103 153.993 19.5441 154.161 19.7139L159.593 24.6336V19.3805H162.094V26.7852C162.101 27.0452 162.058 27.304 161.969 27.5481C161.897 27.7455 161.784 27.9253 161.639 28.0758C161.506 28.2126 161.343 28.3154 161.163 28.3756C160.978 28.4382 160.783 28.4699 160.588 28.4692ZM26.7333 9.16036L26.7335 9.16026L26.7335 9.16024L26.734 9.16C27.2 8.91948 27.67 8.67689 28.1351 8.42709C28.4875 8.2028 28.796 7.91496 29.0453 7.57795C30.1549 6.32808 31.3655 5.0281 32.559 3.74633L32.5607 3.7446L32.5687 3.73593C32.8494 3.43454 33.1291 3.13417 33.4063 2.83571C33.8079 2.43273 33.8982 2.21684 33.7462 2.30079C33.3599 2.49309 33.0198 2.65091 32.6792 2.80892L32.679 2.80898L32.6789 2.80906L32.6788 2.80911C32.3907 2.94275 32.1023 3.07655 31.7854 3.2315C31.4045 3.49004 31.0509 3.78744 30.7302 4.11901C29.0286 5.83649 27.2771 7.62832 25.6991 9.32421C25.364 9.67682 25.3806 9.83993 25.5945 9.75358C25.9681 9.55533 26.3493 9.35855 26.7333 9.16036ZM23.3148 10.9527C22.7539 11.2524 22.1957 11.5506 21.5885 11.8856H21.5838C21.389 11.9959 21.4627 11.7657 21.8642 11.3626C23.2018 9.98807 24.5965 8.64427 26.04 7.25347C26.5714 6.74147 27.1094 6.22311 27.6535 5.69449C28.0081 5.33079 28.3929 4.99854 28.8039 4.70143C28.9953 4.61102 29.2256 4.4967 29.4681 4.37639C29.8818 4.1711 30.3307 3.94835 30.6813 3.79712C30.8286 3.72036 30.5411 4.03938 30.206 4.39199C29.8085 4.79492 29.4061 5.20078 29.0024 5.60802C27.6563 6.96573 26.2951 8.33873 25.0465 9.66915C24.965 9.7536 24.8856 9.83843 24.8094 9.9199C24.5521 10.1948 24.3305 10.4316 24.1838 10.4871C23.8888 10.6461 23.6015 10.7996 23.3148 10.9527ZM26.311 13.0927L26.3116 13.0924L26.3117 13.0924C27.0503 12.6923 27.7686 12.3031 28.505 11.9377C28.7919 11.7474 29.0396 11.5031 29.2347 11.218C29.7265 10.4682 30.261 9.68711 30.7962 8.90472L30.7963 8.90458L30.7966 8.90419L30.7969 8.90369C31.1382 8.40494 31.4798 7.90568 31.8109 7.41369C32.0485 7.10665 32.0224 6.93395 31.8109 7.06827C31.4543 7.24919 31.0843 7.43396 30.7088 7.62151L30.7085 7.62165L30.7084 7.62172L30.708 7.62191C30.1477 7.90174 29.5751 8.18774 29.0161 8.47631C28.7074 8.68302 28.4371 8.94283 28.2175 9.24391C27.8681 9.74363 27.4994 10.2524 27.1295 10.7628L27.1295 10.7628L27.1295 10.7629L27.1295 10.7629L27.1295 10.7629L27.1295 10.7629L27.1295 10.7629L27.1295 10.7629L27.1295 10.763L27.1294 10.763L27.1294 10.763L27.1294 10.763L27.1294 10.763L27.1294 10.763L27.1294 10.7631L27.1293 10.7632L27.1292 10.7633C26.528 11.5929 25.9238 12.4267 25.3942 13.2329C25.2111 13.5064 25.311 13.6432 25.5297 13.516L25.5225 13.5184C25.7889 13.3756 26.0511 13.2335 26.3109 13.0928L26.311 13.0927ZM23.7772 14.4311C22.8833 14.9302 21.9885 15.4298 21.0792 15.9088H21.0863C20.8891 16.019 20.8131 15.8656 21.0175 15.5753C21.9205 14.2393 22.9686 12.8648 24.0404 11.4735C24.2723 11.1585 24.5504 10.881 24.8651 10.6508C25.3036 10.4343 25.7671 10.1883 26.2275 9.94398L26.2275 9.94396C26.6754 9.70625 27.1204 9.47011 27.5364 9.2643C27.7597 9.16116 27.7264 9.33387 27.5221 9.62651C27.1498 10.1588 26.7699 10.6808 26.3958 11.1947L26.3957 11.1948L26.3957 11.1949C25.7954 12.0196 25.2103 12.8235 24.6964 13.6155C24.5166 13.9023 24.2723 14.1424 23.9834 14.316L23.7772 14.4311ZM16.8074 18.0992C17.7129 17.6723 18.6682 17.1734 19.5856 16.6601C19.884 16.482 20.1301 16.227 20.2986 15.9212C21.2159 14.6092 22.3091 13.2011 23.3881 11.8123C23.6376 11.486 23.6448 11.3061 23.4475 11.4165L23.0415 11.6343C22.304 12.0299 21.6078 12.4033 20.8333 12.8317C20.4926 13.0564 20.192 13.3378 19.9445 13.6641C18.856 15.0001 17.7343 16.4633 16.7314 17.8114C16.4937 18.1209 16.5864 18.2336 16.8074 18.1064V18.0992ZM30.4212 14.6894C29.3818 15.1803 28.3607 15.6928 27.3578 16.2269L27.3697 16.2293C27.1344 16.3325 27.0964 16.1861 27.2176 15.9223C27.8046 14.8189 28.3917 13.7178 29.0285 12.5449C29.2085 12.2474 29.4593 11.9999 29.7582 11.8253C30.7563 11.3336 31.8114 10.8202 32.8477 10.3405C33.0829 10.2373 33.1828 10.3741 33.0235 10.6307C32.7375 11.1509 32.4384 11.6752 32.1387 12.2006L32.1386 12.2007L32.1385 12.2009L32.1385 12.201L32.1381 12.2017C31.7981 12.7977 31.4574 13.395 31.1342 13.9889C30.9577 14.2784 30.7127 14.5191 30.4212 14.6894ZM25.7096 17.0491L25.7097 17.0491L25.7712 17.0148C26.0627 16.8446 26.3077 16.6039 26.4842 16.3144C26.5631 16.1589 26.6415 16.0037 26.7198 15.8488L26.7214 15.8455L26.7254 15.8375L26.7267 15.835C27.2124 14.8737 27.6945 13.9194 28.2571 12.9298C28.4163 12.6731 28.3379 12.5196 28.1193 12.6467C27.2956 13.0927 26.5264 13.4969 25.7584 13.9005L25.7568 13.9014L25.7525 13.9036C25.5475 14.0113 25.3426 14.119 25.1367 14.2275C24.8533 14.4083 24.6169 14.6551 24.4475 14.9472C23.8962 15.9366 23.4225 16.9244 22.962 17.8847C22.8945 18.0255 22.8272 18.1657 22.7601 18.3053C22.6176 18.5884 22.7007 18.7011 22.9194 18.5739C23.8489 18.0861 24.7945 17.5591 25.7093 17.0493L25.7095 17.0492L25.7095 17.0491L25.7096 17.0491L25.7096 17.0491ZM21.392 19.3884C20.458 19.8705 19.5264 20.3622 18.6304 20.842V20.8347C18.3715 20.9548 18.312 20.818 18.4094 20.5781C18.8895 19.5203 19.4599 18.3953 20.0017 17.3279C20.1646 17.0445 20.393 16.805 20.6672 16.6298C21.4823 16.1688 22.2665 15.7587 23.0521 15.3479L23.0529 15.3475C23.2152 15.2626 23.3776 15.1777 23.5404 15.0923C23.7614 14.9651 23.8446 15.0778 23.6783 15.3754L23.5517 15.6204L23.5517 15.6204L23.5517 15.6204L23.5517 15.6205L23.5517 15.6205L23.5517 15.6205L23.5517 15.6205L23.5517 15.6205L23.5517 15.6206L23.5516 15.6206L23.5516 15.6208L23.5515 15.621C23.0287 16.6329 22.4851 17.6851 22.0147 18.7167C21.8615 18.9864 21.6483 19.2163 21.392 19.3884ZM16.7628 21.7644L16.763 21.7643L17.1197 21.5822C17.3838 21.4355 17.5938 21.2067 17.7187 20.9299C18.1577 19.9527 18.6576 18.9674 19.1809 17.9361L19.1809 17.936L19.311 17.6795C19.4702 17.4205 19.4107 17.2909 19.1731 17.3941C18.9962 17.4874 18.8174 17.5823 18.6372 17.678L18.632 17.6807L18.6305 17.6815C17.8856 18.077 17.118 18.4845 16.3735 18.8333C16.0964 19.0088 15.867 19.2513 15.7057 19.5386C15.14 20.6228 14.622 21.6734 14.1253 22.7096C14.0279 22.9495 14.1253 23.0527 14.363 22.9495L14.3701 22.9567C15.1557 22.5852 15.9647 22.172 16.7627 21.7645L16.7628 21.7644ZM28.3861 19.3546C27.4354 19.8128 26.5252 20.2661 25.6126 20.7459L25.6079 20.7531C25.4153 20.8634 25.3107 20.7531 25.3701 20.5131C25.4559 20.275 25.5406 20.0354 25.6259 19.7942C25.8833 19.0663 26.1457 18.3244 26.4563 17.5676C26.5814 17.2676 26.8068 17.0215 27.0931 16.8719C27.8363 16.483 28.6135 16.0941 29.3973 15.7019L29.3992 15.7009L29.3995 15.7008C29.6301 15.5854 29.8613 15.4697 30.0923 15.3536C30.3277 15.248 30.4108 15.3631 30.292 15.627C29.8095 16.6849 29.3746 17.7091 28.9636 18.7165C28.8353 18.9805 28.6349 19.2019 28.3861 19.3546ZM21.5613 22.9138L24.1755 21.4986C24.414 21.3752 24.5961 21.1639 24.6841 20.9084C24.9538 20.0418 25.2664 19.1949 25.5878 18.3242L25.5878 18.3241L25.589 18.321C25.6381 18.1878 25.6875 18.0541 25.7369 17.9197C25.8343 17.6798 25.7511 17.5598 25.4993 17.7038C25.0636 17.9324 24.6244 18.1692 24.1866 18.4052L24.1865 18.4052C23.669 18.6842 23.1533 18.9621 22.6474 19.2246C22.4138 19.379 22.2251 19.5934 22.1008 19.8458C21.7895 20.8485 21.528 21.7649 21.2666 22.7075C21.2143 22.921 21.3593 23.0241 21.5566 22.9138H21.5613ZM18.9027 24.2712C18.466 24.4972 18.0291 24.7234 17.5872 24.9433V24.9481C17.3733 25.0369 17.245 24.9552 17.2997 24.7418C17.447 23.8951 17.6229 22.9931 17.8606 22.0816C17.9527 21.817 18.1438 21.5991 18.3929 21.4747C18.8518 21.2407 19.3183 20.9925 19.7908 20.7412C20.2334 20.5058 20.6813 20.2676 21.1331 20.0355C21.3517 19.906 21.473 20.0259 21.4206 20.2418C21.1273 21.0805 20.9063 21.9326 20.6929 22.7553L20.6174 23.0459C20.5424 23.2874 20.3827 23.493 20.1682 23.624C19.7438 23.8358 19.3233 24.0535 18.9027 24.2712ZM24.6658 24.8815L25.0163 24.7005C25.6871 24.3539 26.3707 24.0006 27.0423 23.6821C27.2641 23.5452 27.4321 23.3351 27.5177 23.0872C27.5643 22.9196 27.6103 22.7526 27.6562 22.5858C27.8653 21.826 28.0738 21.0683 28.3447 20.264C28.4183 20.0241 28.3447 19.9209 28.107 20.0241C27.2158 20.4678 26.3056 20.926 25.4286 21.3818C25.1722 21.5173 24.9785 21.749 24.8892 22.027C24.7157 22.7525 24.5954 23.4607 24.475 24.1695C24.4469 24.3348 24.4188 24.5001 24.3901 24.6656C24.3592 24.8647 24.4638 24.9607 24.6777 24.8719L24.6658 24.8815ZM19.8498 27.3723C19.1131 27.7392 18.336 28.1087 17.5849 28.4589C17.4091 28.5596 17.2189 28.4828 17.2047 28.3198C17.0919 27.5715 17.0521 26.8139 17.0858 26.0578C17.111 25.9382 17.1623 25.8257 17.2359 25.7287C17.3095 25.6316 17.4036 25.5522 17.5113 25.4965C17.9737 25.269 18.4312 25.0343 18.8926 24.7976L18.8927 24.7976C19.2731 24.6024 19.6562 24.4059 20.0471 24.2108C20.2444 24.1004 20.3655 24.2203 20.337 24.4171C20.2345 25.2333 20.1837 26.0553 20.1849 26.8781C20.1793 26.9836 20.1452 27.0855 20.086 27.1726C20.0269 27.2598 19.9452 27.3289 19.8498 27.3723ZM13.8888 29.9715C14.7158 29.674 15.5246 29.3542 16.3153 29.012C16.408 28.9795 16.487 28.9163 16.5397 28.8328C16.5923 28.7491 16.6154 28.65 16.6052 28.5514C16.4985 27.8217 16.45 27.0845 16.4602 26.3471C16.4602 26.1264 16.3437 26.0472 16.1298 26.136C15.2885 26.5509 14.4282 26.9443 13.556 27.2729C13.4492 27.3146 13.3538 27.3819 13.2781 27.4687C13.2024 27.5555 13.1486 27.6595 13.1211 27.7718C13.1378 28.4653 13.2425 29.1537 13.4324 29.8204C13.451 29.8619 13.478 29.8991 13.5116 29.9295C13.5452 29.96 13.5848 29.9831 13.6276 29.9973C13.6706 30.0115 13.716 30.0165 13.7609 30.0121C13.8059 30.0076 13.8494 29.9938 13.8888 29.9715ZM23.2705 29.2019L23.2704 29.202L23.2703 29.2021C22.6413 29.5334 22.0097 29.8661 21.3647 30.1743L21.36 30.1791C21.3277 30.1988 21.291 30.2099 21.2534 30.2113C21.2157 30.2127 21.1782 30.2044 21.1447 30.1871C21.1111 30.1698 21.0825 30.1441 21.0615 30.1125C21.0405 30.0808 21.0279 30.0442 21.0249 30.0064C20.8986 29.2662 20.8192 28.5187 20.7872 27.7684C20.785 27.6651 20.8117 27.5631 20.8643 27.4745C20.9169 27.3858 20.9931 27.3139 21.0844 27.267C21.463 27.0741 21.838 26.8746 22.2131 26.6752L22.2131 26.6751L22.2135 26.675L22.2135 26.6749L22.2136 26.6749L22.2137 26.6748L22.2138 26.6748L22.2139 26.6748L22.214 26.6747L22.2141 26.6747L22.2141 26.6746L22.2142 26.6746L22.2143 26.6745L22.2144 26.6745L22.2145 26.6744L22.2146 26.6744L22.2147 26.6743L22.2147 26.6743L22.2148 26.6743L22.2149 26.6742L22.215 26.6742L22.2151 26.6741L22.2152 26.6741L22.2153 26.674L22.2153 26.674L22.2154 26.6739L22.2155 26.6739L22.2156 26.6738L22.2157 26.6738L22.2158 26.6737L22.2159 26.6737L22.2159 26.6737L22.216 26.6736L22.2161 26.6736L22.2162 26.6735L22.2163 26.6735L22.2164 26.6734C22.5912 26.4741 22.966 26.2748 23.3444 26.0821C23.3758 26.0582 23.4134 26.0443 23.4526 26.0422C23.4918 26.04 23.5308 26.0497 23.5645 26.0701C23.5981 26.0905 23.6251 26.1205 23.6417 26.1564C23.6585 26.1922 23.6641 26.2324 23.6582 26.2715C23.5978 27.0752 23.5819 27.8816 23.6106 28.687C23.6114 28.7843 23.5865 28.88 23.5385 28.9644C23.4905 29.0487 23.421 29.1186 23.3373 29.1668L23.2705 29.2019ZM18.2726 31.555C18.7151 31.3838 19.1365 31.195 19.5511 31.0094C19.8045 30.8959 20.0554 30.7835 20.307 30.677C20.3852 30.6394 20.4482 30.5756 20.4854 30.4966C20.5227 30.4175 20.5319 30.3279 20.5114 30.2428C20.3677 29.5145 20.2725 28.7772 20.2262 28.0361C20.2095 27.873 20.0669 27.7698 19.8697 27.8801C19.6496 27.9824 19.431 28.0863 19.2131 28.1899C18.6849 28.441 18.1609 28.6901 17.6309 28.9091C17.5433 28.9482 17.4694 29.0132 17.419 29.0953C17.3685 29.1775 17.3438 29.2732 17.3481 29.3698C17.489 30.0533 17.6675 30.7283 17.8829 31.3919C17.8958 31.4308 17.917 31.4664 17.9449 31.4963C17.9727 31.5262 18.0066 31.5498 18.0443 31.5652C18.0819 31.5807 18.1225 31.5878 18.1632 31.586C18.2037 31.5843 18.2436 31.5737 18.2797 31.555H18.2726ZM25.1624 31.844L24.8727 31.987L24.8775 31.9702C24.8448 31.9844 24.8094 31.9906 24.7738 31.9882C24.7384 31.9858 24.704 31.9748 24.6736 31.9563C24.643 31.9378 24.6174 31.9122 24.5988 31.8817C24.5801 31.8511 24.5689 31.8165 24.5662 31.7808C24.5067 31.395 24.4492 30.9963 24.392 30.5993L24.392 30.5992L24.392 30.5992L24.392 30.5992L24.392 30.5991L24.392 30.5991L24.392 30.5991L24.392 30.599L24.392 30.599L24.3919 30.599L24.3919 30.5989L24.3919 30.5989L24.3919 30.5989L24.3919 30.5988L24.3919 30.5988L24.3919 30.5987L24.3919 30.5986L24.3919 30.5984C24.3417 30.25 24.2916 29.9029 24.2405 29.5667C24.2316 29.4723 24.2492 29.3773 24.2912 29.2925C24.3333 29.2076 24.3981 29.1364 24.4783 29.0869C24.8593 28.9056 25.2351 28.7156 25.6155 28.5233L25.6157 28.5232L25.6158 28.5232C25.9042 28.3774 26.1954 28.2302 26.4936 28.0843C26.5258 28.0659 26.5625 28.0573 26.5995 28.0592C26.6364 28.0611 26.672 28.0736 26.7023 28.0952C26.7324 28.1169 26.7559 28.1468 26.7698 28.1814C26.7838 28.216 26.7877 28.2538 26.7811 28.2906C26.7918 28.6892 26.7965 29.0902 26.8013 29.4904V29.4906V29.4907C26.8061 29.8923 26.8108 30.2929 26.8215 30.6893C26.8275 30.779 26.8085 30.8687 26.7664 30.948C26.7244 31.0273 26.6612 31.0931 26.5838 31.1379C26.0975 31.3824 25.6291 31.6136 25.1624 31.844ZM0.6892 24.7134C1.43068 24.4464 2.15632 24.1593 2.86612 23.8522C2.94925 23.8231 3.02023 23.7665 3.06765 23.6917C3.11507 23.6168 3.13616 23.528 3.12754 23.4397C3.02987 22.7856 2.98537 22.1245 2.99445 21.4632C3.00634 21.264 2.89227 21.1921 2.69976 21.2712C1.94402 21.6454 1.17164 21.9908 0.389755 22.2931C0.293816 22.3307 0.208284 22.3911 0.140428 22.4692C0.0725722 22.5473 0.0243982 22.6408 0 22.7417C0.0159036 23.3627 0.109326 23.9793 0.278056 24.5766C0.294634 24.6143 0.31882 24.6479 0.349057 24.6755C0.379295 24.7031 0.414917 24.724 0.453636 24.7369C0.492355 24.7498 0.533314 24.7544 0.573882 24.7503C0.61445 24.7462 0.653731 24.7337 0.6892 24.7134ZM9.16522 23.9903C8.58296 24.2997 7.99358 24.6092 7.39468 24.897L7.38755 24.9066C7.35865 24.9244 7.32571 24.9344 7.29189 24.9356C7.25807 24.9368 7.22451 24.9292 7.19443 24.9136C7.16435 24.898 7.13878 24.8748 7.12015 24.8462C7.10153 24.8177 7.09049 24.7848 7.08811 24.7508C6.97215 24.087 6.89911 23.4163 6.86946 22.7431C6.86608 22.6502 6.88944 22.5585 6.93668 22.4789C6.98393 22.3993 7.05303 22.3352 7.13563 22.2945C7.4887 22.1157 7.83731 21.9298 8.18607 21.7439L8.18613 21.7438C8.51111 21.5706 8.83623 21.3972 9.16522 21.2295C9.19327 21.2085 9.22684 21.1966 9.26165 21.1951C9.29646 21.1935 9.33095 21.2024 9.36075 21.2206C9.39053 21.2389 9.41429 21.2656 9.42897 21.2975C9.44367 21.3294 9.44865 21.365 9.44326 21.3998C9.39029 22.1181 9.37681 22.8387 9.40287 23.5586C9.40576 23.6455 9.38518 23.7316 9.34332 23.8077C9.30146 23.8838 9.23989 23.9469 9.16522 23.9903ZM5.79162 25.6372L5.79164 25.6372C6.0113 25.5382 6.22926 25.44 6.44691 25.3472C6.51735 25.314 6.57413 25.257 6.60752 25.186C6.6409 25.1151 6.64882 25.0348 6.6299 24.9586C6.50191 24.3053 6.41617 23.6443 6.37323 22.9797C6.35897 22.8333 6.23064 22.7398 6.05478 22.8406C5.83095 22.9436 5.60894 23.049 5.38781 23.154L5.38759 23.1541C4.93962 23.3668 4.49523 23.5778 4.04659 23.7641C3.96719 23.7984 3.89995 23.8562 3.85371 23.9298C3.80747 24.0035 3.78441 24.0896 3.78754 24.1766C3.91139 24.7898 4.07009 25.3953 4.26286 25.9901C4.27422 26.0252 4.29304 26.0574 4.31802 26.0845C4.34299 26.1116 4.37351 26.1328 4.40746 26.1467C4.44139 26.1607 4.47793 26.167 4.51453 26.1652C4.55112 26.1634 4.58689 26.1536 4.61934 26.1363H4.62172C5.02171 25.984 5.40924 25.8094 5.79162 25.6372ZM9.8876 32.5056C9.28555 32.7664 8.66764 33.011 8.03389 33.2397L8.04577 33.2445C8.01551 33.2615 7.98207 33.272 7.94758 33.2752C7.91309 33.2784 7.87831 33.2745 7.84544 33.2634C7.81258 33.2523 7.78236 33.2344 7.75671 33.211C7.73105 33.1875 7.71052 33.1588 7.69641 33.127C7.55173 32.6179 7.47187 32.0924 7.45876 31.563C7.47893 31.4767 7.51984 31.3968 7.57787 31.3302C7.63589 31.2637 7.70926 31.2127 7.79148 31.1816C8.45692 30.9297 9.11285 30.6299 9.75926 30.3108C9.90899 30.2341 9.99693 30.306 9.99693 30.474C9.9896 31.0357 10.0269 31.5972 10.1086 32.153C10.117 32.2285 10.0997 32.3045 10.0595 32.3686C10.0193 32.4327 9.95869 32.4811 9.8876 32.5056ZM13.7482 33.3998C14.1717 33.2011 14.587 32.9825 15.0009 32.7646L15.001 32.7645C15.0865 32.7196 15.1719 32.6746 15.2573 32.6299C15.3219 32.5931 15.3755 32.5393 15.4123 32.4743C15.4491 32.4093 15.4678 32.3354 15.4665 32.2605C15.4432 31.6446 15.4551 31.0279 15.5021 30.4135C15.506 30.3839 15.5013 30.3539 15.4886 30.327C15.4759 30.3002 15.4557 30.2776 15.4305 30.2621C15.4053 30.2465 15.3763 30.2388 15.3468 30.2397C15.3172 30.2406 15.2887 30.2501 15.2644 30.2671C14.9891 30.4083 14.7165 30.5533 14.444 30.6983C14.1426 30.8586 13.8413 31.0189 13.5367 31.1739C13.4669 31.2097 13.4086 31.2648 13.3687 31.3328C13.3287 31.4007 13.3087 31.4787 13.3109 31.5576C13.3358 32.1312 13.3977 32.7025 13.4963 33.2679C13.4987 33.2967 13.5084 33.3244 13.5242 33.3483C13.5401 33.3722 13.5619 33.3917 13.5873 33.4049C13.6127 33.4181 13.641 33.4245 13.6696 33.4237C13.6981 33.4227 13.726 33.4146 13.7506 33.3998H13.7482ZM12.3495 34.0395C12.0345 34.18 11.7145 34.3226 11.3847 34.4507V34.4579C11.3573 34.4723 11.3272 34.4807 11.2962 34.4823C11.2654 34.4838 11.2345 34.4786 11.2059 34.4669C11.1771 34.4553 11.1513 34.4375 11.1301 34.4148C11.1089 34.3922 11.0928 34.3652 11.0828 34.3356C10.9175 33.829 10.7811 33.3131 10.6741 32.7908C10.6714 32.7164 10.6911 32.6429 10.7305 32.58C10.77 32.517 10.8273 32.4677 10.8951 32.4382C11.2812 32.2798 11.6619 32.0984 12.046 31.9154L12.0463 31.9153C12.2318 31.8269 12.4182 31.7381 12.6063 31.6514C12.756 31.5674 12.8771 31.6467 12.8771 31.7714C12.9139 32.3354 12.9878 32.8963 13.0982 33.4504C13.1132 33.5156 13.1056 33.5841 13.0765 33.6443C13.0476 33.7047 12.999 33.7531 12.9389 33.7815C12.7436 33.8639 12.5475 33.9513 12.3495 34.0395ZM10.5437 26.5226C10.9657 26.3225 11.3861 26.1109 11.8186 25.8931L12.0789 25.7621C12.1461 25.7203 12.2008 25.6605 12.2369 25.5895C12.2729 25.5184 12.289 25.4388 12.2833 25.3592C12.2738 24.9999 12.2696 24.6406 12.2655 24.2831C12.2613 23.9246 12.2571 23.5679 12.2477 23.2148C12.2542 23.1815 12.2511 23.147 12.2387 23.1155C12.2262 23.0841 12.205 23.0569 12.1776 23.0373C12.1501 23.0178 12.1177 23.0067 12.0841 23.0054C12.0506 23.0041 12.0174 23.0127 11.9886 23.03C11.7054 23.168 11.4296 23.3075 11.1563 23.4458C10.8309 23.6103 10.5091 23.7731 10.1824 23.9295C10.1111 23.9758 10.0544 24.0418 10.019 24.1196C9.98366 24.1974 9.97107 24.2837 9.98275 24.3685C10.0246 24.6476 10.066 24.9329 10.1075 25.219L10.1075 25.2191L10.1075 25.2191L10.1075 25.2191L10.1075 25.2191L10.1075 25.2192L10.1075 25.2192L10.1075 25.2192L10.1075 25.2192L10.1075 25.2193C10.1627 25.5995 10.2181 25.9814 10.2751 26.3523C10.2774 26.3843 10.2873 26.4153 10.3039 26.4427C10.3205 26.4701 10.3434 26.4931 10.3706 26.5097C10.3978 26.5264 10.4286 26.5363 10.4603 26.5385C10.492 26.5407 10.5239 26.5352 10.5531 26.5226H10.5437ZM6.73533 18.2577C6.18238 18.496 5.61994 18.7182 5.04798 18.9245H5.05035C4.99422 18.9531 4.92923 18.9579 4.86955 18.9381C4.80988 18.9184 4.76039 18.8755 4.7319 18.819C4.60058 18.3552 4.52791 17.8764 4.51562 17.3942C4.53319 17.3174 4.56866 17.246 4.6191 17.186C4.66954 17.1259 4.73347 17.0789 4.80557 17.0488C5.40922 16.8184 6.01048 16.5451 6.59749 16.2548C6.75434 16.1948 6.83514 16.25 6.83514 16.4035C6.8269 16.9164 6.86109 17.4291 6.93734 17.9363C6.94396 18.0049 6.92769 18.0738 6.8911 18.1321C6.85449 18.1903 6.79967 18.2345 6.73533 18.2577ZM11.5071 18.4217L11.5071 18.4217L11.6187 18.3627C11.6779 18.3298 11.727 18.2809 11.7605 18.2218C11.7941 18.1625 11.8108 18.095 11.8089 18.0269C11.7896 17.467 11.8008 16.9065 11.8422 16.3478C11.8461 16.3206 11.8421 16.2928 11.8303 16.2679C11.8186 16.243 11.7999 16.2222 11.7765 16.2081C11.7531 16.194 11.7261 16.1872 11.6988 16.1886C11.6716 16.1899 11.6454 16.1994 11.6236 16.2158C11.3811 16.3404 11.1411 16.468 10.9011 16.5956C10.6189 16.7457 10.3367 16.8958 10.0502 17.041C9.98711 17.0736 9.9344 17.1236 9.89824 17.1851C9.86207 17.2467 9.8439 17.3173 9.84584 17.3888C9.86787 17.9118 9.92424 18.4326 10.0146 18.948C10.0165 18.975 10.0253 19.001 10.0403 19.0235C10.0552 19.046 10.0756 19.0642 10.0996 19.0763C10.1235 19.0883 10.1502 19.094 10.177 19.0925C10.2038 19.0911 10.2297 19.0826 10.2522 19.0679L10.2451 19.0655C10.6813 18.8586 11.0916 18.6416 11.507 18.4218L11.507 18.4218L11.5071 18.4217ZM8.83871 19.7101C8.59195 19.8182 8.34518 19.9262 8.09842 20.0259L8.11981 20.0283C8.09482 20.042 8.06713 20.0499 8.03873 20.0515C8.01034 20.0532 7.98193 20.0485 7.95558 20.0376C7.92921 20.0268 7.90554 20.0103 7.88627 19.9892C7.86701 19.9681 7.85261 19.9429 7.84412 19.9155C7.69322 19.4545 7.56864 18.9852 7.47101 18.5099C7.46898 18.4423 7.48718 18.3758 7.52322 18.3189C7.55926 18.262 7.61145 18.2174 7.67301 18.1909C7.99952 18.054 8.32228 17.9 8.64717 17.7451L8.64719 17.7451C8.84019 17.653 9.03393 17.5606 9.22966 17.4712C9.35799 17.3945 9.46731 17.4664 9.46731 17.5792C9.50151 18.0946 9.56819 18.6074 9.66694 19.1144C9.68148 19.1736 9.67521 19.2362 9.64921 19.2912C9.62321 19.3463 9.57908 19.3907 9.52435 19.4166C9.2958 19.51 9.06726 19.6101 8.83871 19.7101ZM12.6868 20.3269C13.079 20.135 13.4711 19.9431 13.8751 19.7392C13.9276 19.7065 13.9701 19.66 13.9982 19.6045C14.0263 19.5491 14.0388 19.487 14.0343 19.4249C14.029 19.1771 14.0261 18.9268 14.0232 18.676L14.0232 18.6758L14.0232 18.6757L14.0232 18.6756L14.0232 18.6754L14.0231 18.6753L14.0231 18.6751L14.0231 18.675L14.0231 18.6748L14.0231 18.6747L14.0231 18.6745L14.0231 18.6744L14.0231 18.6742L14.0231 18.6741L14.0231 18.674L14.0231 18.6739L14.0231 18.6737L14.0231 18.6736L14.0231 18.6735L14.0231 18.6733L14.0231 18.6732L14.0231 18.6731L14.0231 18.6729V18.6729V18.6728V18.6728V18.6728V18.6728V18.6727V18.6727V18.6727V18.6727V18.6726V18.6726V18.6726V18.6726V18.6726V18.6725V18.6725V18.6725V18.6725V18.6724V18.6724C14.0196 18.3687 14.016 18.0642 14.0082 17.7627C14.0129 17.7372 14.0103 17.7107 14.0005 17.6867C13.9909 17.6626 13.9747 17.6417 13.9537 17.6267C13.9328 17.6116 13.908 17.6028 13.8823 17.6014C13.8566 17.6 13.8311 17.6061 13.8086 17.6187C13.6995 17.6738 13.5911 17.7289 13.4832 17.7837L13.482 17.7843L13.4816 17.7845L13.4814 17.7846L13.4811 17.7848C13.1199 17.9683 12.7646 18.1489 12.4064 18.3168C12.3501 18.352 12.3049 18.4028 12.2763 18.4632C12.2476 18.5235 12.2367 18.591 12.2448 18.6574C12.2829 18.9092 12.3203 19.1683 12.3577 19.4273C12.3951 19.6864 12.4326 19.9455 12.4706 20.1973C12.4726 20.2221 12.4806 20.2459 12.4936 20.2671C12.5067 20.2881 12.5246 20.3056 12.5457 20.3183C12.5668 20.3309 12.5906 20.3384 12.6152 20.3398C12.6398 20.3414 12.6643 20.3369 12.6868 20.3269ZM23.946 32.4279C23.3852 32.7061 22.8243 32.9819 22.2825 33.2434L22.2801 33.2482C22.2443 33.2588 22.2069 33.262 22.1699 33.2578C22.1329 33.2537 22.0971 33.2421 22.0646 33.2238C22.032 33.2055 22.0034 33.1808 21.9804 33.1512C21.9575 33.1216 21.9406 33.0877 21.9308 33.0515C21.7074 32.411 21.4886 31.7322 21.2724 31.051C21.2521 30.9662 21.2614 30.877 21.2986 30.7984C21.3358 30.7198 21.3987 30.6564 21.4768 30.6192C21.7777 30.4752 22.0801 30.3234 22.3826 30.1715C22.7301 29.997 23.0776 29.8225 23.4232 29.6597C23.4524 29.6388 23.4865 29.626 23.5223 29.6228C23.5579 29.6197 23.5938 29.626 23.6262 29.6414C23.6586 29.6568 23.6863 29.6806 23.7066 29.7103C23.727 29.7401 23.739 29.7748 23.7417 29.8109C23.795 30.1265 23.8525 30.4405 23.9096 30.7522C23.9875 31.1771 24.0646 31.5977 24.129 32.0128C24.1463 32.0927 24.1378 32.1759 24.1049 32.2505C24.072 32.3252 24.0163 32.3873 23.946 32.4279ZM19.5997 34.2856C20.1891 34.0937 20.7879 33.861 21.3417 33.6235C21.376 33.6111 21.4074 33.5918 21.4339 33.5667C21.4605 33.5415 21.4817 33.5111 21.4962 33.4774C21.5107 33.4437 21.5182 33.4073 21.5181 33.3705C21.5181 33.3338 21.5107 33.2975 21.4961 33.2637C21.3564 32.8744 21.2224 32.4784 21.0902 32.088C20.9977 31.8146 20.9061 31.5438 20.8141 31.28C20.8015 31.2412 20.7806 31.2055 20.7529 31.1756C20.7253 31.1457 20.6914 31.1223 20.6539 31.107C20.6163 31.0917 20.5758 31.0849 20.5353 31.0869C20.4949 31.0891 20.4554 31.1001 20.4196 31.1193C20.193 31.2152 19.9684 31.3139 19.7438 31.4126L19.7437 31.4126L19.7437 31.4126L19.7436 31.4126L19.7436 31.4127L19.7436 31.4127L19.7435 31.4127L19.7435 31.4127L19.7434 31.4127L19.7434 31.4128L19.7434 31.4128L19.7433 31.4128L19.7433 31.4128L19.7432 31.4128L19.7432 31.4128L19.7432 31.4129L19.7431 31.4129L19.7431 31.4129L19.743 31.4129L19.743 31.4129C19.3104 31.603 18.8776 31.7932 18.4304 31.9637C18.3958 31.9791 18.3648 32.0014 18.3391 32.0293C18.3132 32.0572 18.2934 32.0901 18.2805 32.1259C18.2677 32.1618 18.262 32.1998 18.2641 32.2379C18.2662 32.2759 18.2759 32.3133 18.2925 32.3475L18.2949 32.3523L18.2949 32.3523C18.5841 32.9408 18.8734 33.5292 19.2028 34.1224C19.2378 34.1938 19.2974 34.2499 19.3706 34.28C19.4437 34.31 19.5252 34.312 19.5997 34.2856ZM18.5926 34.6155C17.9629 34.8026 17.3068 34.9825 16.5939 35.1168H16.601C16.5118 35.1363 16.419 35.132 16.3318 35.1042C16.2448 35.0765 16.1663 35.0262 16.1043 34.9586L16.037 34.8659L16.0369 34.8658C15.679 34.3737 15.3204 33.8808 14.985 33.373C14.9018 33.2578 14.9635 33.1067 15.1727 33.0564C15.9285 32.8501 16.6581 32.6246 17.3544 32.3848C17.4295 32.3523 17.5137 32.3491 17.5909 32.3757C17.6681 32.4022 17.7329 32.4568 17.7727 32.5286L18.7233 34.2725C18.7447 34.302 18.7585 34.3364 18.7634 34.3727C18.7682 34.409 18.7639 34.4459 18.7508 34.4801C18.7378 34.5142 18.7165 34.5446 18.6889 34.5682C18.6612 34.5918 18.6281 34.6081 18.5926 34.6155ZM23.7289 35.9901C23.9025 35.9159 24.0839 35.8425 24.2675 35.7681C24.5592 35.65 24.8568 35.5295 25.1382 35.4C25.1992 35.3587 25.243 35.2964 25.2614 35.2248C25.2798 35.1532 25.2714 35.0773 25.2381 35.0114C25.1184 34.7176 25.0036 34.4208 24.888 34.1218C24.7487 33.7616 24.6081 33.3981 24.4562 33.0325C24.4455 32.9967 24.4273 32.9637 24.4026 32.9359C24.3781 32.908 24.3478 32.8858 24.3138 32.871C24.2799 32.8561 24.2431 32.8489 24.2062 32.8498C24.1692 32.8509 24.1328 32.86 24.0997 32.8765C23.8312 33.0054 23.5528 33.1331 23.2737 33.2612L23.2736 33.2612L23.2732 33.2614L23.273 33.2615C22.9915 33.3906 22.7093 33.5201 22.4361 33.6513C22.4035 33.6674 22.375 33.6908 22.3527 33.7198C22.3304 33.7487 22.315 33.7825 22.3076 33.8184C22.3003 33.8543 22.3012 33.8914 22.3103 33.9269C22.3194 33.9624 22.3364 33.9953 22.36 34.0232C22.5769 34.4575 22.8176 34.8775 23.0568 35.2949L23.0569 35.2952C23.1558 35.4678 23.2545 35.64 23.3511 35.8126C23.3869 35.878 23.4422 35.9305 23.5092 35.9623C23.5762 35.9942 23.6515 36.0039 23.7242 35.9901H23.7289ZM20.4944 36.9877C19.9169 37.1005 19.3013 37.2084 18.6668 37.2924V37.2876C18.5777 37.2955 18.488 37.2856 18.4028 37.2584C18.3175 37.2312 18.2385 37.1873 18.1701 37.1293C18.0403 37.0039 17.912 36.8814 17.7847 36.7598L17.7844 36.7595L17.7844 36.7595L17.7844 36.7595L17.7842 36.7593L17.7839 36.759C17.4245 36.4157 17.0736 36.0805 16.7228 35.7141C16.6063 35.5942 16.68 35.4646 16.844 35.4502C17.545 35.3207 18.189 35.1576 18.8189 34.9704C18.8996 34.9557 18.9829 34.9635 19.0596 34.9931C19.1362 35.0227 19.2035 35.0729 19.2538 35.1383C19.4745 35.3946 19.6898 35.6551 19.9052 35.9155L19.9052 35.9156C20.1212 36.1768 20.3372 36.4381 20.5586 36.6951C20.6583 36.8319 20.618 36.9662 20.4944 36.9877ZM27.4545 37.82C27.6589 37.7387 27.859 37.6518 28.0583 37.5654C28.2529 37.4809 28.4467 37.3969 28.6428 37.3187C28.6935 37.276 28.7268 37.216 28.7365 37.15C28.7462 37.0841 28.7314 37.0169 28.695 36.9612L28.6938 36.9586C28.3924 36.307 28.091 35.6555 27.8299 35.0111C27.7539 34.8576 27.6089 34.7545 27.4782 34.8144C27.2456 34.915 27.0054 35.0304 26.7621 35.1473L26.762 35.1474C26.5355 35.2562 26.3064 35.3663 26.0785 35.4668C25.9715 35.5124 25.9311 35.6468 26.0262 35.8243C26.143 36.0153 26.2601 36.2058 26.3768 36.3956C26.6278 36.8041 26.8768 37.2093 27.117 37.6089C27.145 37.6728 27.1911 37.7268 27.2495 37.7643C27.3078 37.8019 27.3758 37.8212 27.445 37.82H27.4545ZM24.8147 38.7274C24.3775 38.8425 23.9402 38.9553 23.4482 39.0416H23.434C23.3581 39.0464 23.2821 39.036 23.2102 39.0109C23.1384 38.9857 23.0722 38.9465 23.0157 38.8953C22.5123 38.4261 22.0362 37.9279 21.5898 37.4033C21.4899 37.2666 21.5066 37.1466 21.6372 37.0866C21.7128 37.0661 21.7877 37.0459 21.8621 37.0259L21.8626 37.0258C22.3005 36.9079 22.7188 36.7952 23.125 36.6476C23.2041 36.6362 23.2847 36.6478 23.3575 36.6809C23.4303 36.714 23.4923 36.7675 23.5361 36.8348C23.9331 37.3793 24.3703 37.931 24.8147 38.4444C24.9407 38.5643 24.9383 38.7057 24.8147 38.7274ZM29.4362 40.3549C29.795 40.2278 30.1491 40.1007 30.4747 39.9687C30.5602 39.9424 30.5389 39.8176 30.4391 39.6809L29.1795 37.9514C29.063 37.7907 28.9418 37.6707 28.8348 37.7116C28.4612 37.8928 28.0761 38.0489 27.6822 38.1793C27.5752 38.2249 27.5515 38.3832 27.6514 38.5175C27.9457 38.8907 28.252 39.2398 28.5605 39.5915C28.7279 39.7822 28.8959 39.9736 29.063 40.1702C29.1842 40.2902 29.3529 40.3765 29.4362 40.3501V40.3549ZM28.476 40.6489L28.476 40.649C28.228 40.7234 27.9799 40.7979 27.7157 40.8509H27.7086C27.6352 40.8548 27.5618 40.8423 27.4937 40.8146C27.4255 40.7868 27.3642 40.7444 27.3141 40.6902C27.2042 40.5814 27.0928 40.4723 26.9809 40.3629L26.9807 40.3626L26.9806 40.3625C26.5771 39.9677 26.1695 39.5688 25.8216 39.167C25.7241 39.0302 25.7028 38.9055 25.8097 38.8623L25.8901 38.8363L26.0154 38.7958L26.0216 38.7938L26.0235 38.7932C26.3663 38.6827 26.6967 38.5762 27.0337 38.445C27.1168 38.4161 27.2618 38.5193 27.3829 38.6392C27.7784 39.1301 28.2228 39.6135 28.6508 40.0791L28.809 40.2512C28.9064 40.388 28.9277 40.5127 28.8446 40.5414C28.7205 40.5755 28.5983 40.6122 28.476 40.6489ZM26.6101 41.0586L26.6102 41.0586C26.7607 41.0357 26.9086 41.0132 27.0534 40.9928C27.1533 40.9928 27.1319 40.8633 27.0107 40.7528C26.4831 40.2731 25.9785 39.7711 25.4969 39.2465C25.4518 39.1905 25.3949 39.1455 25.3303 39.1147C25.2657 39.084 25.1951 39.0684 25.1237 39.069C24.6864 39.1817 24.2325 39.2753 23.7785 39.3665C23.655 39.388 23.6598 39.4888 23.7785 39.6063C24.2657 40.0861 24.7767 40.549 25.3257 41.0167C25.4527 41.1118 25.6032 41.1699 25.7606 41.1846L25.763 41.1774C26.0529 41.1434 26.3358 41.1003 26.6099 41.0586H26.61L26.61 41.0586L26.6101 41.0586L26.6101 41.0586ZM25.0155 41.2416C24.5282 41.2872 24.0078 41.2872 23.4849 41.2872H23.4754C23.2936 41.2504 23.1212 41.176 22.9692 41.0689C22.4226 40.6395 21.8831 40.2342 21.3057 39.8215C21.1844 39.7016 21.1963 39.6225 21.3199 39.6009C21.869 39.5976 22.4171 39.5535 22.9597 39.4689C23.1279 39.4771 23.288 39.545 23.4112 39.6609L23.4151 39.6644C23.9248 40.1261 24.4345 40.5878 24.9655 41.0305C25.1271 41.1576 25.1318 41.2584 25.0155 41.2416ZM31.7815 42.6687C32.1052 42.6012 32.4232 42.5073 32.732 42.388C32.7939 42.388 32.751 42.2705 32.6108 42.1289C32.0557 41.6417 31.5473 41.1029 31.0922 40.5195C30.971 40.3995 30.826 40.2964 30.7595 40.3467C30.4221 40.457 30.0846 40.5674 29.7257 40.6922C29.6426 40.7209 29.6639 40.8456 29.7851 40.9655C30.276 41.5252 30.8143 42.0405 31.394 42.5056C31.539 42.6087 31.7054 42.695 31.7886 42.6687H31.7815ZM30.6493 42.9246C30.4881 42.951 30.3306 42.9769 30.1835 43.0089L30.1811 43.0137C30.022 43.0067 29.8693 42.9478 29.7462 42.8458C29.1661 42.397 28.6108 41.9165 28.0825 41.4067C27.978 41.3203 27.9328 41.2123 28.0398 41.1667C28.1631 41.1367 28.291 41.1072 28.4212 41.0772L28.4217 41.077C28.6653 41.0209 28.917 40.9629 29.1615 40.8957C29.2292 40.892 29.2968 40.9042 29.359 40.9312C29.4213 40.9583 29.4765 40.9995 29.5203 41.0516C30.0117 41.5975 30.5432 42.105 31.1103 42.57C31.2719 42.69 31.3171 42.8099 31.2553 42.8099C31.0563 42.8578 30.85 42.8916 30.6493 42.9246ZM28.3255 43.1669C28.7329 43.1675 29.1398 43.1354 29.5422 43.071C29.642 43.071 29.5922 42.999 29.4305 42.8719C28.8601 42.421 28.3492 41.9579 27.8216 41.4735C27.6767 41.3703 27.4936 41.26 27.3867 41.3056L27.3752 41.3072L27.3751 41.3072C26.9702 41.3642 26.5649 41.4212 26.12 41.4735C26.0202 41.4735 26.0463 41.5622 26.1676 41.6821C26.6248 42.0075 27.0762 42.3582 27.5194 42.7026C27.6382 42.7949 27.7563 42.8867 27.8739 42.9774C28.0096 43.0718 28.1635 43.1365 28.3255 43.1669ZM27.6269 43.1576C27.1681 43.148 26.6929 43.1145 26.1772 43.0761C26.0028 43.0437 25.8363 42.9768 25.6876 42.8793L25.6814 42.8752L25.6812 42.8751C25.0821 42.4808 24.4829 42.0865 23.8624 41.7088C23.7174 41.6057 23.7079 41.5456 23.8481 41.5456C24.3602 41.5663 24.842 41.5455 25.3224 41.5247L25.3929 41.5217C25.5503 41.5365 25.7008 41.5946 25.8278 41.6896C26.1164 41.8958 26.4039 42.1116 26.6914 42.3274L26.6917 42.3276L26.692 42.3279C26.9795 42.5437 27.2669 42.7595 27.5556 42.9657C27.6768 43.0857 27.7266 43.1576 27.6269 43.1576ZM34.4387 44.8352C34.7408 44.7865 35.0393 44.7176 35.3323 44.6289C35.3941 44.6289 35.3038 44.545 35.1422 44.4178C34.5551 43.9381 34.011 43.4368 33.4501 42.9042C33.3289 42.7843 33.1602 42.698 33.077 42.7268C32.7765 42.8344 32.4692 42.9217 32.1573 42.9882C32.055 42.9882 32.1382 43.1058 32.2618 43.2281C32.5552 43.4679 32.8438 43.7076 33.1323 43.9473L33.1326 43.9476L33.1329 43.9478L33.1332 43.948L33.1334 43.9482L33.1337 43.9485C33.4222 44.1881 33.7106 44.4277 34.0038 44.6673C34.1382 44.7479 34.2853 44.8047 34.4387 44.8352ZM33.9308 44.8971C33.5877 44.9512 33.2418 44.9857 32.8947 45.0002C32.8092 45.029 32.6261 44.9186 32.4978 44.8395C31.8632 44.3981 31.2691 43.9616 30.6583 43.5034C30.5133 43.4003 30.4872 43.3164 30.5704 43.2899C30.9174 43.2419 31.2881 43.1772 31.6185 43.1076C31.7704 43.1302 31.9133 43.194 32.032 43.2923C32.2481 43.4624 32.4692 43.6446 32.6933 43.8293L32.6933 43.8293C33.0508 44.1239 33.4159 44.4249 33.7811 44.6932C33.9308 44.8179 34.0093 44.8971 33.9308 44.8971ZM29.0051 44.7657C29.1988 44.7874 29.3914 44.8155 29.5812 44.8431H29.5812H29.5812L29.5813 44.8431C29.8734 44.8856 30.1587 44.9272 30.431 44.9432C30.5474 44.9623 30.4976 44.8928 30.355 44.7896C30.2386 44.717 30.1229 44.6451 30.0078 44.5736L30.0076 44.5735C29.4876 44.2503 28.9785 43.934 28.4727 43.5903C28.3233 43.5099 28.1633 43.4517 27.9973 43.4176C27.5204 43.4166 27.0441 43.3838 26.5715 43.3193C26.4526 43.3001 26.4811 43.384 26.6095 43.4656C27.2083 43.8614 27.8549 44.2236 28.5108 44.5858C28.6733 44.6683 28.8458 44.7287 29.0241 44.7657H29.0051ZM38.3855 46.6364C38.1096 46.6848 37.8311 46.7161 37.5513 46.73C37.3921 46.7236 37.2393 46.6646 37.1164 46.5621C36.6225 46.2875 36.1437 45.9845 35.662 45.6797C35.4578 45.5505 35.2531 45.4209 35.0465 45.2931C34.873 45.2067 34.8112 45.1156 34.873 45.1035C35.0003 45.0818 35.1247 45.056 35.247 45.0307L35.2472 45.0307L35.2473 45.0306L35.2474 45.0306C35.4218 44.9945 35.5918 44.9592 35.7594 44.938C35.915 44.9605 36.0636 45.0179 36.1943 45.1059C36.8502 45.5306 37.5229 45.9767 38.1978 46.4253C38.3855 46.5332 38.4473 46.6244 38.3855 46.6364ZM34.7013 46.729L34.7017 46.729L34.7019 46.729C34.9291 46.7478 35.1508 46.7661 35.3684 46.7766C35.4444 46.7886 35.3969 46.7214 35.2282 46.635C34.7127 46.3248 34.1918 46.0366 33.6632 45.7443C33.4972 45.6525 33.3305 45.5603 33.1629 45.4668C33.0168 45.3794 32.8554 45.3208 32.6876 45.2941C32.3074 45.2941 31.9485 45.2798 31.4994 45.2534C31.4043 45.2198 31.4328 45.3037 31.5992 45.3901C32.2218 45.7691 32.9086 46.1385 33.5931 46.5055C33.7564 46.5862 33.9287 46.6466 34.1064 46.6854H34.1208C34.3185 46.6974 34.5118 46.7133 34.7013 46.729ZM33.4094 46.6136L31.9621 46.3905H31.9502C31.7585 46.3532 31.5724 46.2911 31.3964 46.2058C30.7691 45.8604 30.1227 45.503 29.4763 45.1407C29.3098 45.0544 29.298 44.9921 29.4168 45.0112C29.8911 45.0831 30.3866 45.1381 30.8397 45.1884L30.8428 45.1887C31.0068 45.2134 31.1622 45.2793 31.2943 45.3807C31.917 45.7572 32.6013 46.1266 33.293 46.4553C33.4593 46.5416 33.5092 46.6136 33.4094 46.6136Z" fill="#333333"/>
</svg>
