<svg width="154" height="54" viewBox="0 0 154 54" fill="none" xmlns="http://www.w3.org/2000/svg">
<rect x="1" y="1.02063" width="152" height="51" stroke="#333333" stroke-width="2"/>
<path d="M38.304 36.0206V20.2906H41.802L48.424 31.6646V20.2906H51.086V36.0206H48.05L40.966 23.9646V36.0206H38.304ZM59.4721 36.2406C56.0841 36.2406 53.6421 34.0186 53.6421 30.3886V30.2126C53.6421 26.6486 56.0841 24.2726 59.3621 24.2726C62.2221 24.2726 64.7961 25.9666 64.7961 30.0806V30.8506H56.3701C56.4581 33.0286 57.5581 34.2606 59.5381 34.2606C61.1441 34.2606 61.9801 33.6226 62.1781 32.5006H64.7521C64.3781 34.9206 62.4201 36.2406 59.4721 36.2406ZM56.4141 29.0686H62.1561C62.0241 27.0886 61.0121 26.2086 59.3621 26.2086C57.7561 26.2086 56.6781 27.2866 56.4141 29.0686ZM65.6222 36.0206L69.6262 30.1246L65.8862 24.5146H68.9662L71.3642 28.2326L73.7402 24.5146H76.5342L72.8162 29.9266L76.9302 36.0206H73.8282L71.1442 31.8626L68.3942 36.0206H65.6222ZM82.8203 36.2186C80.5323 36.2186 79.3443 34.9866 79.3443 32.8086V26.5166H77.8043V24.5146H79.3443V21.9846H82.0063V24.5146H84.5363V26.5166H82.0063V32.5666C82.0063 33.5786 82.4903 34.0406 83.3263 34.0406C83.8543 34.0406 84.2503 33.9746 84.6243 33.8206V35.9326C84.2063 36.0866 83.6343 36.2186 82.8203 36.2186Z" fill="#333333"/>
<path d="M107.93 20.4506L114 26.5206L107.93 32.5906" stroke="#333333" stroke-width="1.5" stroke-miterlimit="10" stroke-linecap="round" stroke-linejoin="round"/>
<path d="M97 26.5206H113.83" stroke="#333333" stroke-width="1.5" stroke-miterlimit="10" stroke-linecap="round" stroke-linejoin="round"/>
</svg>
