<svg width="154" height="54" viewBox="0 0 154 54" fill="none" xmlns="http://www.w3.org/2000/svg">
<rect x="1" y="1.02063" width="152" height="51" stroke="#333333" stroke-width="2"/>
<path d="M47.07 20.4506L41 26.5206L47.07 32.5906" stroke="#333333" stroke-width="1.5" stroke-miterlimit="10" stroke-linecap="round" stroke-linejoin="round"/>
<path d="M57.9999 26.5206H41.1699" stroke="#333333" stroke-width="1.5" stroke-miterlimit="10" stroke-linecap="round" stroke-linejoin="round"/>
<path d="M71.304 36.0206V20.2906H76.364C79.884 20.2906 82.194 21.8526 82.194 25.1526V25.2406C82.194 28.5626 79.796 30.0366 76.43 30.0366H74.23V36.0206H71.304ZM74.23 27.9246H76.364C78.3 27.9246 79.334 26.9786 79.334 25.2406V25.1526C79.334 23.2826 78.234 22.5566 76.364 22.5566H74.23V27.9246ZM84.4903 36.0206V24.5146H87.1523V26.6706C87.8783 25.2186 88.9563 24.3606 90.8923 24.3386V26.8246C88.5602 26.8466 87.1523 27.5946 87.1523 30.0366V36.0206H84.4903ZM98.0581 36.2406C94.6701 36.2406 92.2281 34.0186 92.2281 30.3886V30.2126C92.2281 26.6486 94.6701 24.2726 97.9481 24.2726C100.808 24.2726 103.382 25.9666 103.382 30.0806V30.8506H94.9561C95.0441 33.0286 96.1441 34.2606 98.1241 34.2606C99.7301 34.2606 100.566 33.6226 100.764 32.5006H103.338C102.964 34.9206 101.006 36.2406 98.0581 36.2406ZM95.0001 29.0686H100.742C100.61 27.0886 99.5981 26.2086 97.9481 26.2086C96.3421 26.2086 95.2641 27.2866 95.0001 29.0686ZM108.559 36.0206L104.357 24.5146H107.217L110.231 33.2926L113.201 24.5146H115.819L111.661 36.0206H108.559Z" fill="#333333"/>
</svg>
