<svg width="86" height="100" viewBox="0 0 86 100" fill="none" xmlns="http://www.w3.org/2000/svg">
<path fill-rule="evenodd" clip-rule="evenodd" d="M85.7607 0.00012207H0.239258V44.5812H77.8845L85.7607 52.4462V0.00012207ZM18.5161 25.2169V30.5855C18.5161 33.8055 16.9229 35.3987 13.7029 35.3987H12.738C9.51799 35.3987 7.9248 33.8055 7.9248 30.5855V13.8514C7.9248 10.6314 9.51799 9.03821 12.738 9.03821H13.7029C16.8837 9.03821 18.4376 10.5921 18.4376 13.7729V18.4346H15.5541V13.7C15.5541 12.3704 14.9258 11.7365 13.5907 11.7365H12.8502C11.5151 11.7365 10.8868 12.3648 10.8868 13.7V30.7257C10.8868 32.0608 11.5151 32.6891 12.8502 32.6891H13.6636C14.9988 32.6891 15.6271 32.0608 15.6271 30.7257V25.2113H18.5161V25.2169ZM30.9129 9.26282V20.5497H26.0997V9.26282H23.1377V35.1689H26.0997V23.3266H30.9129V35.1689H33.8749V9.26282H30.9129ZM46.3008 35.1686L45.6725 30.8378H40.8985L40.3039 35.1686H37.4541L41.4539 9.18958H45.2293L49.2235 35.1686H46.3008ZM41.2688 28.1731H45.3022L43.2659 13.8121L41.2688 28.1731ZM56.2523 32.4313V9.26282H53.2959V35.1689H62.7484V32.4313H56.2523ZM74.2153 35.1689L69.088 22.4402V35.1689H66.126V9.26282H69.088V21.8063L74.4734 9.26282H77.6205L72.078 21.9915L77.469 35.1689H74.2153ZM76.5774 47.5538H0.239258V99.9999L8.11542 92.1349H85.7607V56.6024L76.5774 47.5538ZM18.8926 73.544V77.9084C18.8926 81.1284 17.2995 82.7216 14.0794 82.7216H8.11621V56.8156H14.0065C17.2265 56.8156 18.8197 58.4087 18.8197 61.6288V65.4434C18.8197 67.7378 18.04 68.9215 16.5646 69.4769C18.0792 70.0659 18.8926 71.2496 18.8926 73.544ZM13.9336 59.4802H11.0389V68.1754H13.7092C15.1902 68.1754 15.8914 67.4742 15.8914 65.9932V61.4436C15.897 60.1141 15.2687 59.4802 13.9336 59.4802ZM11.0445 80.057H14.0065C15.3416 80.057 15.9699 79.4287 15.9699 78.0935V72.9886C15.9699 71.5076 15.2687 70.8064 13.7877 70.8064H11.0445V80.057ZM28.1814 82.9458H29.2921C32.5121 82.9458 34.0997 81.3526 34.1053 78.1326V61.4042C34.1053 58.1841 32.5121 56.5909 29.2921 56.5909H28.1814C24.9613 56.5909 23.3682 58.1841 23.3682 61.4042V78.1326C23.3682 81.3526 24.9613 82.9458 28.1814 82.9458ZM28.2936 59.2949H29.1799C30.5094 59.2949 31.1433 59.9288 31.1433 61.2583V78.284C31.1433 79.6192 30.5151 80.2475 29.1799 80.2475H28.2936C26.9584 80.2475 26.3301 79.6192 26.3301 78.284V61.2583C26.3301 59.9232 26.9584 59.2949 28.2936 59.2949ZM46.3008 82.7213L45.6725 78.3905H40.8985L40.3039 82.7213H37.4541L41.4539 56.7423H45.2293L49.2235 82.7213H46.3008ZM41.2688 75.7315H45.3022L43.2659 61.3704L41.2688 75.7315ZM63.042 82.7834V74.0489C63.042 72.0518 62.3351 71.014 60.7139 70.5821C62.1949 69.9874 63.0083 68.843 63.0083 66.5094V61.6961C63.0083 58.4761 61.4151 56.8829 58.1951 56.8829H52.6807V82.789H55.6426V71.906H57.8249C59.3788 71.906 60.08 72.6072 60.08 74.1611V82.7834H63.042ZM55.6426 59.5812H58.0829C59.4124 59.5812 60.0407 60.2095 60.0463 61.5391V67.0928C60.0463 68.5738 59.3451 69.275 57.8641 69.275H55.6426V59.5812ZM67.3604 56.8156H72.2072C76.0948 56.8156 77.9461 58.6668 77.9461 62.5544V76.9884C77.9461 80.876 76.0948 82.7272 72.2072 82.7272H67.3604V56.8156ZM70.3167 80.0233H72.0558C74.0528 80.0233 74.9785 79.0248 74.9785 77.0277V62.5207C74.9785 60.5236 74.0528 59.5251 72.0558 59.5251H70.3167V80.0233Z" fill="#4A4A4A"/>
</svg>
