<svg width="226" height="40" viewBox="0 0 226 40" fill="none" xmlns="http://www.w3.org/2000/svg">
<path fill-rule="evenodd" clip-rule="evenodd" d="M75.2299 9.13062V12.5436H78.7414V9.13062H75.2299ZM75.2299 15.3951V29.17H78.7414V15.3951H75.2299ZM64.9126 12.4303V29.17H68.5674V12.4303H74.0299V9.13062H59.4502V12.4303H64.9126ZM92.2402 29.17V27.6187C91.0203 28.8302 89.4398 29.5098 87.7408 29.5098C83.9478 29.5098 80.5794 26.6288 80.5794 22.285C80.5794 17.9413 83.9478 15.0602 87.7408 15.0602C89.3559 15.0602 90.8524 15.6807 92.0723 16.8085V9.13062H95.5838V29.17H92.2402ZM92.0723 22.482V22.1126C91.9883 19.7438 90.2893 18.1629 88.0816 18.1629C85.8196 18.1629 84.091 19.857 84.091 22.285C84.091 24.713 85.8196 26.4071 88.0816 26.4071C90.2893 26.4022 91.9883 24.8213 92.0723 22.482ZM104.31 15.06C100.433 15.06 97.46 18.0248 97.46 22.2848C97.46 26.5449 100.379 29.5096 104.933 29.5047C106.859 29.5047 108.642 28.8596 109.97 27.9829V24.8507L105.16 26.6286C102.893 26.6286 101.253 25.5599 100.942 23.4963H110.963V20.4774C110.257 17.1777 107.822 15.06 104.31 15.06ZM107.708 20.8123H100.912C101.228 18.9802 102.527 17.9903 104.31 17.9903C106.093 17.9903 107.367 18.8916 107.708 20.8123ZM112.964 34.8089V15.3949H116.302V16.9758C117.522 15.7594 119.108 15.0551 120.802 15.0551C124.595 15.0551 127.963 17.9362 127.963 22.2799C127.963 26.6237 124.595 29.5048 120.802 29.5048C119.187 29.5048 117.69 28.8842 116.47 27.781V34.8089H112.964ZM124.452 22.2849C124.452 19.8569 122.728 18.1627 120.461 18.1627C118.253 18.1627 116.554 19.7436 116.47 22.1125V22.2849C116.47 24.7128 118.199 26.407 120.461 26.407C122.728 26.4021 124.452 24.7079 124.452 22.2849ZM136.511 15.06C132.55 15.06 129.009 17.9361 129.009 22.2848C129.009 26.6286 132.545 29.5096 136.511 29.5096C140.472 29.5096 144.013 26.6286 144.013 22.2848C144.013 17.9411 140.472 15.06 136.511 15.06ZM136.511 18.1627C138.773 18.1627 140.502 19.8568 140.502 22.2848C140.502 24.7079 138.773 26.402 136.511 26.407C134.249 26.407 132.52 24.7128 132.52 22.2848C132.52 19.8568 134.249 18.1627 136.511 18.1627ZM145.046 22.2848C145.046 17.9361 148.587 15.06 152.548 15.06C156.509 15.06 160.05 17.9411 160.05 22.2848C160.05 26.6286 156.509 29.5096 152.548 29.5096C148.582 29.5096 145.046 26.6286 145.046 22.2848ZM156.538 22.2848C156.538 19.8568 154.81 18.1627 152.548 18.1627C150.286 18.1627 148.557 19.8568 148.557 22.2848C148.557 24.7128 150.286 26.407 152.548 26.407C154.81 26.402 156.538 24.7079 156.538 22.2848ZM161.902 9.13062V29.17H165.414V9.13062H161.902ZM174.409 29.17V9.13062H176.759V26.9981H185.704V29.17H174.409ZM191.833 20.9551C188.751 21.093 186.598 22.3637 186.598 25.2447C186.598 27.9583 188.553 29.5097 191.359 29.5048C193.369 29.5048 195.092 28.5444 196.001 26.8502L196.51 29.1649H198.831L198.036 25.8062V19.9652C198.036 17.0005 196.026 15.0551 192.712 15.0551C190.899 15.0551 189.087 15.6166 187.758 16.2666V18.5272L192.43 17.0596C194.465 17.0596 195.769 18.1627 195.769 19.8569V20.7877L191.833 20.9551ZM195.769 22.6789V23.8067C195.685 26.2051 193.902 27.5053 191.833 27.5003C189.991 27.5003 188.86 26.6828 188.86 25.2447C188.86 23.6934 190.02 22.93 191.946 22.8463L195.769 22.6789ZM201.231 29.17V9.13062H203.493V17.6556C204.738 15.991 206.664 15.0602 208.704 15.0602C212.438 15.0602 215.781 17.9413 215.781 22.285C215.781 26.6288 212.443 29.5098 208.704 29.5098C206.551 29.5098 204.57 28.4953 203.326 26.6879V29.17H201.231ZM213.46 22.285C213.46 19.3498 211.282 17.1188 208.482 17.1188C205.736 17.1188 203.582 19.207 203.498 22.0585V22.285C203.498 25.2202 205.676 27.4512 208.482 27.4512C211.282 27.4463 213.46 25.2202 213.46 22.285ZM217.121 26.0918V28.4065C218.341 29.0566 219.783 29.5097 221.25 29.5048C224.109 29.5048 225.863 28.0076 225.863 25.4959C225.863 22.7985 223.795 21.9029 221.985 21.119C220.576 20.5088 219.324 19.9663 219.324 18.6946C219.324 17.7047 220.06 17.0005 221.447 17.0005L225.102 18.3843V16.0401C224.223 15.5919 222.978 15.0551 221.423 15.0551C218.963 15.0551 217.151 16.4932 217.151 18.6946C217.151 21.3765 219.145 22.2407 220.931 23.0146C222.379 23.6419 223.69 24.2099 223.69 25.6387C223.69 26.9684 222.672 27.5299 221.284 27.5299L217.121 26.0918Z" fill="#4A4A4A"/>
<path d="M0.743842 22.1046C0.285714 21.4365 0.0394089 20.4983 0 19.3489C0.320197 8.61096 9.14286 0 19.9951 0C31.0443 0 40 8.93025 40 19.9531C40 20.8078 39.9409 21.6527 39.8325 22.4779C35.6059 16.0381 28.7488 14.2943 27.9409 14.1076C26 13.5378 24.1182 13.302 22.3498 13.4052C15.3498 13.8227 11.9458 17.2121 9.21182 19.9383C7.22168 21.9179 5.78325 23.3523 3.49754 23.3523C2.21675 23.3473 1.31527 22.9396 0.743842 22.1046ZM30.8522 26.4076L30.7931 26.3585C29.5271 25.2385 26.9064 23.3424 23.5369 23.2098C20.3448 23.0821 17.3202 24.5901 14.5567 27.6995C12.5025 30.0082 9.26108 32.6755 4.98522 33.1421C6 34.2867 7.14286 35.3133 8.39409 36.2024C11.67 35.1659 13.6502 33.2256 15.5813 31.3295C17.6601 29.291 19.8079 27.1886 23.2414 26.9823C26.5025 26.7858 29.9212 29.237 31.0197 32.5527C31.4631 33.8839 31.4975 35.2249 31.1576 36.5069C32.2759 35.7554 33.3103 34.8958 34.2512 33.9379C34.0591 29.0798 31.0394 26.555 30.8522 26.4076ZM28.1232 33.5056C27.4631 31.5015 25.3103 29.9099 23.4286 30.018C21.1379 30.1556 19.6355 31.6292 17.7291 33.4958C16.1478 35.048 14.3399 36.8164 11.7389 38.1181C14.2562 39.2577 17.0493 39.8963 19.9951 39.8963C28.5172 39.9012 28.7931 35.5343 28.1232 33.5056ZM27.2315 17.0696L27.1232 17.0402C25.5025 16.5588 23.9606 16.3574 22.5369 16.4458C16.6946 16.7946 13.9901 19.4864 11.3744 22.0947C9.25123 24.2119 7.05419 26.3978 3.50246 26.3978C2.55172 26.3978 1.68473 26.2455 0.906404 25.9459C1.37438 27.4244 2.00493 28.8244 2.78818 30.131C2.95566 30.1457 3.12315 30.1605 3.29557 30.1654C6.49261 30.2931 9.51232 28.7802 12.2759 25.6757C14.6158 23.0477 18.4877 19.958 23.6601 20.1643C27.9557 20.3362 31.2217 22.6695 32.798 24.0596C33.1232 24.3249 35.0837 26.0343 36.3054 29.1044C36.5222 29.6398 36.6946 30.1752 36.8374 30.7106C37.5961 29.5317 38.2365 28.2742 38.734 26.943C35.5074 18.9952 27.601 17.1482 27.2315 17.0696Z" fill="url(#paint0_linear_4436_1944)"/>
<defs>
<linearGradient id="paint0_linear_4436_1944" x1="0" y1="0" x2="47.5903" y2="26.0066" gradientUnits="userSpaceOnUse">
<stop offset="0.104167" stop-color="#EF4E40"/>
<stop offset="0.838542" stop-color="#FFA573"/>
</linearGradient>
</defs>
</svg>
