<svg width="42" height="42" viewBox="0 0 42 42" fill="none" xmlns="http://www.w3.org/2000/svg">
<path d="M0.774017 23.4866C0.297305 22.7915 0.0410075 21.8152 0 20.6191C0.333186 9.44562 9.51375 0.485352 20.8062 0.485352C32.3037 0.485352 41.6226 9.77786 41.6226 21.2478C41.6226 22.1372 41.5611 23.0164 41.4484 23.8751C37.0503 17.1741 29.915 15.3595 29.0743 15.1653C27.0547 14.5724 25.0966 14.327 23.2564 14.4343C15.9724 14.8688 12.4304 18.3957 9.58551 21.2325C7.51463 23.2924 6.01786 24.7849 3.63942 24.7849C2.30667 24.7798 1.36863 24.3556 0.774017 23.4866ZM32.1038 27.9642L32.0423 27.9131C30.7249 26.7477 27.9979 24.7747 24.4917 24.6367C21.1701 24.5038 18.0228 26.073 15.1472 29.3085C13.0096 31.7109 9.63677 34.4863 5.18745 34.9719C6.2434 36.1629 7.43262 37.2312 8.7346 38.1563C12.1434 37.0778 14.204 35.0588 16.2134 33.0858C18.3765 30.9646 20.6114 28.7769 24.1842 28.5622C27.5776 28.3578 31.135 30.9084 32.2781 34.3586C32.7394 35.7437 32.7753 37.1392 32.4216 38.4732C33.5852 37.6912 34.6616 36.7967 35.6407 35.8C35.4408 30.7448 32.2986 28.1175 32.1038 27.9642ZM29.264 35.3502C28.5771 33.2647 26.3371 31.6086 24.379 31.7211C21.9954 31.8642 20.432 33.3976 18.4483 35.3399C16.8028 36.9551 14.9216 38.7952 12.2151 40.1498C14.8345 41.3356 17.7409 42.0001 20.8062 42.0001C29.6741 42.0052 29.9611 37.4612 29.264 35.3502ZM28.3362 18.2474L28.2234 18.2168C26.537 17.7159 24.9326 17.5063 23.4512 17.5983C17.3718 17.9612 14.5577 20.7623 11.8358 23.4764C9.62652 25.6794 7.34035 27.954 3.64454 27.954C2.65524 27.954 1.75307 27.7955 0.943173 27.4837C1.43014 29.0223 2.08626 30.479 2.90128 31.8386C3.07556 31.854 3.24985 31.8693 3.42926 31.8744C6.75599 32.0073 9.89819 30.433 12.7738 27.2026C15.2087 24.468 19.2377 21.2529 24.6199 21.4676C29.0897 21.6465 32.4882 24.0744 34.1285 25.521C34.4668 25.797 36.507 27.5757 37.7782 30.7704C38.0037 31.3275 38.1831 31.8846 38.3318 32.4418C39.1212 31.2151 39.7876 29.9065 40.3053 28.5213C36.9478 20.2511 28.7206 18.3292 28.3362 18.2474Z" fill="url(#paint0_linear_4477_328)"/>
<defs>
<linearGradient id="paint0_linear_4477_328" x1="0" y1="0.485352" x2="49.5208" y2="27.5469" gradientUnits="userSpaceOnUse">
<stop offset="0.104167" stop-color="#EF4E40"/>
<stop offset="0.838542" stop-color="#FFA573"/>
</linearGradient>
</defs>
</svg>
